PragmataProNerdFontCompleteMono.sfdir
StartChar: exclam
Encoding: 33 33 4
Width: 1060
GlyphClass: 2
Flags: W
LayerCount: 2
Fore
SplineSet
618 509 m 1,0,-1
 441 509 l 1,1,-1
 441 1580 l 1,2,-1
 618 1580 l 1,3,-1
 618 509 l 1,0,-1
665 114 m 0,4,5
 665 58 665 58 625 19 c 128,-1,6
 585 -20 585 -20 529 -20 c 256,7,8
 473 -20 473 -20 433.5 19 c 128,-1,9
 394 58 394 58 394 114 c 0,10,11
 394 171 394 171 433.5 210 c 128,-1,12
 473 249 473 249 529 249 c 256,13,14
 585 249 585 249 625 210 c 128,-1,15
 665 171 665 171 665 114 c 0,4,5
EndSplineSet
EndChar
StartChar: quotedbl
Encoding: 34 34 5
Width: 1060
GlyphClass: 2
Flags: W
LayerCount: 2
Fore
SplineSet
837 988 m 1,0,-1
 660 988 l 1,1,-1
 660 1580 l 1,2,-1
 837 1580 l 1,3,-1
 837 988 l 1,0,-1
399 988 m 1,4,-1
 222 988 l 1,5,-1
 222 1580 l 1,6,-1
 399 1580 l 1,7,-1
 399 988 l 1,4,-1
EndSplineSet
EndChar
StartChar: numbersign
Encoding: 35 35 6
Width: 1060
GlyphClass: 2
Flags: W
LayerCount: 2
Fore
SplineSet
968 632 m 1,0,-1
 739 632 l 1,1,-1
 668 300 l 1,2,-1
 491 300 l 1,3,-1
 562 632 l 1,4,-1
 363 632 l 1,5,-1
 292 300 l 1,6,-1
 115 300 l 1,7,-1
 186 632 l 1,8,-1
 10 632 l 1,9,-1
 10 788 l 1,10,-1
 219 788 l 1,11,-1
 284 1092 l 1,12,-1
 88 1092 l 1,13,-1
 88 1248 l 1,14,-1
 317 1248 l 1,15,-1
 387 1580 l 1,16,-1
 564 1580 l 1,17,-1
 494 1248 l 1,18,-1
 693 1248 l 1,19,-1
 763 1580 l 1,20,-1
 940 1580 l 1,21,-1
 870 1248 l 1,22,-1
 1046 1248 l 1,23,-1
 1046 1092 l 1,24,-1
 837 1092 l 1,25,-1
 772 788 l 1,26,-1
 968 788 l 1,27,-1
 968 632 l 1,0,-1
595 788 m 1,28,-1
 660 1092 l 1,29,-1
 461 1092 l 1,30,-1
 396 788 l 1,31,-1
 595 788 l 1,28,-1
EndSplineSet
EndChar
StartChar: dollar
Encoding: 36 36 7
Width: 1060
GlyphClass: 2
Flags: W
LayerCount: 2
Fore
SplineSet
949 369 m 0,0,1
 949 218 949 218 859.5 115 c 128,-1,2
 770 12 770 12 642 -11 c 1,3,-1
 642 -211 l 1,4,-1
 465 -211 l 1,5,-1
 465 -14 l 1,6,7
 240 9 240 9 110 240 c 1,8,-1
 240 338 l 1,9,10
 343 140 343 140 543 140 c 0,11,12
 638 140 638 140 705 200 c 128,-1,13
 772 260 772 260 772 368 c 0,14,15
 772 460 772 460 656 569 c 2,16,-1
 317 886 l 2,17,18
 175 1019 175 1019 175 1222 c 0,19,20
 175 1363 175 1363 255.5 1465.5 c 128,-1,21
 336 1568 336 1568 465 1591 c 1,22,-1
 465 1792 l 1,23,-1
 642 1792 l 1,24,-1
 642 1593 l 1,25,26
 813 1575 813 1575 950 1386 c 1,27,-1
 815 1280 l 1,28,29
 728 1442 728 1442 567 1442 c 0,30,31
 475 1442 475 1442 413.5 1389 c 128,-1,32
 352 1336 352 1336 352 1223 c 0,33,34
 352 1105 352 1105 445 1019 c 2,35,-1
 783 704 l 2,36,37
 949 547 949 547 949 369 c 0,0,1
EndSplineSet
EndChar
StartChar: percent
Encoding: 37 37 8
Width: 1060
GlyphClass: 3
Flags: W
LayerCount: 2
Fore
SplineSet
953 1580 m 1,0,-1
 291 0 l 1,1,-1
 120 0 l 1,2,-1
 783 1580 l 1,3,-1
 953 1580 l 1,0,-1
371 1115 m 1,4,-1
 164 1115 l 1,5,-1
 164 1580 l 1,6,-1
 371 1580 l 1,7,-1
 371 1115 l 1,4,-1
917 0 m 1,8,-1
 710 0 l 1,9,-1
 710 465 l 1,10,-1
 917 465 l 1,11,-1
 917 0 l 1,8,-1
EndSplineSet
Ligature2: "'frac' Diagonal Fractions in Latin lookup 3 subtable" zero slash zero
Ligature2: "'frac' Diagonal Fractions in Latin lookup 3 subtable" zero fraction zero
EndChar
StartChar: ampersand
Encoding: 38 38 9
Width: 1060
GlyphClass: 2
Flags: W
LayerCount: 2
Fore
SplineSet
984 735 m 1,0,-1
 984 441 l 2,1,2
 984 223 984 223 866 101.5 c 128,-1,3
 748 -20 748 -20 530 -20 c 256,4,5
 312 -20 312 -20 194 101.5 c 128,-1,6
 76 223 76 223 76 441 c 0,7,8
 76 725 76 725 319 875 c 1,9,-1
 281 955 l 2,10,11
 201 1125 201 1125 201 1259 c 0,12,13
 201 1413 201 1413 287.5 1507.5 c 128,-1,14
 374 1602 374 1602 519 1602 c 256,15,16
 664 1602 664 1602 749.5 1506 c 128,-1,17
 835 1410 835 1410 835 1259 c 0,18,19
 835 1014 835 1014 515 817 c 1,20,-1
 777 261 l 1,21,22
 807 341 807 341 807 440 c 2,23,-1
 807 735 l 1,24,-1
 984 735 l 1,0,-1
378 1259 m 0,25,26
 378 1106 378 1106 449 956 c 1,27,28
 658 1085 658 1085 658 1259 c 0,29,30
 658 1445 658 1445 518 1445 c 256,31,32
 378 1445 378 1445 378 1259 c 0,25,26
530 136 m 0,33,34
 609 136 609 136 657 159 c 1,35,-1
 384 736 l 1,36,37
 253 654 253 654 253 441 c 0,38,39
 253 136 253 136 530 136 c 0,33,34
EndSplineSet
EndChar
StartChar: quotesingle
Encoding: 39 39 10
Width: 1060
GlyphClass: 2
Flags: W
LayerCount: 2
Fore
SplineSet
618 988 m 1,0,-1
 441 988 l 1,1,-1
 441 1580 l 1,2,-1
 618 1580 l 1,3,-1
 618 988 l 1,0,-1
EndSplineSet
EndChar
StartChar: parenleft
Encoding: 40 40 11
Width: 1060
GlyphClass: 2
Flags: W
LayerCount: 2
Fore
SplineSet
452 730 m 256,0,1
 452 408 452 408 576 149.5 c 128,-1,2
 700 -109 700 -109 897 -255 c 1,3,-1
 808 -375 l 1,4,5
 574 -200 574 -200 428.5 88.5 c 128,-1,6
 283 377 283 377 283 730 c 256,7,8
 283 1083 283 1083 428.5 1371.5 c 128,-1,9
 574 1660 574 1660 808 1835 c 1,10,-1
 897 1715 l 1,11,12
 700 1569 700 1569 576 1310.5 c 128,-1,13
 452 1052 452 1052 452 730 c 256,0,1
EndSplineSet
Substitution2: "'sinf' Scientific Inferiors in Greek lookup 9 subtable" parenleftinferior
Substitution2: "'sinf' Scientific Inferiors in Cyrillic lookup 8 subtable" parenleftinferior
Substitution2: "'sinf' Scientific Inferiors in Latin lookup 7 subtable" parenleftinferior
Substitution2: "'sups' Superscript lookup 2 subtable" parenleftsuperior
Substitution2: "'sups' Superscript lookup 1 subtable" parenleftsuperior
Substitution2: "'sups' Superscript in Latin lookup 0 subtable" parenleftsuperior
EndChar
StartChar: parenright
Encoding: 41 41 12
Width: 1060
GlyphClass: 2
Flags: W
LayerCount: 2
Fore
SplineSet
608 730 m 256,0,1
 608 1052 608 1052 484 1310.5 c 128,-1,2
 360 1569 360 1569 163 1715 c 1,3,-1
 252 1835 l 1,4,5
 486 1660 486 1660 631.5 1371.5 c 128,-1,6
 777 1083 777 1083 777 730 c 256,7,8
 777 377 777 377 631.5 88.5 c 128,-1,9
 486 -200 486 -200 252 -375 c 1,10,-1
 163 -255 l 1,11,12
 360 -109 360 -109 484 149.5 c 128,-1,13
 608 408 608 408 608 730 c 256,0,1
EndSplineSet
Substitution2: "'sinf' Scientific Inferiors in Greek lookup 9 subtable" parenrightinferior
Substitution2: "'sinf' Scientific Inferiors in Cyrillic lookup 8 subtable" parenrightinferior
Substitution2: "'sinf' Scientific Inferiors in Latin lookup 7 subtable" parenrightinferior
Substitution2: "'sups' Superscript lookup 2 subtable" parenrightsuperior
Substitution2: "'sups' Superscript lookup 1 subtable" parenrightsuperior
Substitution2: "'sups' Superscript in Latin lookup 0 subtable" parenrightsuperior
EndChar
StartChar: glyph13
Encoding: 42 42 13
Width: 1060
GlyphClass: 2
Flags: W
LayerCount: 2
Fore
SplineSet
932 829 m 1,0,-1
 853 694 l 1,1,-1
 600 850 l 1,2,-1
 607 552 l 1,3,-1
 452 552 l 1,4,-1
 459 850 l 1,5,-1
 206 694 l 1,6,-1
 127 829 l 1,7,-1
 389 971 l 1,8,-1
 127 1114 l 1,9,-1
 206 1248 l 1,10,-1
 459 1093 l 1,11,-1
 452 1390 l 1,12,-1
 607 1390 l 1,13,-1
 600 1093 l 1,14,-1
 853 1248 l 1,15,-1
 932 1114 l 1,16,-1
 670 971 l 1,17,-1
 932 829 l 1,0,-1
EndSplineSet
Substitution2: "'dlig' Discretionary Ligatures in Latin lookup 11 subtable" blackstar
EndChar
StartChar: glyph14
Encoding: 43 43 14
Width: 1060
GlyphClass: 2
Flags: W
LayerCount: 2
Fore
SplineSet
1000 702 m 1,0,-1
 618 702 l 1,1,-1
 618 321 l 1,2,-1
 442 321 l 1,3,-1
 442 702 l 1,4,-1
 59 702 l 1,5,-1
 59 878 l 1,6,-1
 442 878 l 1,7,-1
 442 1261 l 1,8,-1
 618 1261 l 1,9,-1
 618 878 l 1,10,-1
 1000 878 l 1,11,-1
 1000 702 l 1,0,-1
EndSplineSet
Substitution2: "'sinf' Scientific Inferiors in Greek lookup 9 subtable" plussub
Substitution2: "'sinf' Scientific Inferiors in Cyrillic lookup 8 subtable" plussub
Substitution2: "'sinf' Scientific Inferiors in Latin lookup 7 subtable" plussub
Substitution2: "'sups' Superscript lookup 2 subtable" plussuperior
Substitution2: "'sups' Superscript lookup 1 subtable" plussuperior
Substitution2: "'sups' Superscript in Latin lookup 0 subtable" plussuperior
EndChar
StartChar: comma
Encoding: 44 44 15
Width: 1060
GlyphClass: 2
Flags: W
LayerCount: 2
Fore
SplineSet
734 155 m 0,0,1
 734 -36 734 -36 532 -365 c 1,2,-1
 356 -365 l 1,3,4
 483 -164 483 -164 526 0 c 1,5,6
 439 3 439 3 383 57.5 c 128,-1,7
 327 112 327 112 327 193 c 0,8,9
 327 283 327 283 380.5 340.5 c 128,-1,10
 434 398 434 398 520 398 c 0,11,12
 617 398 617 398 675.5 331 c 128,-1,13
 734 264 734 264 734 155 c 0,0,1
EndSplineSet
EndChar
StartChar: hyphen
Encoding: 45 45 16
Width: 1060
GlyphClass: 2
Flags: W
LayerCount: 2
Fore
SplineSet
815 698 m 1,0,-1
 244 698 l 1,1,-1
 244 874 l 1,2,-1
 815 874 l 1,3,-1
 815 698 l 1,0,-1
EndSplineSet
Substitution2: "'sinf' Scientific Inferiors in Greek lookup 9 subtable" minussub
Substitution2: "'sinf' Scientific Inferiors in Cyrillic lookup 8 subtable" minussub
Substitution2: "'sinf' Scientific Inferiors in Latin lookup 7 subtable" minussub
Substitution2: "'sups' Superscript lookup 2 subtable" minussuperior
Substitution2: "'sups' Superscript lookup 1 subtable" minussuperior
Substitution2: "'sups' Superscript in Latin lookup 0 subtable" minussuperior
EndChar
StartChar: period
Encoding: 46 46 17
Width: 1060
GlyphClass: 2
Flags: W
LayerCount: 2
Fore
SplineSet
734 183 m 0,0,1
 734 102 734 102 675.5 41 c 128,-1,2
 617 -20 617 -20 529 -20 c 0,3,4
 440 -20 440 -20 383.5 41 c 128,-1,5
 327 102 327 102 327 183 c 0,6,7
 327 263 327 263 383.5 325 c 128,-1,8
 440 387 440 387 529 387 c 0,9,10
 617 387 617 387 675.5 324.5 c 128,-1,11
 734 262 734 262 734 183 c 0,0,1
EndSplineSet
EndChar
StartChar: slash
Encoding: 47 47 18
Width: 1060
GlyphClass: 2
Flags: W
LayerCount: 2
Fore
SplineSet
951 1580 m 1,0,-1
 289 0 l 1,1,-1
 108 0 l 1,2,-1
 770 1580 l 1,3,-1
 951 1580 l 1,0,-1
EndSplineSet
Substitution2: "Single Substitution lookup 16 subtable" fraction
EndChar
StartChar: zero
Encoding: 48 48 19
Width: 1060
GlyphClass: 2
Flags: W
LayerCount: 2
Fore
SplineSet
108 791 m 256,0,1
 108 955 108 955 213 1335 c 0,2,3
 284 1602 284 1602 525 1602 c 0,4,5
 776 1602 776 1602 847 1335 c 0,6,7
 952 955 952 955 952 791 c 256,8,9
 952 627 952 627 847 247 c 0,10,11
 776 -20 776 -20 525 -20 c 0,12,13
 284 -20 284 -20 213 247 c 0,14,15
 108 627 108 627 108 791 c 256,0,1
776 791 m 256,16,17
 776 957 776 957 683 1291 c 1,18,19
 646 1440 646 1440 525 1441 c 0,20,21
 414 1440 414 1440 377 1291 c 1,22,23
 284 957 284 957 284 791 c 256,24,25
 284 625 284 625 377 290 c 1,26,27
 414 141 414 141 525 140 c 0,28,29
 646 141 646 141 683 290 c 1,30,31
 776 625 776 625 776 791 c 256,16,17
628 700 m 1,32,-1
 540 700 l 1,33,-1
 426 930 l 1,34,-1
 515 930 l 1,35,-1
 628 700 l 1,32,-1
EndSplineSet
Substitution2: "'dnom' Denominators in Greek lookup 15 subtable" .notdef
Substitution2: "'dnom' Denominators in Cyrillic lookup 14 subtable" .notdef
Substitution2: "'dnom' Denominators in Latin lookup 13 subtable" .notdef
Substitution2: "'sinf' Scientific Inferiors in Greek lookup 9 subtable" zeroinferior
Substitution2: "'sinf' Scientific Inferiors in Cyrillic lookup 8 subtable" zeroinferior
Substitution2: "'sinf' Scientific Inferiors in Latin lookup 7 subtable" zeroinferior
Substitution2: "'frac' Diagonal Fractions in Latin lookup 4 subtable" zerosuperior
Substitution2: "'sups' Superscript lookup 2 subtable" zerosuperior
Substitution2: "'sups' Superscript lookup 1 subtable" zerosuperior
Substitution2: "'sups' Superscript in Latin lookup 0 subtable" zerosuperior
EndChar
StartChar: one
Encoding: 49 49 20
Width: 1060
GlyphClass: 2
Flags: W
LayerCount: 2
Fore
SplineSet
562 0 m 1,0,-1
 562 1367 l 1,1,-1
 265 1135 l 1,2,-1
 185 1269 l 1,3,-1
 582 1580 l 1,4,-1
 739 1580 l 1,5,-1
 739 0 l 1,6,-1
 562 0 l 1,0,-1
EndSplineSet
Substitution2: "'dnom' Denominators in Greek lookup 15 subtable" .notdef
Substitution2: "'dnom' Denominators in Cyrillic lookup 14 subtable" .notdef
Substitution2: "'dnom' Denominators in Latin lookup 13 subtable" .notdef
Substitution2: "'sinf' Scientific Inferiors in Greek lookup 9 subtable" oneinferior
Substitution2: "'sinf' Scientific Inferiors in Cyrillic lookup 8 subtable" oneinferior
Substitution2: "'sinf' Scientific Inferiors in Latin lookup 7 subtable" oneinferior
Substitution2: "'frac' Diagonal Fractions in Latin lookup 4 subtable" onesuperior
Substitution2: "'sups' Superscript lookup 2 subtable" onesuperior
Substitution2: "'sups' Superscript lookup 1 subtable" onesuperior
Substitution2: "'sups' Superscript in Latin lookup 0 subtable" onesuperior
EndChar
StartChar: two
Encoding: 50 50 21
Width: 1060
GlyphClass: 2
Flags: W
LayerCount: 2
Fore
SplineSet
916 0 m 1,0,-1
 184 0 l 1,1,-1
 184 150 l 2,2,3
 184 394 184 394 417 692 c 2,4,-1
 652 993 l 2,5,6
 739 1104 739 1104 739 1213 c 0,7,8
 739 1329 739 1329 683 1385.5 c 128,-1,9
 627 1442 627 1442 530 1442 c 0,10,11
 362 1442 362 1442 289 1240 c 1,12,-1
 144 1341 l 1,13,14
 279 1602 279 1602 530 1602 c 0,15,16
 690 1602 690 1602 803 1492 c 128,-1,17
 916 1382 916 1382 916 1212 c 0,18,19
 916 1046 916 1046 781 874 c 2,20,-1
 550 578 l 2,21,22
 360 334 360 334 360 150 c 1,23,-1
 916 150 l 1,24,-1
 916 0 l 1,0,-1
EndSplineSet
Substitution2: "'dnom' Denominators in Greek lookup 15 subtable" .notdef
Substitution2: "'dnom' Denominators in Cyrillic lookup 14 subtable" .notdef
Substitution2: "'dnom' Denominators in Latin lookup 13 subtable" .notdef
Substitution2: "'sinf' Scientific Inferiors in Greek lookup 9 subtable" twoinferior
Substitution2: "'sinf' Scientific Inferiors in Cyrillic lookup 8 subtable" twoinferior
Substitution2: "'sinf' Scientific Inferiors in Latin lookup 7 subtable" twoinferior
Substitution2: "'frac' Diagonal Fractions in Latin lookup 4 subtable" twosuperior
Substitution2: "'sups' Superscript lookup 2 subtable" twosuperior
Substitution2: "'sups' Superscript lookup 1 subtable" twosuperior
Substitution2: "'sups' Superscript in Latin lookup 0 subtable" twosuperior
EndChar
StartChar: three
Encoding: 51 51 22
Width: 1060
GlyphClass: 2
Flags: W
LayerCount: 2
Fore
SplineSet
100 240 m 1,0,-1
 244 336 l 1,1,2
 318 140 318 140 517 140 c 0,3,4
 620 140 620 140 689 212 c 128,-1,5
 758 284 758 284 758 466 c 0,6,7
 758 638 758 638 676.5 700 c 128,-1,8
 595 762 595 762 487 762 c 2,9,-1
 410 762 l 1,10,-1
 410 912 l 1,11,-1
 487 912 l 2,12,13
 579 912 579 912 652.5 977.5 c 128,-1,14
 726 1043 726 1043 726 1182 c 0,15,16
 726 1318 726 1318 667 1380 c 128,-1,17
 608 1442 608 1442 517 1442 c 0,18,19
 349 1442 349 1442 275 1245 c 1,20,-1
 131 1341 l 1,21,22
 277 1602 277 1602 518 1602 c 0,23,24
 688 1602 688 1602 795.5 1487.5 c 128,-1,25
 903 1373 903 1373 903 1182 c 0,26,27
 903 928 903 928 693 837 c 1,28,29
 935 769 935 769 935 466 c 0,30,31
 935 228 935 228 817 104 c 128,-1,32
 699 -20 699 -20 518 -20 c 0,33,34
 246 -20 246 -20 100 240 c 1,0,-1
EndSplineSet
Substitution2: "'dnom' Denominators in Greek lookup 15 subtable" .notdef
Substitution2: "'dnom' Denominators in Cyrillic lookup 14 subtable" .notdef
Substitution2: "'dnom' Denominators in Latin lookup 13 subtable" .notdef
Substitution2: "'sinf' Scientific Inferiors in Greek lookup 9 subtable" threeinferior
Substitution2: "'sinf' Scientific Inferiors in Cyrillic lookup 8 subtable" threeinferior
Substitution2: "'sinf' Scientific Inferiors in Latin lookup 7 subtable" threeinferior
Substitution2: "'frac' Diagonal Fractions in Latin lookup 4 subtable" threesuperior
Substitution2: "'sups' Superscript lookup 2 subtable" threesuperior
Substitution2: "'sups' Superscript lookup 1 subtable" threesuperior
Substitution2: "'sups' Superscript in Latin lookup 0 subtable" threesuperior
EndChar
StartChar: four
Encoding: 52 52 23
Width: 1060
GlyphClass: 2
Flags: W
LayerCount: 2
Fore
SplineSet
922 429 m 1,0,-1
 820 429 l 1,1,-1
 820 0 l 1,2,-1
 644 0 l 1,3,-1
 644 429 l 1,4,-1
 88 429 l 1,5,-1
 88 579 l 1,6,-1
 604 1580 l 1,7,-1
 820 1580 l 1,8,-1
 820 579 l 1,9,-1
 922 579 l 1,10,-1
 922 429 l 1,0,-1
644 579 m 1,11,-1
 644 1323 l 1,12,-1
 260 579 l 1,13,-1
 644 579 l 1,11,-1
EndSplineSet
Substitution2: "'dnom' Denominators in Greek lookup 15 subtable" .notdef
Substitution2: "'dnom' Denominators in Cyrillic lookup 14 subtable" .notdef
Substitution2: "'dnom' Denominators in Latin lookup 13 subtable" .notdef
Substitution2: "'sinf' Scientific Inferiors in Greek lookup 9 subtable" fourinferior
Substitution2: "'sinf' Scientific Inferiors in Cyrillic lookup 8 subtable" fourinferior
Substitution2: "'sinf' Scientific Inferiors in Latin lookup 7 subtable" fourinferior
Substitution2: "'frac' Diagonal Fractions in Latin lookup 4 subtable" foursuperior
Substitution2: "'sups' Superscript lookup 2 subtable" foursuperior
Substitution2: "'sups' Superscript lookup 1 subtable" foursuperior
Substitution2: "'sups' Superscript in Latin lookup 0 subtable" foursuperior
EndChar
StartChar: five
Encoding: 53 53 24
Width: 1060
GlyphClass: 2
Flags: W
LayerCount: 2
Fore
SplineSet
921 493 m 0,0,1
 921 248 921 248 803 114 c 128,-1,2
 685 -20 685 -20 516 -20 c 0,3,4
 259 -20 259 -20 129 224 c 1,5,-1
 273 319 l 1,6,7
 347 140 347 140 515 140 c 0,8,9
 606 140 606 140 675 221.5 c 128,-1,10
 744 303 744 303 744 493 c 0,11,12
 744 685 744 685 676 761.5 c 128,-1,13
 608 838 608 838 454 838 c 2,14,-1
 220 838 l 1,15,-1
 220 1580 l 1,16,-1
 888 1580 l 1,17,-1
 888 1430 l 1,18,-1
 396 1430 l 1,19,-1
 396 998 l 1,20,-1
 485 998 l 2,21,22
 681 998 681 998 801 880.5 c 128,-1,23
 921 763 921 763 921 493 c 0,0,1
EndSplineSet
Substitution2: "'dnom' Denominators in Greek lookup 15 subtable" .notdef
Substitution2: "'dnom' Denominators in Cyrillic lookup 14 subtable" .notdef
Substitution2: "'dnom' Denominators in Latin lookup 13 subtable" .notdef
Substitution2: "'sinf' Scientific Inferiors in Greek lookup 9 subtable" fiveinferior
Substitution2: "'sinf' Scientific Inferiors in Cyrillic lookup 8 subtable" fiveinferior
Substitution2: "'sinf' Scientific Inferiors in Latin lookup 7 subtable" fiveinferior
Substitution2: "'frac' Diagonal Fractions in Latin lookup 4 subtable" fivesuperior
Substitution2: "'sups' Superscript lookup 2 subtable" fivesuperior
Substitution2: "'sups' Superscript lookup 1 subtable" fivesuperior
Substitution2: "'sups' Superscript in Latin lookup 0 subtable" fivesuperior
EndChar
StartChar: six
Encoding: 54 54 25
Width: 1060
GlyphClass: 2
Flags: W
LayerCount: 2
Fore
SplineSet
950 475 m 0,0,1
 950 239 950 239 839 109.5 c 128,-1,2
 728 -20 728 -20 555 -20 c 0,3,4
 394 -20 394 -20 276.5 109.5 c 128,-1,5
 159 239 159 239 159 548 c 2,6,-1
 159 1014 l 2,7,8
 159 1313 159 1313 272 1457.5 c 128,-1,9
 385 1602 385 1602 574 1602 c 0,10,11
 786 1602 786 1602 922 1386 c 1,12,-1
 778 1286 l 1,13,14
 711 1442 711 1442 576 1442 c 0,15,16
 464 1442 464 1442 400 1350.5 c 128,-1,17
 336 1259 336 1259 336 1014 c 2,18,-1
 336 794 l 1,19,20
 431 968 431 968 608 968 c 0,21,22
 762 968 762 968 856 842.5 c 128,-1,23
 950 717 950 717 950 475 c 0,0,1
774 475 m 0,24,25
 774 667 774 667 719 737 c 128,-1,26
 664 807 664 807 576 807 c 0,27,28
 387 807 387 807 336 582 c 1,29,30
 336 294 336 294 398.5 217 c 128,-1,31
 461 140 461 140 556 140 c 0,32,33
 647 140 647 140 710.5 217 c 128,-1,34
 774 294 774 294 774 475 c 0,24,25
EndSplineSet
Substitution2: "'dnom' Denominators in Greek lookup 15 subtable" .notdef
Substitution2: "'dnom' Denominators in Cyrillic lookup 14 subtable" .notdef
Substitution2: "'dnom' Denominators in Latin lookup 13 subtable" .notdef
Substitution2: "'sinf' Scientific Inferiors in Greek lookup 9 subtable" sixinferior
Substitution2: "'sinf' Scientific Inferiors in Cyrillic lookup 8 subtable" sixinferior
Substitution2: "'sinf' Scientific Inferiors in Latin lookup 7 subtable" sixinferior
Substitution2: "'frac' Diagonal Fractions in Latin lookup 4 subtable" sixsuperior
Substitution2: "'sups' Superscript lookup 2 subtable" sixsuperior
Substitution2: "'sups' Superscript lookup 1 subtable" sixsuperior
Substitution2: "'sups' Superscript in Latin lookup 0 subtable" sixsuperior
EndChar
StartChar: seven
Encoding: 55 55 26
Width: 1060
GlyphClass: 2
Flags: W
LayerCount: 2
Fore
SplineSet
668 800 m 2,0,1
 518 501 518 501 509 158 c 2,2,-1
 504 0 l 1,3,-1
 328 0 l 1,4,-1
 333 171 l 2,5,6
 343 505 343 505 533 886 c 2,7,-1
 675 1172 l 2,8,9
 749 1318 749 1318 749 1430 c 1,10,-1
 141 1430 l 1,11,-1
 141 1580 l 1,12,-1
 925 1580 l 1,13,-1
 925 1507 l 2,14,15
 925 1314 925 1314 810 1086 c 2,16,-1
 668 800 l 2,0,1
EndSplineSet
Substitution2: "'dnom' Denominators in Greek lookup 15 subtable" .notdef
Substitution2: "'dnom' Denominators in Cyrillic lookup 14 subtable" .notdef
Substitution2: "'dnom' Denominators in Latin lookup 13 subtable" .notdef
Substitution2: "'sinf' Scientific Inferiors in Greek lookup 9 subtable" seveninferior
Substitution2: "'sinf' Scientific Inferiors in Cyrillic lookup 8 subtable" seveninferior
Substitution2: "'sinf' Scientific Inferiors in Latin lookup 7 subtable" seveninferior
Substitution2: "'frac' Diagonal Fractions in Latin lookup 4 subtable" sevensuperior
Substitution2: "'sups' Superscript lookup 2 subtable" sevensuperior
Substitution2: "'sups' Superscript lookup 1 subtable" sevensuperior
Substitution2: "'sups' Superscript in Latin lookup 0 subtable" sevensuperior
EndChar
StartChar: eight
Encoding: 56 56 27
Width: 1060
GlyphClass: 2
Flags: W
LayerCount: 2
Fore
SplineSet
529 -20 m 0,0,1
 349 -20 349 -20 231 94 c 128,-1,2
 113 208 113 208 113 402 c 0,3,4
 113 693 113 693 383 847 c 1,5,6
 155 1006 155 1006 155 1222 c 0,7,8
 155 1393 155 1393 262.5 1497.5 c 128,-1,9
 370 1602 370 1602 529 1602 c 0,10,11
 690 1602 690 1602 797.5 1497.5 c 128,-1,12
 905 1393 905 1393 905 1222 c 0,13,14
 905 1007 905 1007 677 847 c 1,15,16
 947 693 947 693 947 402 c 0,17,18
 947 208 947 208 829 94 c 128,-1,19
 711 -20 711 -20 529 -20 c 0,0,1
529 1442 m 0,20,21
 442 1442 442 1442 386.5 1385.5 c 128,-1,22
 331 1329 331 1329 331 1222 c 0,23,24
 331 1048 331 1048 529 926 c 1,25,26
 729 1048 729 1048 729 1222 c 0,27,28
 729 1329 729 1329 674 1385.5 c 128,-1,29
 619 1442 619 1442 529 1442 c 0,20,21
529 747 m 1,30,31
 289 629 289 629 289 402 c 0,32,33
 289 259 289 259 355.5 199.5 c 128,-1,34
 422 140 422 140 529 140 c 0,35,36
 638 140 638 140 704.5 199.5 c 128,-1,37
 771 259 771 259 771 402 c 0,38,39
 771 629 771 629 529 747 c 1,30,31
EndSplineSet
Substitution2: "'dnom' Denominators in Greek lookup 15 subtable" .notdef
Substitution2: "'dnom' Denominators in Cyrillic lookup 14 subtable" .notdef
Substitution2: "'dnom' Denominators in Latin lookup 13 subtable" .notdef
Substitution2: "'sinf' Scientific Inferiors in Greek lookup 9 subtable" eightinferior
Substitution2: "'sinf' Scientific Inferiors in Cyrillic lookup 8 subtable" eightinferior
Substitution2: "'sinf' Scientific Inferiors in Latin lookup 7 subtable" eightinferior
Substitution2: "'frac' Diagonal Fractions in Latin lookup 4 subtable" eightsuperior
Substitution2: "'sups' Superscript lookup 2 subtable" eightsuperior
Substitution2: "'sups' Superscript lookup 1 subtable" eightsuperior
Substitution2: "'sups' Superscript in Latin lookup 0 subtable" eightsuperior
EndChar
StartChar: nine
Encoding: 57 57 28
Width: 1060
GlyphClass: 2
Flags: W
LayerCount: 2
Fore
SplineSet
110 1107 m 0,0,1
 110 1343 110 1343 221 1472.5 c 128,-1,2
 332 1602 332 1602 505 1602 c 0,3,4
 666 1602 666 1602 783.5 1472.5 c 128,-1,5
 901 1343 901 1343 901 1034 c 2,6,-1
 901 568 l 2,7,8
 901 269 901 269 788 124.5 c 128,-1,9
 675 -20 675 -20 486 -20 c 0,10,11
 274 -20 274 -20 138 196 c 1,12,-1
 282 290 l 1,13,14
 349 140 349 140 484 140 c 0,15,16
 596 140 596 140 660.5 231.5 c 128,-1,17
 725 323 725 323 725 568 c 2,18,-1
 725 788 l 1,19,20
 636 614 636 614 452 614 c 0,21,22
 298 614 298 614 204 739.5 c 128,-1,23
 110 865 110 865 110 1107 c 0,0,1
286 1107 m 0,24,25
 286 912 286 912 341 842 c 128,-1,26
 396 772 396 772 484 772 c 0,27,28
 674 772 674 772 725 1016 c 1,29,30
 725 1288 725 1288 662 1365 c 128,-1,31
 599 1442 599 1442 504 1442 c 0,32,33
 413 1442 413 1442 349.5 1365 c 128,-1,34
 286 1288 286 1288 286 1107 c 0,24,25
EndSplineSet
Substitution2: "'dnom' Denominators in Greek lookup 15 subtable" .notdef
Substitution2: "'dnom' Denominators in Cyrillic lookup 14 subtable" .notdef
Substitution2: "'dnom' Denominators in Latin lookup 13 subtable" .notdef
Substitution2: "'sinf' Scientific Inferiors in Greek lookup 9 subtable" nineinferior
Substitution2: "'sinf' Scientific Inferiors in Cyrillic lookup 8 subtable" nineinferior
Substitution2: "'sinf' Scientific Inferiors in Latin lookup 7 subtable" nineinferior
Substitution2: "'frac' Diagonal Fractions in Latin lookup 4 subtable" ninesuperior
Substitution2: "'sups' Superscript lookup 2 subtable" ninesuperior
Substitution2: "'sups' Superscript lookup 1 subtable" ninesuperior
Substitution2: "'sups' Superscript in Latin lookup 0 subtable" ninesuperior
EndChar
StartChar: colon
Encoding: 58 58 29
Width: 1060
GlyphClass: 2
Flags: W
LayerCount: 2
Fore
SplineSet
734 183 m 0,0,1
 734 102 734 102 675.5 41 c 128,-1,2
 617 -20 617 -20 529 -20 c 0,3,4
 440 -20 440 -20 383.5 41 c 128,-1,5
 327 102 327 102 327 183 c 0,6,7
 327 263 327 263 383.5 325 c 128,-1,8
 440 387 440 387 529 387 c 0,9,10
 617 387 617 387 675.5 324.5 c 128,-1,11
 734 262 734 262 734 183 c 0,0,1
734 990 m 0,12,13
 734 909 734 909 675.5 848 c 128,-1,14
 617 787 617 787 529 787 c 0,15,16
 440 787 440 787 383.5 848 c 128,-1,17
 327 909 327 909 327 990 c 0,18,19
 327 1070 327 1070 383.5 1132 c 128,-1,20
 440 1194 440 1194 529 1194 c 0,21,22
 617 1194 617 1194 675.5 1131.5 c 128,-1,23
 734 1069 734 1069 734 990 c 0,12,13
EndSplineSet
EndChar
StartChar: semicolon
Encoding: 59 59 30
Width: 1060
GlyphClass: 2
Flags: W
LayerCount: 2
Fore
SplineSet
734 990 m 0,0,1
 734 909 734 909 675.5 848 c 128,-1,2
 617 787 617 787 529 787 c 0,3,4
 440 787 440 787 383.5 848 c 128,-1,5
 327 909 327 909 327 990 c 0,6,7
 327 1070 327 1070 383.5 1132 c 128,-1,8
 440 1194 440 1194 529 1194 c 0,9,10
 617 1194 617 1194 675.5 1131.5 c 128,-1,11
 734 1069 734 1069 734 990 c 0,0,1
734 155 m 0,12,13
 734 -36 734 -36 532 -365 c 1,14,-1
 356 -365 l 1,15,16
 483 -164 483 -164 526 0 c 1,17,18
 439 3 439 3 383 57.5 c 128,-1,19
 327 112 327 112 327 193 c 0,20,21
 327 283 327 283 380.5 340.5 c 128,-1,22
 434 398 434 398 520 398 c 0,23,24
 617 398 617 398 675.5 331 c 128,-1,25
 734 264 734 264 734 155 c 0,12,13
EndSplineSet
EndChar
StartChar: less
Encoding: 60 60 31
Width: 1060
GlyphClass: 2
Flags: W
LayerCount: 2
Fore
SplineSet
302 790 m 1,0,-1
 939 452 l 1,1,-1
 939 263 l 1,2,-1
 81 730 l 1,3,-1
 81 850 l 1,4,-1
 939 1317 l 1,5,-1
 939 1128 l 1,6,-1
 302 790 l 1,0,-1
EndSplineSet
EndChar
StartChar: equal
Encoding: 61 61 32
Width: 1060
GlyphClass: 2
Flags: W
LayerCount: 2
Fore
SplineSet
1000 905 m 1,0,-1
 59 905 l 1,1,-1
 59 1071 l 1,2,-1
 1000 1071 l 1,3,-1
 1000 905 l 1,0,-1
1000 507 m 1,4,-1
 59 507 l 1,5,-1
 59 673 l 1,6,-1
 1000 673 l 1,7,-1
 1000 507 l 1,4,-1
EndSplineSet
Substitution2: "'sinf' Scientific Inferiors in Greek lookup 9 subtable" equalsub
Substitution2: "'sinf' Scientific Inferiors in Cyrillic lookup 8 subtable" equalsub
Substitution2: "'sinf' Scientific Inferiors in Latin lookup 7 subtable" equalsub
Substitution2: "'sups' Superscript lookup 2 subtable" equalsuperior
Substitution2: "'sups' Superscript lookup 1 subtable" equalsuperior
Substitution2: "'sups' Superscript in Latin lookup 0 subtable" equalsuperior
EndChar
StartChar: greater
Encoding: 62 62 33
Width: 1060
GlyphClass: 2
Flags: W
LayerCount: 2
Fore
SplineSet
121 1128 m 1,0,-1
 121 1317 l 1,1,-1
 979 850 l 1,2,-1
 979 730 l 1,3,-1
 121 263 l 1,4,-1
 121 452 l 1,5,-1
 758 790 l 1,6,-1
 121 1128 l 1,0,-1
EndSplineSet
EndChar
StartChar: glyph34
Encoding: 63 63 34
Width: 1060
GlyphClass: 2
Flags: W
LayerCount: 2
Fore
SplineSet
890 1222 m 0,0,1
 890 1093 890 1093 807 970 c 2,2,-1
 615 690 l 2,3,4
 576 632 576 632 576 566 c 2,5,-1
 576 509 l 1,6,-1
 399 509 l 1,7,-1
 399 567 l 2,8,9
 399 684 399 684 469 789 c 2,10,-1
 667 1079 l 2,11,12
 713 1147 713 1147 713 1223 c 0,13,14
 713 1309 713 1309 656.5 1371 c 128,-1,15
 600 1433 600 1433 504 1433 c 0,16,17
 337 1433 337 1433 252 1245 c 1,18,-1
 108 1341 l 1,19,20
 254 1602 254 1602 505 1602 c 0,21,22
 674 1602 674 1602 782 1492.5 c 128,-1,23
 890 1383 890 1383 890 1222 c 0,0,1
641 114 m 0,24,25
 641 58 641 58 601.5 19 c 128,-1,26
 562 -20 562 -20 505 -20 c 0,27,28
 449 -20 449 -20 410 19 c 128,-1,29
 371 58 371 58 371 114 c 0,30,31
 371 171 371 171 410 210 c 128,-1,32
 449 249 449 249 505 249 c 0,33,34
 562 249 562 249 601.5 210 c 128,-1,35
 641 171 641 171 641 114 c 0,24,25
EndSplineSet
EndChar
StartChar: at
Encoding: 64 64 35
Width: 1060
GlyphClass: 2
Flags: W
LayerCount: 2
Fore
SplineSet
560 1172 m 0,0,1
 417 1172 417 1172 326.5 1066.5 c 128,-1,2
 236 961 236 961 236 732 c 2,3,-1
 236 201 l 2,4,5
 236 -10 236 -10 341.5 -115.5 c 128,-1,6
 447 -221 447 -221 616 -221 c 0,7,8
 848 -221 848 -221 1001 -64 c 1,9,-1
 1001 -250 l 1,10,11
 854 -375 854 -375 613 -375 c 0,12,13
 380 -375 380 -375 229.5 -224 c 128,-1,14
 79 -73 79 -73 79 201 c 2,15,-1
 79 732 l 2,16,17
 79 1025 79 1025 214.5 1175.5 c 128,-1,18
 350 1326 350 1326 560 1326 c 0,19,20
 748 1326 748 1326 874.5 1208 c 128,-1,21
 1001 1090 1001 1090 1001 805 c 2,22,-1
 1001 305 l 2,23,24
 1001 153 1001 153 914.5 66.5 c 128,-1,25
 828 -20 828 -20 706 -20 c 0,26,27
 585 -20 585 -20 499 66.5 c 128,-1,28
 413 153 413 153 413 305 c 2,29,-1
 413 521 l 2,30,31
 413 896 413 896 666 896 c 0,32,33
 768 896 768 896 844 806 c 1,34,-1
 844 828 l 2,35,36
 844 1029 844 1029 758 1100.5 c 128,-1,37
 672 1172 672 1172 560 1172 c 0,0,1
844 562 m 2,38,39
 844 653 844 653 804 701.5 c 128,-1,40
 764 750 764 750 696 750 c 0,41,42
 573 750 573 750 570 551 c 2,43,-1
 570 294 l 2,44,45
 570 206 570 206 609.5 166 c 128,-1,46
 649 126 649 126 706 126 c 0,47,48
 764 126 764 126 804 166 c 128,-1,49
 844 206 844 206 844 294 c 2,50,-1
 844 562 l 2,38,39
EndSplineSet
EndChar
StartChar: A
Encoding: 65 65 36
Width: 1060
GlyphClass: 2
Flags: W
LayerCount: 2
Fore
SplineSet
289 88 m 2,0,-1
 289 0 l 1,1,-1
 113 0 l 1,2,-1
 113 88 l 2,3,4
 113 315 113 315 248 852 c 2,5,-1
 431 1580 l 1,6,-1
 629 1580 l 1,7,-1
 812 852 l 2,8,9
 947 315 947 315 947 88 c 2,10,-1
 947 0 l 1,11,-1
 771 0 l 1,12,-1
 771 88 l 2,13,14
 771 195 771 195 741 370 c 1,15,-1
 318 370 l 1,16,17
 289 195 289 195 289 88 c 2,0,-1
530 1300 m 1,18,-1
 399 754 l 2,19,20
 368 627 368 627 346 520 c 1,21,-1
 713 520 l 1,22,23
 691 627 691 627 661 754 c 2,24,-1
 530 1300 l 1,18,-1
EndSplineSet
EndChar
StartChar: B
Encoding: 66 66 37
Width: 1060
GlyphClass: 2
Flags: W
LayerCount: 2
Fore
SplineSet
935 481 m 0,0,1
 935 238 935 238 807 119 c 128,-1,2
 679 0 679 0 469 0 c 2,3,-1
 165 0 l 1,4,-1
 165 1580 l 1,5,-1
 486 1580 l 2,6,7
 688 1580 688 1580 790 1476 c 128,-1,8
 892 1372 892 1372 892 1199 c 0,9,10
 892 948 892 948 678 869 c 1,11,12
 935 790 935 790 935 481 c 0,0,1
710 1199 m 0,13,14
 710 1326 710 1326 654 1378 c 128,-1,15
 598 1430 598 1430 485 1430 c 2,16,-1
 341 1430 l 1,17,-1
 341 924 l 1,18,-1
 465 924 l 2,19,20
 567 924 567 924 638.5 990 c 128,-1,21
 710 1056 710 1056 710 1199 c 0,13,14
753 481 m 0,22,23
 753 647 753 647 692 710.5 c 128,-1,24
 631 774 631 774 524 774 c 2,25,-1
 341 774 l 1,26,-1
 341 150 l 1,27,-1
 468 150 l 2,28,29
 620 150 620 150 686.5 221.5 c 128,-1,30
 753 293 753 293 753 481 c 0,22,23
EndSplineSet
EndChar
StartChar: C
Encoding: 67 67 38
Width: 1060
GlyphClass: 2
Flags: W
LayerCount: 2
Fore
SplineSet
980 234 m 1,0,1
 833 -20 833 -20 579 -20 c 0,2,3
 407 -20 407 -20 289 95 c 128,-1,4
 171 210 171 210 171 519 c 2,5,-1
 171 1063 l 2,6,7
 171 1362 171 1362 289 1482 c 128,-1,8
 407 1602 407 1602 577 1602 c 0,9,10
 843 1602 843 1602 970 1346 c 1,11,-1
 826 1259 l 1,12,13
 747 1442 747 1442 578 1442 c 0,14,15
 479 1442 479 1442 413.5 1370 c 128,-1,16
 348 1298 348 1298 348 1063 c 2,17,-1
 348 519 l 2,18,19
 348 284 348 284 413.5 212 c 128,-1,20
 479 140 479 140 578 140 c 0,21,22
 747 140 747 140 836 331 c 1,23,-1
 980 234 l 1,0,1
EndSplineSet
EndChar
StartChar: D
Encoding: 68 68 39
Width: 1060
GlyphClass: 2
Flags: W
LayerCount: 2
Fore
SplineSet
960 648 m 2,0,1
 960 339 960 339 818.5 169.5 c 128,-1,2
 677 0 677 0 435 0 c 2,3,-1
 174 0 l 1,4,-1
 174 1580 l 1,5,-1
 435 1580 l 2,6,7
 677 1580 677 1580 818.5 1420.5 c 128,-1,8
 960 1261 960 1261 960 953 c 2,9,-1
 960 648 l 2,0,1
778 648 m 2,10,-1
 778 953 l 2,11,12
 778 1195 778 1195 686 1312.5 c 128,-1,13
 594 1430 594 1430 435 1430 c 2,14,-1
 349 1430 l 1,15,-1
 349 150 l 1,16,-1
 435 150 l 2,17,18
 594 150 594 150 686 275.5 c 128,-1,19
 778 401 778 401 778 648 c 2,10,-1
EndSplineSet
EndChar
StartChar: E
Encoding: 69 69 40
Width: 1060
GlyphClass: 2
Flags: W
LayerCount: 2
Fore
SplineSet
924 0 m 1,0,-1
 196 0 l 1,1,-1
 196 1580 l 1,2,-1
 924 1580 l 1,3,-1
 924 1430 l 1,4,-1
 372 1430 l 1,5,-1
 372 918 l 1,6,-1
 780 918 l 1,7,-1
 780 768 l 1,8,-1
 372 768 l 1,9,-1
 372 150 l 1,10,-1
 924 150 l 1,11,-1
 924 0 l 1,0,-1
EndSplineSet
EndChar
StartChar: F
Encoding: 70 70 41
Width: 1060
GlyphClass: 2
Flags: W
LayerCount: 2
Fore
SplineSet
970 1430 m 1,0,-1
 398 1430 l 1,1,-1
 398 918 l 1,2,-1
 858 918 l 1,3,-1
 858 768 l 1,4,-1
 398 768 l 1,5,-1
 398 0 l 1,6,-1
 222 0 l 1,7,-1
 222 1580 l 1,8,-1
 970 1580 l 1,9,-1
 970 1430 l 1,0,-1
EndSplineSet
EndChar
StartChar: I
Encoding: 73 73 44
Width: 1060
GlyphClass: 2
Flags: W
LayerCount: 2
Fore
SplineSet
867 0 m 1,0,-1
 192 0 l 1,1,-1
 192 150 l 1,2,-1
 441 150 l 1,3,-1
 441 1430 l 1,4,-1
 245 1430 l 1,5,-1
 245 1580 l 1,6,-1
 814 1580 l 1,7,-1
 814 1430 l 1,8,-1
 618 1430 l 1,9,-1
 618 150 l 1,10,-1
 867 150 l 1,11,-1
 867 0 l 1,0,-1
EndSplineSet
EndChar
StartChar: M
Encoding: 77 77 48
Width: 1060
GlyphClass: 2
Flags: W
LayerCount: 2
Fore
SplineSet
934 0 m 1,0,-1
 758 0 l 1,1,-1
 758 417 l 1,2,-1
 789 1354 l 1,3,-1
 585 700 l 1,4,-1
 475 700 l 1,5,-1
 271 1354 l 1,6,-1
 302 417 l 1,7,-1
 302 0 l 1,8,-1
 126 0 l 1,9,-1
 126 1580 l 1,10,-1
 302 1580 l 1,11,-1
 530 923 l 1,12,-1
 758 1580 l 1,13,-1
 934 1580 l 1,14,-1
 934 0 l 1,0,-1
EndSplineSet
EndChar
StartChar: N
Encoding: 78 78 49
Width: 1060
GlyphClass: 2
Flags: W
LayerCount: 2
Fore
SplineSet
910 0 m 1,0,-1
 748 0 l 1,1,-1
 734 478 l 1,2,-1
 286 1334 l 1,3,-1
 326 527 l 1,4,-1
 326 0 l 1,5,-1
 150 0 l 1,6,-1
 150 1580 l 1,7,-1
 326 1580 l 1,8,-1
 774 724 l 1,9,-1
 734 1531 l 1,10,-1
 734 1580 l 1,11,-1
 910 1580 l 1,12,-1
 910 0 l 1,0,-1
EndSplineSet
EndChar
StartChar: P
Encoding: 80 80 51
Width: 1060
GlyphClass: 2
Flags: W
LayerCount: 2
Fore
SplineSet
376 0 m 1,0,-1
 200 0 l 1,1,-1
 200 1580 l 1,2,-1
 544 1580 l 2,3,4
 755 1580 755 1580 862.5 1465.5 c 128,-1,5
 970 1351 970 1351 970 1160 c 0,6,7
 970 946 970 946 852 831.5 c 128,-1,8
 734 717 734 717 544 717 c 2,9,-1
 376 717 l 1,10,-1
 376 0 l 1,0,-1
376 867 m 1,11,-1
 543 867 l 2,12,13
 665 867 665 867 726.5 929 c 128,-1,14
 788 991 788 991 788 1160 c 0,15,16
 788 1306 788 1306 731.5 1368 c 128,-1,17
 675 1430 675 1430 543 1430 c 2,18,-1
 376 1430 l 1,19,-1
 376 867 l 1,11,-1
EndSplineSet
EndChar
StartChar: Q
Encoding: 81 81 52
Width: 1060
GlyphClass: 2
Flags: W
LayerCount: 2
Fore
SplineSet
918 479 m 2,0,1
 918 122 918 122 702 18 c 1,2,-1
 816 -269 l 1,3,-1
 629 -269 l 1,4,-1
 530 -20 l 1,5,6
 358 -19 358 -19 250 100.5 c 128,-1,7
 142 220 142 220 142 479 c 2,8,-1
 142 1103 l 2,9,10
 142 1362 142 1362 250 1482 c 128,-1,11
 358 1602 358 1602 530 1602 c 256,12,13
 702 1602 702 1602 810 1482 c 128,-1,14
 918 1362 918 1362 918 1103 c 2,15,-1
 918 479 l 2,0,1
741 488 m 2,16,-1
 741 1102 l 2,17,18
 741 1297 741 1297 684.5 1369.5 c 128,-1,19
 628 1442 628 1442 529 1442 c 256,20,21
 430 1442 430 1442 374.5 1369.5 c 128,-1,22
 319 1297 319 1297 319 1102 c 2,23,-1
 319 488 l 2,24,25
 319 284 319 284 374.5 212 c 128,-1,26
 430 140 430 140 530 140 c 0,27,28
 628 140 628 140 684.5 212.5 c 128,-1,29
 741 285 741 285 741 488 c 2,16,-1
EndSplineSet
EndChar
StartChar: R
Encoding: 82 82 53
Width: 1060
GlyphClass: 2
Flags: W
LayerCount: 2
Fore
SplineSet
550 720 m 1,0,-1
 366 720 l 1,1,-1
 366 0 l 1,2,-1
 190 0 l 1,3,-1
 190 1580 l 1,4,-1
 535 1580 l 2,5,6
 745 1580 745 1580 847.5 1466 c 128,-1,7
 950 1352 950 1352 950 1160 c 0,8,9
 950 998 950 998 884.5 893.5 c 128,-1,10
 819 789 819 789 722 753 c 1,11,-1
 740 724 l 1,12,13
 937 417 937 417 958 70 c 2,14,-1
 962 0 l 1,15,-1
 786 0 l 1,16,-1
 783 55 l 2,17,18
 763 386 763 386 576 678 c 1,19,-1
 550 720 l 1,0,-1
366 870 m 1,20,-1
 534 870 l 2,21,22
 656 870 656 870 712 942 c 128,-1,23
 768 1014 768 1014 768 1161 c 0,24,25
 768 1306 768 1306 712 1368 c 128,-1,26
 656 1430 656 1430 534 1430 c 2,27,-1
 366 1430 l 1,28,-1
 366 870 l 1,20,-1
EndSplineSet
EndChar
StartChar: S
Encoding: 83 83 54
Width: 1060
GlyphClass: 2
Flags: W
LayerCount: 2
Fore
SplineSet
949 369 m 0,0,1
 949 208 949 208 842 94 c 128,-1,2
 735 -20 735 -20 546 -20 c 0,3,4
 247 -20 247 -20 110 240 c 1,5,-1
 240 339 l 1,6,7
 343 140 343 140 545 140 c 0,8,9
 638 140 638 140 705 197.5 c 128,-1,10
 772 255 772 255 772 368 c 0,11,12
 772 460 772 460 656 569 c 2,13,-1
 317 886 l 2,14,15
 175 1020 175 1020 175 1222 c 0,16,17
 175 1383 175 1383 279.5 1492.5 c 128,-1,18
 384 1602 384 1602 566 1602 c 0,19,20
 803 1602 803 1602 950 1386 c 1,21,-1
 815 1280 l 1,22,23
 728 1442 728 1442 567 1442 c 0,24,25
 475 1442 475 1442 413.5 1389 c 128,-1,26
 352 1336 352 1336 352 1223 c 0,27,28
 352 1105 352 1105 445 1019 c 2,29,-1
 783 704 l 2,30,31
 949 547 949 547 949 369 c 0,0,1
EndSplineSet
EndChar
StartChar: V
Encoding: 86 86 57
Width: 1060
GlyphClass: 2
Flags: W
LayerCount: 2
Fore
SplineSet
431 0 m 1,0,-1
 235 728 l 2,1,2
 103 1216 103 1216 103 1492 c 2,3,-1
 103 1580 l 1,4,-1
 279 1580 l 1,5,-1
 279 1492 l 2,6,7
 279 1264 279 1264 379 836 c 2,8,-1
 530 198 l 1,9,-1
 681 836 l 2,10,11
 781 1264 781 1264 781 1492 c 2,12,-1
 781 1580 l 1,13,-1
 957 1580 l 1,14,-1
 957 1492 l 2,15,16
 957 1216 957 1216 825 728 c 2,17,-1
 629 0 l 1,18,-1
 431 0 l 1,0,-1
EndSplineSet
EndChar
StartChar: W
Encoding: 87 87 58
Width: 1060
GlyphClass: 2
Flags: W
LayerCount: 2
Fore
SplineSet
737 95 m 1,0,-1
 764 468 l 2,1,2
 779 675 779 675 779 937 c 2,3,-1
 779 1580 l 1,4,-1
 955 1580 l 1,5,-1
 955 1199 l 2,6,7
 955 810 955 810 900 468 c 2,8,-1
 826 0 l 1,9,-1
 660 0 l 1,10,-1
 530 612 l 1,11,-1
 400 0 l 1,12,-1
 234 0 l 1,13,-1
 160 468 l 2,14,15
 105 810 105 810 105 1199 c 2,16,-1
 105 1580 l 1,17,-1
 281 1580 l 1,18,-1
 281 937 l 2,19,20
 281 675 281 675 296 468 c 2,21,-1
 323 95 l 1,22,-1
 474 807 l 1,23,-1
 586 807 l 1,24,-1
 737 95 l 1,0,-1
EndSplineSet
EndChar
StartChar: X
Encoding: 88 88 59
Width: 1060
GlyphClass: 2
Flags: W
LayerCount: 2
Fore
SplineSet
88 0 m 1,0,-1
 92 70 l 2,1,2
 101 227 101 227 251 487 c 2,3,-1
 438 807 l 1,4,-1
 272 1093 l 2,5,6
 122 1352 122 1352 112 1510 c 2,7,-1
 108 1580 l 1,8,-1
 284 1580 l 1,9,-1
 287 1525 l 2,10,11
 295 1370 295 1370 406 1179 c 2,12,-1
 530 965 l 1,13,-1
 654 1179 l 2,14,15
 765 1370 765 1370 773 1525 c 2,16,-1
 776 1580 l 1,17,-1
 952 1580 l 1,18,-1
 948 1510 l 2,19,20
 938 1352 938 1352 788 1093 c 2,21,-1
 622 807 l 1,22,-1
 809 487 l 2,23,24
 959 227 959 227 968 70 c 2,25,-1
 972 0 l 1,26,-1
 796 0 l 1,27,-1
 793 55 l 2,28,29
 785 210 785 210 674 401 c 2,30,-1
 530 649 l 1,31,-1
 386 401 l 2,32,33
 275 210 275 210 267 55 c 2,34,-1
 264 0 l 1,35,-1
 88 0 l 1,0,-1
EndSplineSet
EndChar
StartChar: Y
Encoding: 89 89 60
Width: 1060
GlyphClass: 2
Flags: W
LayerCount: 2
Fore
SplineSet
618 0 m 1,0,-1
 442 0 l 1,1,-1
 442 673 l 1,2,-1
 272 983 l 2,3,4
 98 1300 98 1300 98 1507 c 2,5,-1
 98 1580 l 1,6,-1
 274 1580 l 1,7,-1
 274 1507 l 2,8,9
 274 1329 274 1329 406 1072 c 2,10,-1
 530 825 l 1,11,-1
 654 1072 l 2,12,13
 786 1329 786 1329 786 1507 c 2,14,-1
 786 1580 l 1,15,-1
 962 1580 l 1,16,-1
 962 1507 l 2,17,18
 962 1300 962 1300 788 983 c 2,19,-1
 618 673 l 1,20,-1
 618 0 l 1,0,-1
EndSplineSet
EndChar
StartChar: Z
Encoding: 90 90 61
Width: 1060
GlyphClass: 2
Flags: W
LayerCount: 2
Fore
SplineSet
944 0 m 1,0,-1
 155 0 l 1,1,-1
 155 150 l 1,2,-1
 746 1430 l 1,3,-1
 155 1430 l 1,4,-1
 155 1580 l 1,5,-1
 934 1580 l 1,6,-1
 934 1430 l 1,7,-1
 343 150 l 1,8,-1
 944 150 l 1,9,-1
 944 0 l 1,0,-1
EndSplineSet
EndChar
StartChar: bracketleft
Encoding: 91 91 62
Width: 1060
GlyphClass: 2
Flags: W
LayerCount: 2
Fore
SplineSet
874 -211 m 1,0,-1
 325 -211 l 1,1,-1
 325 1580 l 1,2,-1
 874 1580 l 1,3,-1
 874 1424 l 1,4,-1
 502 1424 l 1,5,-1
 502 -54 l 1,6,-1
 874 -54 l 1,7,-1
 874 -211 l 1,0,-1
EndSplineSet
EndChar
StartChar: backslash
Encoding: 92 92 63
Width: 1060
GlyphClass: 2
Flags: W
LayerCount: 2
Fore
SplineSet
279 1580 m 1,0,-1
 941 0 l 1,1,-1
 780 0 l 1,2,-1
 118 1580 l 1,3,-1
 279 1580 l 1,0,-1
EndSplineSet
EndChar
StartChar: bracketright
Encoding: 93 93 64
Width: 1060
GlyphClass: 2
Flags: W
LayerCount: 2
Fore
SplineSet
735 -211 m 1,0,-1
 186 -211 l 1,1,-1
 186 -54 l 1,2,-1
 558 -54 l 1,3,-1
 558 1424 l 1,4,-1
 186 1424 l 1,5,-1
 186 1580 l 1,6,-1
 735 1580 l 1,7,-1
 735 -211 l 1,0,-1
EndSplineSet
EndChar
StartChar: asciicircum
Encoding: 94 94 65
Width: 1060
GlyphClass: 2
Flags: W
LayerCount: 2
Fore
SplineSet
954 622 m 1,0,-1
 766 622 l 1,1,-1
 529 1345 l 1,2,-1
 285 622 l 1,3,-1
 105 622 l 1,4,-1
 437 1580 l 1,5,-1
 619 1580 l 1,6,-1
 954 622 l 1,0,-1
EndSplineSet
EndChar
StartChar: underscore
Encoding: 95 95 66
Width: 1060
GlyphClass: 2
Flags: W
LayerCount: 2
Fore
SplineSet
1071 -226 m 1,0,-1
 -11 -226 l 1,1,-1
 -11 -70 l 1,2,-1
 1071 -70 l 1,3,-1
 1071 -226 l 1,0,-1
EndSplineSet
EndChar
StartChar: grave
Encoding: 96 96 67
Width: 1060
GlyphClass: 2
Flags: W
LayerCount: 2
Fore
SplineSet
729 1335 m 1,0,-1
 565 1335 l 1,1,-1
 330 1580 l 1,2,-1
 550 1580 l 1,3,-1
 729 1335 l 1,0,-1
EndSplineSet
EndChar
StartChar: a
Encoding: 97 97 68
Width: 1060
GlyphClass: 2
Flags: W
LayerCount: 2
Fore
SplineSet
884 0 m 1,0,-1
 708 0 l 1,1,-1
 708 132 l 1,2,3
 596 -20 596 -20 425 -20 c 0,4,5
 282 -20 282 -20 193.5 78.5 c 128,-1,6
 105 177 105 177 105 326 c 0,7,8
 105 479 105 479 215.5 582.5 c 128,-1,9
 326 686 326 686 540 686 c 2,10,-1
 708 686 l 1,11,-1
 708 813 l 2,12,13
 708 1034 708 1034 498 1034 c 0,14,15
 343 1034 343 1034 266 897 c 1,16,-1
 133 997 l 1,17,18
 271 1194 271 1194 499 1194 c 0,19,20
 668 1194 668 1194 776 1097.5 c 128,-1,21
 884 1001 884 1001 884 813 c 2,22,-1
 884 0 l 1,0,-1
708 275 m 1,23,-1
 708 544 l 1,24,-1
 540 544 l 2,25,26
 414 544 414 544 350 485 c 128,-1,27
 286 426 286 426 286 326 c 0,28,29
 286 140 286 140 469 140 c 0,30,31
 613 140 613 140 708 275 c 1,23,-1
EndSplineSet
EndChar
StartChar: b
Encoding: 98 98 69
Width: 1060
GlyphClass: 2
Flags: W
LayerCount: 2
Fore
SplineSet
940 505 m 2,0,1
 940 225 940 225 839.5 102.5 c 128,-1,2
 739 -20 739 -20 599 -20 c 0,3,4
 419 -20 419 -20 327 141 c 1,5,-1
 327 0 l 1,6,-1
 151 0 l 1,7,-1
 151 1580 l 1,8,-1
 327 1580 l 1,9,-1
 327 1030 l 1,10,11
 419 1194 419 1194 599 1194 c 0,12,13
 739 1194 739 1194 839.5 1070.5 c 128,-1,14
 940 947 940 947 940 667 c 2,15,-1
 940 505 l 2,0,1
759 505 m 2,16,-1
 759 667 l 2,17,18
 759 872 759 872 707 953 c 128,-1,19
 655 1034 655 1034 556 1034 c 0,20,21
 381 1034 381 1034 327 800 c 1,22,-1
 327 373 l 1,23,24
 382 140 382 140 556 140 c 0,25,26
 655 140 655 140 707 220.5 c 128,-1,27
 759 301 759 301 759 505 c 2,16,-1
EndSplineSet
EndChar
StartChar: c
Encoding: 99 99 70
Width: 1060
GlyphClass: 2
Flags: W
LayerCount: 2
Fore
SplineSet
972 195 m 1,0,1
 837 -20 837 -20 587 -20 c 0,2,3
 407 -20 407 -20 291 108.5 c 128,-1,4
 175 237 175 237 175 514 c 2,5,-1
 175 659 l 2,6,7
 175 936 175 936 291 1065 c 128,-1,8
 407 1194 407 1194 587 1194 c 0,9,10
 837 1194 837 1194 972 977 c 1,11,-1
 829 887 l 1,12,13
 742 1034 742 1034 597 1034 c 0,14,15
 485 1034 485 1034 418.5 959.5 c 128,-1,16
 352 885 352 885 352 659 c 2,17,-1
 352 514 l 2,18,19
 352 289 352 289 418.5 214.5 c 128,-1,20
 485 140 485 140 597 140 c 0,21,22
 742 140 742 140 829 286 c 1,23,-1
 972 195 l 1,0,1
EndSplineSet
EndChar
StartChar: d
Encoding: 100 100 71
Width: 1060
GlyphClass: 2
Flags: W
LayerCount: 2
Fore
SplineSet
120 667 m 2,0,1
 120 947 120 947 220.5 1070.5 c 128,-1,2
 321 1194 321 1194 461 1194 c 0,3,4
 641 1194 641 1194 733 1030 c 1,5,-1
 733 1580 l 1,6,-1
 909 1580 l 1,7,-1
 909 0 l 1,8,-1
 733 0 l 1,9,-1
 733 141 l 1,10,11
 641 -20 641 -20 461 -20 c 0,12,13
 321 -20 321 -20 220.5 102.5 c 128,-1,14
 120 225 120 225 120 505 c 2,15,-1
 120 667 l 2,0,1
301 505 m 2,16,17
 301 301 301 301 353 220.5 c 128,-1,18
 405 140 405 140 504 140 c 0,19,20
 678 140 678 140 733 373 c 1,21,-1
 733 790 l 1,22,23
 679 1034 679 1034 504 1034 c 0,24,25
 405 1034 405 1034 353 953 c 128,-1,26
 301 872 301 872 301 667 c 2,27,-1
 301 505 l 2,16,17
EndSplineSet
EndChar
StartChar: e
Encoding: 101 101 72
Width: 1060
GlyphClass: 2
Flags: W
LayerCount: 2
Fore
SplineSet
924 551 m 1,0,-1
 311 551 l 1,1,-1
 311 516 l 2,2,3
 311 289 311 289 377.5 214.5 c 128,-1,4
 444 140 444 140 557 140 c 0,5,6
 702 140 702 140 788 286 c 1,7,-1
 931 195 l 1,8,9
 796 -20 796 -20 546 -20 c 0,10,11
 366 -20 366 -20 250.5 108.5 c 128,-1,12
 135 237 135 237 135 516 c 2,13,-1
 135 657 l 2,14,15
 135 936 135 936 250.5 1065 c 128,-1,16
 366 1194 366 1194 530 1194 c 0,17,18
 704 1194 704 1194 814 1075 c 128,-1,19
 924 956 924 956 924 687 c 2,20,-1
 924 551 l 1,0,-1
748 706 m 1,21,22
 748 885 748 885 686.5 959.5 c 128,-1,23
 625 1034 625 1034 530 1034 c 0,24,25
 439 1034 439 1034 375 959.5 c 128,-1,26
 311 885 311 885 311 706 c 1,27,-1
 748 706 l 1,21,22
EndSplineSet
EndChar
StartChar: f
Encoding: 102 102 73
Width: 1060
GlyphClass: 2
Flags: W
LayerCount: 2
Fore
SplineSet
837 1352 m 1,0,1
 796 1441 796 1441 684 1441 c 0,2,3
 611 1441 611 1441 570 1394 c 128,-1,4
 529 1347 529 1347 529 1225 c 2,5,-1
 529 1107 l 1,6,-1
 923 1107 l 1,7,-1
 923 957 l 1,8,-1
 529 957 l 1,9,-1
 529 0 l 1,10,-1
 352 0 l 1,11,-1
 352 957 l 1,12,-1
 155 957 l 1,13,-1
 155 1107 l 1,14,-1
 352 1107 l 1,15,-1
 352 1214 l 2,16,17
 352 1414 352 1414 445 1507.5 c 128,-1,18
 538 1601 538 1601 673 1601 c 0,19,20
 880 1601 880 1601 970 1459 c 1,21,-1
 837 1352 l 1,0,1
EndSplineSet
EndChar
StartChar: g
Encoding: 103 103 74
Width: 1060
GlyphClass: 2
Flags: W
LayerCount: 2
Fore
SplineSet
988 1032 m 1,0,-1
 927 1032 l 1,1,-1
 831 1041 l 1,2,3
 910 945 910 945 910 846 c 0,4,5
 910 710 910 710 811.5 620 c 128,-1,6
 713 530 713 530 542 530 c 0,7,8
 479 530 479 530 427 530 c 1,9,10
 343 475 343 475 343 424 c 0,11,12
 343 372 343 372 376 346.5 c 128,-1,13
 409 321 409 321 486 321 c 2,14,-1
 583 321 l 2,15,16
 802 321 802 321 900 228 c 128,-1,17
 998 135 998 135 998 -7 c 0,18,19
 998 -167 998 -167 873 -271 c 128,-1,20
 748 -375 748 -375 545 -375 c 0,21,22
 331 -375 331 -375 220.5 -278.5 c 128,-1,23
 110 -182 110 -182 110 -45 c 0,24,25
 110 135 110 135 291 227 c 1,26,27
 157 283 157 283 157 397 c 0,28,29
 157 513 157 513 299 594 c 1,30,31
 154 692 154 692 154 864 c 0,32,33
 154 1008 154 1008 256.5 1098 c 128,-1,34
 359 1188 359 1188 543 1188 c 0,35,36
 597 1188 597 1188 805 1172 c 1,37,-1
 988 1172 l 1,38,-1
 988 1032 l 1,0,-1
740 865 m 0,39,40
 740 936 740 936 688.5 989 c 128,-1,41
 637 1042 637 1042 533 1042 c 0,42,43
 428 1042 428 1042 376.5 992 c 128,-1,44
 325 942 325 942 325 862 c 0,45,46
 325 771 325 771 379 723.5 c 128,-1,47
 433 676 433 676 530 676 c 0,48,49
 636 676 636 676 688 725 c 128,-1,50
 740 774 740 774 740 865 c 0,39,40
817 -7 m 0,51,52
 817 70 817 70 765.5 115.5 c 128,-1,53
 714 161 714 161 583 161 c 2,54,-1
 512 161 l 2,55,56
 392 161 392 161 341.5 107 c 128,-1,57
 291 53 291 53 291 -32 c 0,58,59
 291 -120 291 -120 357 -168 c 128,-1,60
 423 -216 423 -216 532 -216 c 0,61,62
 817 -216 817 -216 817 -7 c 0,51,52
EndSplineSet
EndChar
StartChar: h
Encoding: 104 104 75
Width: 1060
GlyphClass: 2
Flags: W
LayerCount: 2
Fore
SplineSet
910 0 m 1,0,-1
 734 0 l 1,1,-1
 734 758 l 2,2,3
 734 915 734 915 686.5 974.5 c 128,-1,4
 639 1034 639 1034 556 1034 c 0,5,6
 382 1034 382 1034 326 793 c 1,7,-1
 326 0 l 1,8,-1
 150 0 l 1,9,-1
 150 1580 l 1,10,-1
 326 1580 l 1,11,-1
 326 1032 l 1,12,13
 439 1194 439 1194 599 1194 c 0,14,15
 730 1194 730 1194 820 1097 c 128,-1,16
 910 1000 910 1000 910 768 c 2,17,-1
 910 0 l 1,0,-1
EndSplineSet
EndChar
StartChar: i
Encoding: 105 105 76
Width: 1060
GlyphClass: 2
Flags: W
LayerCount: 2
Fore
SplineSet
643 1569 m 256,0,1
 643 1513 643 1513 604 1473.5 c 128,-1,2
 565 1434 565 1434 507 1434 c 256,3,4
 449 1434 449 1434 410.5 1473.5 c 128,-1,5
 372 1513 372 1513 372 1569 c 256,6,7
 372 1625 372 1625 410.5 1665 c 128,-1,8
 449 1705 449 1705 507 1705 c 256,9,10
 565 1705 565 1705 604 1665 c 128,-1,11
 643 1625 643 1625 643 1569 c 256,0,1
909 0 m 1,12,-1
 170 0 l 1,13,-1
 170 150 l 1,14,-1
 451 150 l 1,15,-1
 451 1022 l 1,16,-1
 250 1022 l 1,17,-1
 250 1172 l 1,18,-1
 628 1172 l 1,19,-1
 628 150 l 1,20,-1
 909 150 l 1,21,-1
 909 0 l 1,12,-1
EndSplineSet
Substitution2: "'sups' Superscript lookup 2 subtable" isuperior
Substitution2: "'sups' Superscript lookup 1 subtable" isuperior
Substitution2: "'sups' Superscript in Latin lookup 0 subtable" isuperior
EndChar
StartChar: j
Encoding: 106 106 77
Width: 1060
GlyphClass: 2
Flags: W
LayerCount: 2
Fore
SplineSet
756 1569 m 256,0,1
 756 1513 756 1513 717 1473.5 c 128,-1,2
 678 1434 678 1434 621 1434 c 0,3,4
 562 1434 562 1434 523.5 1473.5 c 128,-1,5
 485 1513 485 1513 485 1569 c 256,6,7
 485 1625 485 1625 523.5 1665 c 128,-1,8
 562 1705 562 1705 621 1705 c 0,9,10
 678 1705 678 1705 717 1665 c 128,-1,11
 756 1625 756 1625 756 1569 c 256,0,1
564 90 m 2,12,-1
 564 1022 l 1,13,-1
 363 1022 l 1,14,-1
 363 1172 l 1,15,-1
 741 1172 l 1,16,-1
 741 90 l 2,17,18
 741 -128 741 -128 633 -251.5 c 128,-1,19
 525 -375 525 -375 350 -375 c 0,20,21
 153 -375 153 -375 10 -210 c 1,22,-1
 131 -96 l 1,23,24
 216 -215 216 -215 339 -215 c 0,25,26
 442 -215 442 -215 503 -145.5 c 128,-1,27
 564 -76 564 -76 564 90 c 2,12,-1
EndSplineSet
EndChar
StartChar: k
Encoding: 107 107 78
Width: 1060
GlyphClass: 2
Flags: W
LayerCount: 2
Fore
SplineSet
970 0 m 1,0,-1
 794 0 l 1,1,2
 786 129 786 129 667 301 c 2,3,-1
 492 552 l 1,4,-1
 361 392 l 1,5,-1
 361 0 l 1,6,-1
 185 0 l 1,7,-1
 185 1580 l 1,8,-1
 361 1580 l 1,9,-1
 361 609 l 1,10,-1
 620 928 l 2,11,12
 749 1087 749 1087 753 1172 c 1,13,-1
 929 1172 l 1,14,-1
 927 1134 l 2,15,16
 921 1041 921 1041 752 834 c 2,17,-1
 611 661 l 1,18,-1
 793 397 l 2,19,20
 960 156 960 156 967 41 c 2,21,-1
 970 0 l 1,0,-1
EndSplineSet
EndChar
StartChar: m
Encoding: 109 109 80
Width: 1060
GlyphClass: 2
Flags: W
LayerCount: 2
Fore
SplineSet
959 0 m 1,0,-1
 805 0 l 1,1,-1
 805 885 l 2,2,3
 805 1035 805 1035 729 1035 c 0,4,5
 654 1035 654 1035 607 919 c 1,6,-1
 607 0 l 1,7,-1
 453 0 l 1,8,-1
 453 885 l 2,9,10
 451 1035 451 1035 385 1035 c 0,11,12
 308 1035 308 1035 255 919 c 1,13,-1
 255 0 l 1,14,-1
 101 0 l 1,15,-1
 101 1172 l 1,16,-1
 255 1172 l 1,17,-1
 255 1057 l 1,18,19
 333 1194 333 1194 438 1194 c 0,20,21
 547 1194 547 1194 588 1057 c 1,22,23
 664 1194 664 1194 774 1194 c 0,24,25
 959 1194 959 1194 959 893 c 2,26,-1
 959 0 l 1,0,-1
EndSplineSet
EndChar
StartChar: n
Encoding: 110 110 81
Width: 1060
GlyphClass: 2
Flags: W
LayerCount: 2
Fore
SplineSet
910 0 m 1,0,-1
 734 0 l 1,1,-1
 734 760 l 2,2,3
 734 912 734 912 686.5 971.5 c 128,-1,4
 639 1031 639 1031 556 1031 c 0,5,6
 382 1031 382 1031 326 793 c 1,7,-1
 326 0 l 1,8,-1
 150 0 l 1,9,-1
 150 1172 l 1,10,-1
 326 1172 l 1,11,-1
 326 1022 l 1,12,13
 439 1194 439 1194 599 1194 c 0,14,15
 730 1194 730 1194 820 1097 c 128,-1,16
 910 1000 910 1000 910 770 c 2,17,-1
 910 0 l 1,0,-1
EndSplineSet
Substitution2: "'sups' Superscript lookup 2 subtable" nsuperior
Substitution2: "'sups' Superscript lookup 1 subtable" nsuperior
Substitution2: "'sups' Superscript in Latin lookup 0 subtable" nsuperior
EndChar
StartChar: o
Encoding: 111 111 82
Width: 1060
GlyphClass: 2
Flags: W
LayerCount: 2
Fore
SplineSet
925 507 m 2,0,1
 925 238 925 238 814.5 109 c 128,-1,2
 704 -20 704 -20 530 -20 c 256,3,4
 356 -20 356 -20 246 109 c 128,-1,5
 136 238 136 238 136 507 c 2,6,-1
 136 667 l 2,7,8
 136 936 136 936 246 1065 c 128,-1,9
 356 1194 356 1194 530 1194 c 256,10,11
 704 1194 704 1194 814.5 1065 c 128,-1,12
 925 936 925 936 925 667 c 2,13,-1
 925 507 l 2,0,1
749 507 m 2,14,-1
 749 667 l 2,15,16
 749 875 749 875 687.5 954.5 c 128,-1,17
 626 1034 626 1034 530 1034 c 256,18,19
 434 1034 434 1034 373 954.5 c 128,-1,20
 312 875 312 875 312 667 c 2,21,-1
 312 507 l 2,22,23
 312 299 312 299 373 219.5 c 128,-1,24
 434 140 434 140 530 140 c 256,25,26
 626 140 626 140 687.5 219.5 c 128,-1,27
 749 299 749 299 749 507 c 2,14,-1
EndSplineSet
EndChar
StartChar: p
Encoding: 112 112 83
Width: 1060
GlyphClass: 2
Flags: W
LayerCount: 2
Fore
SplineSet
940 504 m 2,0,1
 940 227 940 227 834.5 103.5 c 128,-1,2
 729 -20 729 -20 599 -20 c 0,3,4
 419 -20 419 -20 327 144 c 1,5,-1
 327 -365 l 1,6,-1
 151 -365 l 1,7,-1
 151 1172 l 1,8,-1
 327 1172 l 1,9,-1
 327 1033 l 1,10,11
 419 1194 419 1194 599 1194 c 0,12,13
 729 1194 729 1194 834.5 1071.5 c 128,-1,14
 940 949 940 949 940 667 c 2,15,-1
 940 504 l 2,0,1
759 667 m 2,16,17
 759 873 759 873 702 953.5 c 128,-1,18
 645 1034 645 1034 556 1034 c 0,19,20
 382 1034 382 1034 327 793 c 1,21,-1
 327 382 l 1,22,23
 381 140 381 140 556 140 c 0,24,25
 645 140 645 140 702 221 c 128,-1,26
 759 302 759 302 759 504 c 2,27,-1
 759 667 l 2,16,17
EndSplineSet
EndChar
StartChar: q
Encoding: 113 113 84
Width: 1060
GlyphClass: 2
Flags: W
LayerCount: 2
Fore
SplineSet
120 667 m 2,0,1
 120 949 120 949 220.5 1071.5 c 128,-1,2
 321 1194 321 1194 461 1194 c 0,3,4
 641 1194 641 1194 733 1031 c 1,5,-1
 733 1172 l 1,6,-1
 909 1172 l 1,7,-1
 909 -365 l 1,8,-1
 733 -365 l 1,9,-1
 733 144 l 1,10,11
 641 -20 641 -20 461 -20 c 0,12,13
 321 -20 321 -20 220.5 103.5 c 128,-1,14
 120 227 120 227 120 504 c 2,15,-1
 120 667 l 2,0,1
301 504 m 2,16,17
 301 302 301 302 353 221 c 128,-1,18
 405 140 405 140 504 140 c 0,19,20
 679 140 679 140 733 382 c 1,21,-1
 733 793 l 1,22,23
 678 1034 678 1034 504 1034 c 0,24,25
 405 1034 405 1034 353 953.5 c 128,-1,26
 301 873 301 873 301 667 c 2,27,-1
 301 504 l 2,16,17
EndSplineSet
EndChar
StartChar: r
Encoding: 114 114 85
Width: 1060
GlyphClass: 2
Flags: W
LayerCount: 2
Fore
SplineSet
984 974 m 1,0,-1
 831 906 l 1,1,2
 780 1034 780 1034 656 1034 c 0,3,4
 398 1034 398 1034 398 553 c 2,5,-1
 398 0 l 1,6,-1
 222 0 l 1,7,-1
 222 1172 l 1,8,-1
 398 1172 l 1,9,-1
 398 984 l 1,10,11
 502 1194 502 1194 684 1194 c 0,12,13
 895 1194 895 1194 984 974 c 1,0,-1
EndSplineSet
EndChar
StartChar: s
Encoding: 115 115 86
Width: 1060
GlyphClass: 2
Flags: W
LayerCount: 2
Fore
SplineSet
534 136 m 0,0,1
 644 136 644 136 700.5 188 c 128,-1,2
 757 240 757 240 757 315 c 0,3,4
 757 417 757 417 631 474 c 2,5,-1
 406 578 l 2,6,7
 196 677 196 677 196 861 c 0,8,9
 196 1005 196 1005 299.5 1099.5 c 128,-1,10
 403 1194 403 1194 566 1194 c 0,11,12
 801 1194 801 1194 927 977 c 1,13,-1
 783 890 l 1,14,15
 717 1037 717 1037 566 1037 c 0,16,17
 476 1037 476 1037 424 991.5 c 128,-1,18
 372 946 372 946 372 879 c 0,19,20
 372 789 372 789 489 733 c 2,21,-1
 702 634 l 2,22,23
 933 527 933 527 933 306 c 0,24,25
 933 176 933 176 825 78 c 128,-1,26
 717 -20 717 -20 532 -20 c 0,27,28
 273 -20 273 -20 127 219 c 1,29,-1
 272 307 l 1,30,31
 358 136 358 136 534 136 c 0,0,1
EndSplineSet
EndChar
StartChar: t
Encoding: 116 116 87
Width: 1060
GlyphClass: 2
Flags: W
LayerCount: 2
Fore
SplineSet
980 164 m 1,0,1
 857 -20 857 -20 651 -20 c 0,2,3
 515 -20 515 -20 422 73 c 128,-1,4
 329 166 329 166 329 347 c 2,5,-1
 329 1022 l 1,6,-1
 132 1022 l 1,7,-1
 132 1172 l 1,8,-1
 329 1172 l 1,9,-1
 329 1580 l 1,10,-1
 505 1580 l 1,11,-1
 505 1172 l 1,12,-1
 901 1172 l 1,13,-1
 901 1022 l 1,14,-1
 505 1022 l 1,15,-1
 505 335 l 2,16,17
 505 239 505 239 546.5 189.5 c 128,-1,18
 588 140 588 140 661 140 c 0,19,20
 784 140 784 140 847 261 c 1,21,-1
 980 164 l 1,0,1
EndSplineSet
EndChar
StartChar: u
Encoding: 117 117 88
Width: 1060
GlyphClass: 2
Flags: W
LayerCount: 2
Fore
SplineSet
910 0 m 1,0,-1
 734 0 l 1,1,-1
 734 152 l 1,2,3
 621 -20 621 -20 461 -20 c 0,4,5
 330 -20 330 -20 240 78.5 c 128,-1,6
 150 177 150 177 150 432 c 2,7,-1
 150 1172 l 1,8,-1
 326 1172 l 1,9,-1
 326 432 l 2,10,11
 326 261 326 261 373.5 200.5 c 128,-1,12
 421 140 421 140 504 140 c 0,13,14
 678 140 678 140 734 369 c 1,15,-1
 734 1172 l 1,16,-1
 910 1172 l 1,17,-1
 910 0 l 1,0,-1
EndSplineSet
EndChar
StartChar: v
Encoding: 118 118 89
Width: 1060
GlyphClass: 2
Flags: W
LayerCount: 2
Fore
SplineSet
631 0 m 1,0,-1
 429 0 l 1,1,-1
 226 613 l 2,2,3
 121 928 121 928 111 1088 c 2,4,-1
 106 1172 l 1,5,-1
 282 1172 l 1,6,-1
 287 1088 l 2,7,8
 296 936 296 936 387 638 c 2,9,-1
 530 166 l 1,10,-1
 673 638 l 2,11,12
 764 936 764 936 773 1088 c 2,13,-1
 778 1172 l 1,14,-1
 954 1172 l 1,15,-1
 949 1088 l 2,16,17
 939 928 939 928 834 613 c 2,18,-1
 631 0 l 1,0,-1
EndSplineSet
EndChar
StartChar: w
Encoding: 119 119 90
Width: 1060
GlyphClass: 2
Flags: W
LayerCount: 2
Fore
SplineSet
726 97 m 1,0,-1
 767 477 l 2,1,2
 793 714 793 714 793 963 c 2,3,-1
 793 1172 l 1,4,-1
 965 1172 l 1,5,-1
 965 1017 l 2,6,7
 965 804 965 804 905 477 c 2,8,-1
 818 0 l 1,9,-1
 652 0 l 1,10,-1
 530 528 l 1,11,-1
 408 0 l 1,12,-1
 242 0 l 1,13,-1
 155 477 l 2,14,15
 95 804 95 804 95 1017 c 2,16,-1
 95 1172 l 1,17,-1
 267 1172 l 1,18,-1
 267 963 l 2,19,20
 267 714 267 714 293 477 c 2,21,-1
 334 97 l 1,22,-1
 474 700 l 1,23,-1
 586 700 l 1,24,-1
 726 97 l 1,0,-1
EndSplineSet
EndChar
StartChar: glyph91
Encoding: 120 120 91
Width: 1060
GlyphClass: 2
Flags: W
LayerCount: 2
Fore
SplineSet
372 244 m 2,0,1
 289 129 289 129 281 0 c 1,2,-1
 105 0 l 1,3,-1
 107 40 l 2,4,5
 114 156 114 156 239 332 c 2,6,-1
 432 605 l 1,7,-1
 266 840 l 2,8,9
 141 1015 141 1015 134 1132 c 2,10,-1
 132 1172 l 1,11,-1
 308 1172 l 1,12,13
 316 1044 316 1044 399 928 c 2,14,-1
 530 743 l 1,15,-1
 661 928 l 2,16,17
 744 1044 744 1044 752 1172 c 1,18,-1
 928 1172 l 1,19,-1
 926 1132 l 2,20,21
 919 1015 919 1015 794 840 c 2,22,-1
 627 605 l 1,23,-1
 821 332 l 2,24,25
 946 156 946 156 953 40 c 2,26,-1
 955 0 l 1,27,-1
 779 0 l 1,28,29
 771 129 771 129 688 244 c 2,30,-1
 530 467 l 1,31,-1
 372 244 l 2,0,1
EndSplineSet
EndChar
StartChar: y
Encoding: 121 121 92
Width: 1060
GlyphClass: 2
Flags: W
LayerCount: 2
Fore
SplineSet
314 -189 m 2,0,-1
 448 160 l 1,1,-1
 205 758 l 2,2,3
 118 973 118 973 111 1082 c 2,4,-1
 106 1172 l 1,5,-1
 282 1172 l 1,6,-1
 287 1088 l 2,7,8
 291 1017 291 1017 368 808 c 2,9,-1
 530 365 l 1,10,-1
 693 802 l 2,11,12
 768 1013 768 1013 773 1088 c 2,13,-1
 778 1172 l 1,14,-1
 954 1172 l 1,15,-1
 948 1082 l 2,16,17
 943 985 943 985 855 758 c 2,18,-1
 481 -212 l 2,19,20
 462 -261 462 -261 458 -327 c 2,21,-1
 456 -365 l 1,22,-1
 280 -365 l 1,23,-1
 282 -327 l 2,24,25
 286 -261 286 -261 314 -189 c 2,0,-1
EndSplineSet
EndChar
StartChar: z
Encoding: 122 122 93
Width: 1060
GlyphClass: 2
Flags: W
LayerCount: 2
Fore
SplineSet
940 0 m 1,0,-1
 152 0 l 1,1,-1
 152 150 l 1,2,-1
 718 1022 l 1,3,-1
 161 1022 l 1,4,-1
 161 1172 l 1,5,-1
 918 1172 l 1,6,-1
 918 1022 l 1,7,-1
 352 150 l 1,8,-1
 940 150 l 1,9,-1
 940 0 l 1,0,-1
EndSplineSet
EndChar
StartChar: braceleft
Encoding: 123 123 94
Width: 1060
GlyphClass: 2
Flags: W
LayerCount: 2
Fore
SplineSet
902 -351 m 1,0,-1
 737 -351 l 2,1,2
 595 -351 595 -351 494 -250.5 c 128,-1,3
 393 -150 393 -150 393 -8 c 2,4,-1
 393 396 l 2,5,6
 393 484 393 484 332 546 c 128,-1,7
 271 608 271 608 185 608 c 2,8,-1
 157 608 l 1,9,-1
 157 787 l 1,10,-1
 184 787 l 2,11,12
 270 787 270 787 331.5 849 c 128,-1,13
 393 911 393 911 393 997 c 2,14,-1
 393 1391 l 2,15,16
 393 1533 393 1533 494 1634 c 128,-1,17
 595 1735 595 1735 737 1735 c 2,18,-1
 902 1735 l 1,19,-1
 902 1580 l 1,20,-1
 737 1580 l 2,21,22
 668 1580 668 1580 618.5 1530.5 c 128,-1,23
 569 1481 569 1481 569 1412 c 2,24,-1
 569 1002 l 2,25,26
 569 898 569 898 513 813 c 0,27,28
 454 722 454 722 356 697 c 1,29,30
 460 664 460 664 517 577 c 0,31,32
 569 496 569 496 569 394 c 2,33,-1
 569 -29 l 2,34,35
 569 -98 569 -98 618.5 -147.5 c 128,-1,36
 668 -197 668 -197 737 -197 c 2,37,-1
 902 -197 l 1,38,-1
 902 -351 l 1,0,-1
EndSplineSet
EndChar
StartChar: bar
Encoding: 124 124 95
Width: 1060
GlyphClass: 2
Flags: W
LayerCount: 2
Fore
SplineSet
618 -211 m 1,0,-1
 441 -211 l 1,1,-1
 441 1792 l 1,2,-1
 618 1792 l 1,3,-1
 618 -211 l 1,0,-1
EndSplineSet
EndChar
StartChar: braceright
Encoding: 125 125 96
Width: 1060
GlyphClass: 2
Flags: W
LayerCount: 2
Fore
SplineSet
902 608 m 1,0,-1
 873 608 l 2,1,2
 788 608 788 608 727 546 c 128,-1,3
 666 484 666 484 666 396 c 2,4,-1
 666 -8 l 2,5,6
 666 -150 666 -150 565 -250.5 c 128,-1,7
 464 -351 464 -351 322 -351 c 2,8,-1
 157 -351 l 1,9,-1
 157 -197 l 1,10,-1
 322 -197 l 2,11,12
 391 -197 391 -197 440.5 -147.5 c 128,-1,13
 490 -98 490 -98 490 -29 c 2,14,-1
 490 394 l 2,15,16
 490 496 490 496 542 577 c 0,17,18
 599 664 599 664 703 697 c 1,19,20
 605 722 605 722 546 813 c 0,21,22
 490 898 490 898 490 1002 c 2,23,-1
 490 1412 l 2,24,25
 490 1481 490 1481 440.5 1530.5 c 128,-1,26
 391 1580 391 1580 322 1580 c 2,27,-1
 157 1580 l 1,28,-1
 157 1735 l 1,29,-1
 322 1735 l 2,30,31
 464 1735 464 1735 565 1634 c 128,-1,32
 666 1533 666 1533 666 1391 c 2,33,-1
 666 997 l 2,34,35
 666 911 666 911 727.5 849 c 128,-1,36
 789 787 789 787 874 787 c 2,37,-1
 902 787 l 1,38,-1
 902 608 l 1,0,-1
EndSplineSet
EndChar
StartChar: asciitilde
Encoding: 126 126 97
Width: 1060
GlyphClass: 2
Flags: W
LayerCount: 2
Fore
SplineSet
1009 1048 m 1,0,1
 995 599 995 599 729 599 c 0,2,3
 621 599 621 599 550 682 c 2,4,-1
 413 843 l 2,5,6
 365 899 365 899 323 899 c 0,7,8
 198 899 198 899 200 597 c 1,9,-1
 50 597 l 1,10,11
 64 1046 64 1046 330 1046 c 0,12,13
 437 1046 437 1046 505 968 c 2,14,-1
 649 799 l 2,15,16
 694 746 694 746 736 746 c 0,17,18
 862 746 862 746 859 1048 c 1,19,-1
 1009 1048 l 1,0,1
EndSplineSet
EndChar
StartChar: exclamdown
Encoding: 161 161 99
Width: 1060
GlyphClass: 2
Flags: W
LayerCount: 2
Fore
SplineSet
665 1111 m 256,0,1
 665 1055 665 1055 625.5 1015.5 c 128,-1,2
 586 976 586 976 530 976 c 256,3,4
 474 976 474 976 434 1015.5 c 128,-1,5
 394 1055 394 1055 394 1111 c 256,6,7
 394 1167 394 1167 434 1207 c 128,-1,8
 474 1247 474 1247 530 1247 c 256,9,10
 586 1247 586 1247 625.5 1207 c 128,-1,11
 665 1167 665 1167 665 1111 c 256,0,1
618 -354 m 1,12,-1
 441 -354 l 1,13,-1
 441 717 l 1,14,-1
 618 717 l 1,15,-1
 618 -354 l 1,12,-1
EndSplineSet
EndChar
StartChar: cent
Encoding: 162 162 100
Width: 1060
GlyphClass: 2
Flags: W
LayerCount: 2
Fore
SplineSet
972 195 m 1,0,1
 855 12 855 12 673 -12 c 1,2,-1
 673 -211 l 1,3,-1
 496 -211 l 1,4,-1
 496 -12 l 1,5,6
 175 63 175 63 175 514 c 2,7,-1
 175 659 l 2,8,9
 175 1111 175 1111 496 1185 c 1,10,-1
 496 1392 l 1,11,-1
 673 1392 l 1,12,-1
 673 1186 l 1,13,14
 854 1160 854 1160 972 977 c 1,15,-1
 829 887 l 1,16,17
 742 1034 742 1034 597 1034 c 0,18,19
 485 1034 485 1034 418.5 959.5 c 128,-1,20
 352 885 352 885 352 659 c 2,21,-1
 352 514 l 2,22,23
 352 289 352 289 418.5 214.5 c 128,-1,24
 485 140 485 140 597 140 c 0,25,26
 742 140 742 140 829 286 c 1,27,-1
 972 195 l 1,0,1
EndSplineSet
EndChar
StartChar: sterling
Encoding: 163 163 101
Width: 1060
GlyphClass: 2
Flags: W
LayerCount: 2
Fore
SplineSet
979 0 m 1,0,-1
 79 0 l 1,1,-1
 79 157 l 1,2,3
 302 165 302 165 278 533 c 2,4,-1
 264 748 l 1,5,-1
 79 748 l 1,6,-1
 79 905 l 1,7,-1
 254 905 l 1,8,-1
 239 1127 l 2,9,10
 225 1364 225 1364 332.5 1483 c 128,-1,11
 440 1602 440 1602 598 1602 c 0,12,13
 828 1602 828 1602 965 1386 c 1,14,-1
 831 1293 l 1,15,16
 755 1435 755 1435 599 1435 c 0,17,18
 514 1435 514 1435 459.5 1371.5 c 128,-1,19
 405 1308 405 1308 416 1135 c 2,20,-1
 431 905 l 1,21,-1
 732 905 l 1,22,-1
 732 748 l 1,23,-1
 441 748 l 1,24,-1
 454 544 l 2,25,26
 474 238 474 238 318 157 c 1,27,-1
 979 157 l 1,28,-1
 979 0 l 1,0,-1
EndSplineSet
EndChar
StartChar: currency
Encoding: 164 164 102
Width: 1060
GlyphClass: 2
Flags: W
LayerCount: 2
Fore
SplineSet
166 698 m 0,0,1
 166 799 166 799 218 885 c 1,2,-1
 33 1072 l 1,3,-1
 156 1198 l 1,4,-1
 343 1009 l 1,5,6
 428 1061 428 1061 529 1061 c 256,7,8
 630 1061 630 1061 716 1009 c 1,9,-1
 904 1198 l 1,10,-1
 1027 1072 l 1,11,-1
 840 884 l 1,12,13
 892 799 892 799 892 698 c 256,14,15
 892 597 892 597 840 512 c 1,16,-1
 1027 324 l 1,17,-1
 904 198 l 1,18,-1
 716 387 l 1,19,20
 630 335 630 335 529 335 c 256,21,22
 428 335 428 335 343 386 c 1,23,-1
 156 198 l 1,24,-1
 33 324 l 1,25,-1
 218 511 l 1,26,27
 166 596 166 596 166 698 c 0,0,1
336 698 m 256,28,29
 336 606 336 606 391.5 550.5 c 128,-1,30
 447 495 447 495 529 495 c 256,31,32
 611 495 611 495 666.5 550.5 c 128,-1,33
 722 606 722 606 722 698 c 256,34,35
 722 790 722 790 666.5 845.5 c 128,-1,36
 611 901 611 901 529 901 c 256,37,38
 447 901 447 901 391.5 845.5 c 128,-1,39
 336 790 336 790 336 698 c 256,28,29
EndSplineSet
EndChar
StartChar: yen
Encoding: 165 165 103
Width: 1060
GlyphClass: 2
Flags: W
LayerCount: 2
Fore
SplineSet
618 0 m 1,0,-1
 442 0 l 1,1,-1
 442 281 l 1,2,-1
 143 281 l 1,3,-1
 143 436 l 1,4,-1
 442 436 l 1,5,-1
 442 625 l 1,6,-1
 143 625 l 1,7,-1
 143 780 l 1,8,-1
 383 780 l 1,9,-1
 272 983 l 2,10,11
 98 1300 98 1300 98 1507 c 2,12,-1
 98 1580 l 1,13,-1
 274 1580 l 1,14,-1
 274 1507 l 2,15,16
 274 1329 274 1329 406 1072 c 2,17,-1
 530 825 l 1,18,-1
 654 1072 l 2,19,20
 786 1329 786 1329 786 1507 c 2,21,-1
 786 1580 l 1,22,-1
 962 1580 l 1,23,-1
 962 1507 l 2,24,25
 962 1300 962 1300 788 983 c 2,26,-1
 676 780 l 1,27,-1
 917 780 l 1,28,-1
 917 625 l 1,29,-1
 618 625 l 1,30,-1
 618 436 l 1,31,-1
 917 436 l 1,32,-1
 917 281 l 1,33,-1
 618 281 l 1,34,-1
 618 0 l 1,0,-1
EndSplineSet
EndChar
StartChar: brokenbar
Encoding: 166 166 104
Width: 1060
GlyphClass: 2
Flags: W
LayerCount: 2
Fore
SplineSet
618 922 m 1,0,-1
 441 922 l 1,1,-1
 441 1792 l 1,2,-1
 618 1792 l 1,3,-1
 618 922 l 1,0,-1
618 -211 m 1,4,-1
 441 -211 l 1,5,-1
 441 658 l 1,6,-1
 618 658 l 1,7,-1
 618 -211 l 1,4,-1
EndSplineSet
EndChar
StartChar: section
Encoding: 167 167 105
Width: 1060
GlyphClass: 2
Flags: W
LayerCount: 2
Fore
SplineSet
134 -165 m 1,0,-1
 264 -66 l 1,1,2
 347 -215 347 -215 509 -215 c 0,3,4
 602 -215 602 -215 664 -166.5 c 128,-1,5
 726 -118 726 -118 726 -26 c 0,6,7
 726 55 726 55 636 139 c 2,8,-1
 334 423 l 2,9,10
 192 557 192 557 192 759 c 0,11,12
 192 921 192 921 299 1024 c 1,13,14
 237 1128 237 1128 237 1262 c 0,15,16
 237 1393 237 1393 331.5 1497.5 c 128,-1,17
 426 1602 426 1602 608 1602 c 0,18,19
 825 1602 825 1602 952 1406 c 1,20,-1
 815 1314 l 1,21,22
 740 1442 740 1442 609 1442 c 0,23,24
 517 1442 517 1442 465.5 1394 c 128,-1,25
 414 1346 414 1346 414 1263 c 0,26,27
 414 1145 414 1145 507 1059 c 2,28,-1
 799 792 l 2,29,30
 965 635 965 635 965 457 c 0,31,32
 965 292 965 292 841 173 c 1,33,34
 903 90 903 90 903 -26 c 0,35,36
 903 -157 903 -157 801 -266 c 128,-1,37
 699 -375 699 -375 510 -375 c 0,38,39
 261 -375 261 -375 134 -165 c 1,0,-1
732 303 m 1,40,41
 788 361 788 361 788 456 c 0,42,43
 788 548 788 548 672 657 c 2,44,-1
 410 905 l 1,45,46
 369 853 369 853 369 760 c 0,47,48
 369 642 369 642 462 556 c 2,49,-1
 732 303 l 1,40,41
EndSplineSet
EndChar
StartChar: dieresis
Encoding: 168 168 106
Width: 1060
GlyphClass: 2
Flags: W
LayerCount: 2
Fore
SplineSet
838 1466 m 0,0,1
 838 1419 838 1419 804.5 1384.5 c 128,-1,2
 771 1350 771 1350 722 1350 c 256,3,4
 673 1350 673 1350 640.5 1384.5 c 128,-1,5
 608 1419 608 1419 608 1466 c 0,6,7
 608 1512 608 1512 640.5 1546 c 128,-1,8
 673 1580 673 1580 722 1580 c 256,9,10
 771 1580 771 1580 804.5 1546 c 128,-1,11
 838 1512 838 1512 838 1466 c 0,0,1
451 1466 m 0,12,13
 451 1419 451 1419 418 1384.5 c 128,-1,14
 385 1350 385 1350 336 1350 c 256,15,16
 287 1350 287 1350 254 1384.5 c 128,-1,17
 221 1419 221 1419 221 1466 c 0,18,19
 221 1512 221 1512 254 1546 c 128,-1,20
 287 1580 287 1580 336 1580 c 256,21,22
 385 1580 385 1580 418 1546 c 128,-1,23
 451 1512 451 1512 451 1466 c 0,12,13
EndSplineSet
EndChar
StartChar: copyright
Encoding: 169 169 107
Width: 1060
GlyphClass: 3
Flags: W
LayerCount: 2
Fore
SplineSet
674 926 m 1,0,-1
 517 926 l 1,1,2
 517 1020 517 1020 477.5 1060 c 128,-1,3
 438 1100 438 1100 381 1100 c 0,4,5
 323 1100 323 1100 283 1060 c 128,-1,6
 243 1020 243 1020 243 911 c 2,7,-1
 243 662 l 2,8,9
 243 553 243 553 283 513 c 128,-1,10
 323 473 323 473 381 473 c 0,11,12
 438 473 438 473 477.5 513 c 128,-1,13
 517 553 517 553 517 642 c 1,14,-1
 674 642 l 1,15,16
 674 500 674 500 593 418.5 c 128,-1,17
 512 337 512 337 381 337 c 0,18,19
 259 337 259 337 172.5 423.5 c 128,-1,20
 86 510 86 510 86 662 c 2,21,-1
 86 911 l 2,22,23
 86 1063 86 1063 172.5 1149.5 c 128,-1,24
 259 1236 259 1236 381 1236 c 0,25,26
 512 1236 512 1236 593 1154.5 c 128,-1,27
 674 1073 674 1073 674 926 c 1,0,-1
86 271 m 1,28,29
 239 114 239 114 471 114 c 0,30,31
 640 114 640 114 745.5 219.5 c 128,-1,32
 851 325 851 325 851 533 c 2,33,-1
 851 1048 l 2,34,35
 851 1257 851 1257 745.5 1362.5 c 128,-1,36
 640 1468 640 1468 471 1468 c 0,37,38
 239 1468 239 1468 86 1311 c 1,39,-1
 86 1477 l 1,40,41
 233 1602 233 1602 474 1602 c 0,42,43
 707 1602 707 1602 857.5 1451.5 c 128,-1,44
 1008 1301 1008 1301 1008 1048 c 2,45,-1
 1008 533 l 2,46,47
 1008 280 1008 280 857.5 130 c 128,-1,48
 707 -20 707 -20 474 -20 c 0,49,50
 233 -20 233 -20 86 105 c 1,51,-1
 86 271 l 1,28,29
EndSplineSet
Ligature2: "'dlig' Discretionary Ligatures in Latin lookup 12 subtable" parenleft c parenright
Ligature2: "'dlig' Discretionary Ligatures in Latin lookup 12 subtable" parenleft C parenright
EndChar
StartChar: ordfeminine
Encoding: 170 170 108
Width: 1060
GlyphClass: 2
Flags: W
LayerCount: 2
Fore
SplineSet
828 674 m 1,0,-1
 661 674 l 1,1,-1
 661 753 l 1,2,3
 589 658 589 658 476 658 c 0,4,5
 365 658 365 658 298.5 734.5 c 128,-1,6
 232 811 232 811 232 941 c 0,7,8
 232 1076 232 1076 315 1155 c 128,-1,9
 398 1234 398 1234 589 1234 c 2,10,-1
 661 1234 l 1,11,-1
 661 1293 l 2,12,13
 661 1460 661 1460 529 1460 c 0,14,15
 422 1460 422 1460 370 1342 c 1,16,-1
 240 1430 l 1,17,18
 344 1602 344 1602 529 1602 c 0,19,20
 665 1602 665 1602 746.5 1528.5 c 128,-1,21
 828 1455 828 1455 828 1292 c 2,22,-1
 828 674 l 1,0,-1
661 876 m 1,23,-1
 661 1102 l 1,24,-1
 589 1102 l 2,25,26
 479 1102 479 1102 434 1058 c 128,-1,27
 389 1014 389 1014 389 941 c 0,28,29
 389 800 389 800 508 800 c 0,30,31
 605 800 605 800 661 876 c 1,23,-1
243 417 m 1,32,-1
 833 417 l 1,33,-1
 833 267 l 1,34,-1
 243 267 l 1,35,-1
 243 417 l 1,32,-1
EndSplineSet
EndChar
StartChar: guillemotleft
Encoding: 171 171 109
Width: 1060
GlyphClass: 2
Flags: W
LayerCount: 2
Fore
SplineSet
989 124 m 1,0,-1
 810 124 l 1,1,-1
 478 602 l 1,2,-1
 810 1080 l 1,3,-1
 989 1080 l 1,4,-1
 666 602 l 1,5,-1
 989 124 l 1,0,-1
582 124 m 1,6,-1
 403 124 l 1,7,-1
 71 602 l 1,8,-1
 403 1080 l 1,9,-1
 582 1080 l 1,10,-1
 259 602 l 1,11,-1
 582 124 l 1,6,-1
EndSplineSet
EndChar
StartChar: logicalnot
Encoding: 172 172 110
Width: 1060
GlyphClass: 2
Flags: W
LayerCount: 2
Fore
SplineSet
960 368 m 1,0,-1
 784 368 l 1,1,-1
 784 771 l 1,2,-1
 59 771 l 1,3,-1
 59 925 l 1,4,-1
 960 925 l 1,5,-1
 960 368 l 1,0,-1
EndSplineSet
EndChar
StartChar: registered
Encoding: 174 174 112
Width: 1060
GlyphClass: 2
Flags: W
LayerCount: 2
Fore
SplineSet
674 920 m 0,0,1
 674 752 674 752 526 676 c 1,2,-1
 666 358 l 1,3,-1
 496 358 l 1,4,-1
 381 647 l 1,5,-1
 243 647 l 1,6,-1
 243 358 l 1,7,-1
 86 358 l 1,8,-1
 86 1215 l 1,9,-1
 341 1215 l 2,10,11
 522 1215 522 1215 598 1133.5 c 128,-1,12
 674 1052 674 1052 674 920 c 0,0,1
517 920 m 0,13,14
 517 999 517 999 477.5 1039 c 128,-1,15
 438 1079 438 1079 361 1079 c 2,16,-1
 243 1079 l 1,17,-1
 243 772 l 1,18,-1
 361 772 l 2,19,20
 438 772 438 772 477.5 812 c 128,-1,21
 517 852 517 852 517 920 c 0,13,14
86 271 m 1,22,23
 239 114 239 114 471 114 c 0,24,25
 640 114 640 114 745.5 219.5 c 128,-1,26
 851 325 851 325 851 533 c 2,27,-1
 851 1048 l 2,28,29
 851 1257 851 1257 745.5 1362.5 c 128,-1,30
 640 1468 640 1468 471 1468 c 0,31,32
 239 1468 239 1468 86 1311 c 1,33,-1
 86 1477 l 1,34,35
 233 1602 233 1602 474 1602 c 0,36,37
 707 1602 707 1602 857.5 1451.5 c 128,-1,38
 1008 1301 1008 1301 1008 1048 c 2,39,-1
 1008 533 l 2,40,41
 1008 280 1008 280 857.5 130 c 128,-1,42
 707 -20 707 -20 474 -20 c 0,43,44
 233 -20 233 -20 86 105 c 1,45,-1
 86 271 l 1,22,23
EndSplineSet
EndChar
StartChar: macron
Encoding: 175 175 113
Width: 1060
GlyphClass: 2
Flags: W
LayerCount: 2
Fore
SplineSet
815 1446 m 1,0,-1
 244 1446 l 1,1,-1
 244 1580 l 1,2,-1
 815 1580 l 1,3,-1
 815 1446 l 1,0,-1
EndSplineSet
EndChar
StartChar: degree
Encoding: 176 176 114
Width: 1060
GlyphClass: 2
Flags: W
LayerCount: 2
Fore
SplineSet
862 1270 m 256,0,1
 862 1132 862 1132 764.5 1034.5 c 128,-1,2
 667 937 667 937 529 937 c 256,3,4
 391 937 391 937 294 1034.5 c 128,-1,5
 197 1132 197 1132 197 1270 c 256,6,7
 197 1408 197 1408 294 1505 c 128,-1,8
 391 1602 391 1602 529 1602 c 256,9,10
 667 1602 667 1602 764.5 1505 c 128,-1,11
 862 1408 862 1408 862 1270 c 256,0,1
696 1270 m 256,12,13
 696 1335 696 1335 650.5 1385.5 c 128,-1,14
 605 1436 605 1436 529 1436 c 0,15,16
 454 1436 454 1436 408.5 1385.5 c 128,-1,17
 363 1335 363 1335 363 1270 c 0,18,19
 363 1204 363 1204 408.5 1153.5 c 128,-1,20
 454 1103 454 1103 529 1103 c 256,21,22
 604 1103 604 1103 650 1154 c 128,-1,23
 696 1205 696 1205 696 1270 c 256,12,13
EndSplineSet
EndChar
StartChar: plusminus
Encoding: 177 177 115
Width: 1060
GlyphClass: 2
Flags: W
LayerCount: 2
Fore
SplineSet
1000 929 m 1,0,-1
 618 929 l 1,1,-1
 618 599 l 1,2,-1
 442 599 l 1,3,-1
 442 929 l 1,4,-1
 59 929 l 1,5,-1
 59 1089 l 1,6,-1
 442 1089 l 1,7,-1
 442 1420 l 1,8,-1
 618 1420 l 1,9,-1
 618 1089 l 1,10,-1
 1000 1089 l 1,11,-1
 1000 929 l 1,0,-1
1000 240 m 1,12,-1
 59 240 l 1,13,-1
 59 400 l 1,14,-1
 1000 400 l 1,15,-1
 1000 240 l 1,12,-1
EndSplineSet
EndChar
StartChar: twosuperior
Encoding: 178 178 116
Width: 1060
GlyphClass: 2
Flags: W
LayerCount: 2
Fore
SplineSet
795 673 m 1,0,-1
 281 673 l 1,1,-1
 281 726 l 2,2,3
 281 885 281 885 438 1061 c 2,4,-1
 582 1221 l 2,5,6
 646 1290 646 1290 646 1371 c 0,7,8
 646 1416 646 1416 617 1443.5 c 128,-1,9
 588 1471 588 1471 535 1471 c 0,10,11
 431 1471 431 1471 389 1358 c 1,12,-1
 266 1431 l 1,13,14
 360 1602 360 1602 535 1602 c 0,15,16
 654 1602 654 1602 724.5 1535.5 c 128,-1,17
 795 1469 795 1469 795 1366 c 0,18,19
 795 1249 795 1249 697 1140 c 2,20,-1
 553 981 l 2,21,22
 446 862 446 862 438 803 c 1,23,-1
 795 803 l 1,24,-1
 795 673 l 1,0,-1
EndSplineSet
Substitution2: "Single Substitution lookup 16 subtable" .notdef
EndChar
StartChar: threesuperior
Encoding: 179 179 117
Width: 1060
GlyphClass: 2
Flags: W
LayerCount: 2
Fore
SplineSet
815 941 m 0,0,1
 815 826 815 826 735.5 743.5 c 128,-1,2
 656 661 656 661 536 661 c 0,3,4
 355 661 355 661 256 840 c 1,5,-1
 367 917 l 1,6,7
 421 791 421 791 535 791 c 0,8,9
 594 791 594 791 630 833.5 c 128,-1,10
 666 876 666 876 666 951 c 0,11,12
 666 1027 666 1027 625.5 1060.5 c 128,-1,13
 585 1094 585 1094 535 1094 c 2,14,-1
 462 1094 l 1,15,-1
 462 1225 l 1,16,-1
 535 1225 l 2,17,18
 584 1225 584 1225 615 1254 c 128,-1,19
 646 1283 646 1283 646 1350 c 0,20,21
 646 1408 646 1408 615 1439 c 128,-1,22
 584 1470 584 1470 535 1470 c 0,23,24
 420 1470 420 1470 372 1353 c 1,25,-1
 261 1429 l 1,26,27
 365 1602 365 1602 536 1602 c 0,28,29
 646 1602 646 1602 720.5 1532 c 128,-1,30
 795 1462 795 1462 795 1354 c 0,31,32
 795 1212 795 1212 676 1159 c 1,33,34
 815 1105 815 1105 815 941 c 0,0,1
EndSplineSet
Substitution2: "Single Substitution lookup 16 subtable" .notdef
EndChar
StartChar: acute
Encoding: 180 180 118
Width: 1060
GlyphClass: 2
Flags: W
LayerCount: 2
Fore
SplineSet
729 1580 m 1,0,-1
 494 1335 l 1,1,-1
 330 1335 l 1,2,-1
 509 1580 l 1,3,-1
 729 1580 l 1,0,-1
EndSplineSet
EndChar
StartChar: micro
Encoding: 181 181 119
Width: 1060
GlyphClass: 2
Flags: W
LayerCount: 2
Fore
SplineSet
915 0 m 1,0,-1
 739 0 l 1,1,-1
 739 132 l 1,2,3
 626 -20 626 -20 486 -20 c 0,4,5
 372 -20 372 -20 321 56 c 1,6,-1
 321 -365 l 1,7,-1
 145 -365 l 1,8,-1
 145 1172 l 1,9,-1
 321 1172 l 1,10,-1
 321 348 l 2,11,12
 321 258 321 258 368.5 197.5 c 128,-1,13
 416 137 416 137 499 137 c 0,14,15
 643 137 643 137 739 270 c 1,16,-1
 739 1172 l 1,17,-1
 915 1172 l 1,18,-1
 915 0 l 1,0,-1
EndSplineSet
EndChar
StartChar: paragraph
Encoding: 182 182 120
Width: 1060
GlyphClass: 2
Flags: W
LayerCount: 2
Fore
SplineSet
902 0 m 1,0,-1
 779 0 l 1,1,-1
 779 1580 l 1,2,-1
 902 1580 l 1,3,-1
 902 0 l 1,0,-1
645 0 m 1,4,-1
 522 0 l 1,5,-1
 522 727 l 1,6,-1
 483 727 l 2,7,8
 324 727 324 727 211 841.5 c 128,-1,9
 98 956 98 956 98 1117 c 2,10,-1
 98 1190 l 2,11,12
 98 1351 98 1351 211 1465.5 c 128,-1,13
 324 1580 324 1580 483 1580 c 2,14,-1
 645 1580 l 1,15,-1
 645 0 l 1,4,-1
EndSplineSet
EndChar
StartChar: periodcentered
Encoding: 183 183 121
Width: 1060
GlyphClass: 2
Flags: W
LayerCount: 2
Fore
SplineSet
734 851 m 0,0,1
 734 770 734 770 675.5 709 c 128,-1,2
 617 648 617 648 529 648 c 0,3,4
 440 648 440 648 383.5 709 c 128,-1,5
 327 770 327 770 327 851 c 0,6,7
 327 931 327 931 383.5 993 c 128,-1,8
 440 1055 440 1055 529 1055 c 0,9,10
 617 1055 617 1055 675.5 992.5 c 128,-1,11
 734 930 734 930 734 851 c 0,0,1
EndSplineSet
EndChar
StartChar: cedilla
Encoding: 184 184 122
Width: 1060
GlyphClass: 2
Flags: W
LayerCount: 2
Fore
SplineSet
363 -254 m 1,0,1
 537 -269 537 -269 537 -197 c 0,2,3
 537 -137 537 -137 436 -144 c 1,4,-1
 483 -50 l 1,5,6
 697 -58 697 -58 697 -195 c 0,7,8
 697 -279 697 -279 629.5 -327 c 128,-1,9
 562 -375 562 -375 363 -375 c 1,10,-1
 363 -254 l 1,0,1
EndSplineSet
EndChar
StartChar: onesuperior
Encoding: 185 185 123
Width: 1060
GlyphClass: 2
Flags: W
LayerCount: 2
Fore
SplineSet
673 664 m 1,0,-1
 524 664 l 1,1,-1
 524 1402 l 1,2,-1
 322 1239 l 1,3,-1
 249 1350 l 1,4,-1
 536 1580 l 1,5,-1
 673 1580 l 1,6,-1
 673 664 l 1,0,-1
EndSplineSet
Substitution2: "Single Substitution lookup 16 subtable" .notdef
EndChar
StartChar: ordmasculine
Encoding: 186 186 124
Width: 1060
GlyphClass: 2
Flags: W
LayerCount: 2
Fore
SplineSet
824 985 m 2,0,1
 824 832 824 832 740.5 745 c 128,-1,2
 657 658 657 658 527 658 c 256,3,4
 397 658 397 658 313 745 c 128,-1,5
 229 832 229 832 229 985 c 2,6,-1
 229 1275 l 2,7,8
 229 1428 229 1428 313 1515 c 128,-1,9
 397 1602 397 1602 527 1602 c 256,10,11
 657 1602 657 1602 740.5 1515 c 128,-1,12
 824 1428 824 1428 824 1275 c 2,13,-1
 824 985 l 2,0,1
667 964 m 2,14,-1
 667 1296 l 2,15,16
 667 1376 667 1376 626 1418 c 128,-1,17
 585 1460 585 1460 527 1460 c 256,18,19
 469 1460 469 1460 427.5 1417.5 c 128,-1,20
 386 1375 386 1375 386 1296 c 2,21,-1
 386 964 l 2,22,23
 386 884 386 884 427.5 842 c 128,-1,24
 469 800 469 800 527 800 c 256,25,26
 585 800 585 800 626 841.5 c 128,-1,27
 667 883 667 883 667 964 c 2,14,-1
235 417 m 1,28,-1
 830 417 l 1,29,-1
 830 267 l 1,30,-1
 235 267 l 1,31,-1
 235 417 l 1,28,-1
EndSplineSet
EndChar
StartChar: guillemotright
Encoding: 187 187 125
Width: 1060
GlyphClass: 2
Flags: W
LayerCount: 2
Fore
SplineSet
989 602 m 1,0,-1
 657 124 l 1,1,-1
 478 124 l 1,2,-1
 801 602 l 1,3,-1
 478 1080 l 1,4,-1
 657 1080 l 1,5,-1
 989 602 l 1,0,-1
582 602 m 1,6,-1
 250 124 l 1,7,-1
 71 124 l 1,8,-1
 394 602 l 1,9,-1
 71 1080 l 1,10,-1
 250 1080 l 1,11,-1
 582 602 l 1,6,-1
EndSplineSet
EndChar
StartChar: onequarter
Encoding: 188 188 126
Width: 1060
GlyphClass: 3
Flags: W
LayerCount: 2
Fore
SplineSet
944 729 m 1,0,-1
 114 729 l 1,1,-1
 114 858 l 1,2,-1
 944 858 l 1,3,-1
 944 729 l 1,0,-1
798 -105 m 1,4,-1
 700 -105 l 1,5,-1
 700 -311 l 1,6,-1
 551 -311 l 1,7,-1
 551 -105 l 1,8,-1
 198 -105 l 1,9,-1
 198 55 l 1,10,-1
 542 561 l 1,11,-1
 700 561 l 1,12,-1
 700 22 l 1,13,-1
 798 22 l 1,14,-1
 798 -105 l 1,4,-1
551 22 m 1,15,-1
 551 368 l 1,16,-1
 316 22 l 1,17,-1
 551 22 l 1,15,-1
638 1000 m 1,18,-1
 489 1000 l 1,19,-1
 489 1694 l 1,20,-1
 308 1547 l 1,21,-1
 235 1658 l 1,22,-1
 501 1872 l 1,23,-1
 638 1872 l 1,24,-1
 638 1000 l 1,18,-1
EndSplineSet
Ligature2: "'frac' Diagonal Fractions in Latin lookup 3 subtable" one slash four
Ligature2: "'frac' Diagonal Fractions in Latin lookup 3 subtable" one fraction four
EndChar
StartChar: onehalf
Encoding: 189 189 127
Width: 1060
GlyphClass: 3
Flags: W
LayerCount: 2
Fore
SplineSet
944 729 m 1,0,-1
 114 729 l 1,1,-1
 114 858 l 1,2,-1
 944 858 l 1,3,-1
 944 729 l 1,0,-1
638 1000 m 1,4,-1
 489 1000 l 1,5,-1
 489 1694 l 1,6,-1
 308 1547 l 1,7,-1
 235 1658 l 1,8,-1
 501 1872 l 1,9,-1
 638 1872 l 1,10,-1
 638 1000 l 1,4,-1
795 -300 m 1,11,-1
 281 -300 l 1,12,-1
 281 -247 l 2,13,14
 281 -88 281 -88 438 68 c 2,15,-1
 582 210 l 2,16,17
 646 273 646 273 646 351 c 0,18,19
 646 396 646 396 617 423.5 c 128,-1,20
 588 451 588 451 535 451 c 0,21,22
 431 451 431 451 389 338 c 1,23,-1
 266 411 l 1,24,25
 360 582 360 582 535 582 c 0,26,27
 654 582 654 582 724.5 515.5 c 128,-1,28
 795 449 795 449 795 346 c 0,29,30
 795 224 795 224 697 129 c 2,31,-1
 553 -12 l 2,32,33
 446 -118 446 -118 438 -170 c 1,34,-1
 795 -170 l 1,35,-1
 795 -300 l 1,11,-1
EndSplineSet
Ligature2: "'frac' Diagonal Fractions in Latin lookup 3 subtable" one slash two
Ligature2: "'frac' Diagonal Fractions in Latin lookup 3 subtable" one fraction two
EndChar
StartChar: threequarters
Encoding: 190 190 128
Width: 1060
GlyphClass: 3
Flags: W
LayerCount: 2
Fore
SplineSet
944 729 m 1,0,-1
 114 729 l 1,1,-1
 114 858 l 1,2,-1
 944 858 l 1,3,-1
 944 729 l 1,0,-1
798 -105 m 1,4,-1
 700 -105 l 1,5,-1
 700 -311 l 1,6,-1
 551 -311 l 1,7,-1
 551 -105 l 1,8,-1
 198 -105 l 1,9,-1
 198 55 l 1,10,-1
 542 561 l 1,11,-1
 700 561 l 1,12,-1
 700 22 l 1,13,-1
 798 22 l 1,14,-1
 798 -105 l 1,4,-1
551 22 m 1,15,-1
 551 368 l 1,16,-1
 316 22 l 1,17,-1
 551 22 l 1,15,-1
795 1253 m 0,18,19
 795 1148 795 1148 715.5 1065.5 c 128,-1,20
 636 983 636 983 517 983 c 0,21,22
 345 983 345 983 246 1162 c 1,23,-1
 357 1239 l 1,24,25
 411 1113 411 1113 516 1113 c 0,26,27
 574 1113 574 1113 610 1150.5 c 128,-1,28
 646 1188 646 1188 646 1263 c 0,29,30
 646 1322 646 1322 610.5 1355.5 c 128,-1,31
 575 1389 575 1389 516 1389 c 2,32,-1
 452 1389 l 1,33,-1
 452 1520 l 1,34,-1
 516 1520 l 2,35,36
 564 1520 564 1520 595 1549 c 128,-1,37
 626 1578 626 1578 626 1635 c 0,38,39
 626 1683 626 1683 595 1714 c 128,-1,40
 564 1745 564 1745 516 1745 c 0,41,42
 410 1745 410 1745 362 1628 c 1,43,-1
 251 1704 l 1,44,45
 355 1877 355 1877 517 1877 c 0,46,47
 626 1877 626 1877 700.5 1807 c 128,-1,48
 775 1737 775 1737 775 1639 c 0,49,50
 775 1517 775 1517 656 1454 c 1,51,52
 795 1390 795 1390 795 1253 c 0,18,19
EndSplineSet
Ligature2: "'frac' Diagonal Fractions in Latin lookup 3 subtable" three slash four
Ligature2: "'frac' Diagonal Fractions in Latin lookup 3 subtable" three fraction four
EndChar
StartChar: questiondown
Encoding: 191 191 129
Width: 1060
GlyphClass: 2
Flags: W
LayerCount: 2
Fore
SplineSet
658 1111 m 256,0,1
 658 1055 658 1055 619 1015.5 c 128,-1,2
 580 976 580 976 524 976 c 0,3,4
 467 976 467 976 427.5 1015.5 c 128,-1,5
 388 1055 388 1055 388 1111 c 256,6,7
 388 1167 388 1167 427.5 1207 c 128,-1,8
 467 1247 467 1247 524 1247 c 0,9,10
 580 1247 580 1247 619 1207 c 128,-1,11
 658 1167 658 1167 658 1111 c 256,0,1
921 -114 m 1,12,13
 775 -375 775 -375 524 -375 c 0,14,15
 365 -375 365 -375 252 -260.5 c 128,-1,16
 139 -146 139 -146 139 14 c 0,17,18
 139 132 139 132 205 231 c 2,19,-1
 421 546 l 2,20,21
 453 594 453 594 453 659 c 2,22,-1
 453 717 l 1,23,-1
 630 717 l 1,24,-1
 630 658 l 2,25,26
 630 542 630 542 560 437 c 2,27,-1
 348 126 l 2,28,29
 316 78 316 78 316 13 c 0,30,31
 316 -84 316 -84 377.5 -146 c 128,-1,32
 439 -208 439 -208 525 -208 c 0,33,34
 692 -208 692 -208 787 -23 c 1,35,-1
 921 -114 l 1,12,13
EndSplineSet
EndChar
StartChar: AE
Encoding: 198 198 136
Width: 1060
GlyphClass: 2
Flags: W
LayerCount: 2
Fore
SplineSet
990 0 m 1,0,-1
 483 0 l 1,1,-1
 483 547 l 1,2,-1
 245 547 l 1,3,-1
 245 0 l 1,4,-1
 69 0 l 1,5,-1
 69 569 l 1,6,-1
 397 1580 l 1,7,-1
 990 1580 l 1,8,-1
 990 1424 l 1,9,-1
 659 1424 l 1,10,-1
 659 905 l 1,11,-1
 949 905 l 1,12,-1
 949 748 l 1,13,-1
 659 748 l 1,14,-1
 659 157 l 1,15,-1
 990 157 l 1,16,-1
 990 0 l 1,0,-1
483 704 m 1,17,-1
 483 1311 l 1,18,-1
 284 704 l 1,19,-1
 483 704 l 1,17,-1
EndSplineSet
EndChar
StartChar: Eth
Encoding: 208 208 146
Width: 1060
GlyphClass: 2
Flags: W
LayerCount: 2
Fore
SplineSet
939 648 m 2,0,1
 939 339 939 339 796.5 169.5 c 128,-1,2
 654 0 654 0 412 0 c 2,3,-1
 181 0 l 1,4,-1
 181 771 l 1,5,-1
 67 771 l 1,6,-1
 67 905 l 1,7,-1
 181 905 l 1,8,-1
 181 1580 l 1,9,-1
 412 1580 l 2,10,11
 654 1580 654 1580 796.5 1420.5 c 128,-1,12
 939 1261 939 1261 939 953 c 2,13,-1
 939 648 l 2,0,1
544 771 m 1,14,-1
 356 771 l 1,15,-1
 356 157 l 1,16,-1
 414 157 l 2,17,18
 571 157 571 157 664 279 c 128,-1,19
 757 401 757 401 757 648 c 2,20,-1
 757 953 l 2,21,22
 757 1200 757 1200 664 1312 c 128,-1,23
 571 1424 571 1424 414 1424 c 2,24,-1
 356 1424 l 1,25,-1
 356 905 l 1,26,-1
 544 905 l 1,27,-1
 544 771 l 1,14,-1
EndSplineSet
EndChar
StartChar: multiply
Encoding: 215 215 153
Width: 1060
GlyphClass: 2
Flags: W
LayerCount: 2
Fore
SplineSet
831 356 m 1,0,-1
 531 658 l 1,1,-1
 231 356 l 1,2,-1
 106 482 l 1,3,-1
 407 781 l 1,4,-1
 106 1081 l 1,5,-1
 231 1207 l 1,6,-1
 531 905 l 1,7,-1
 831 1207 l 1,8,-1
 954 1081 l 1,9,-1
 657 781 l 1,10,-1
 954 482 l 1,11,-1
 831 356 l 1,0,-1
EndSplineSet
EndChar
StartChar: Oslash
Encoding: 216 216 154
Width: 1060
GlyphClass: 2
Flags: W
LayerCount: 2
Fore
SplineSet
782 1731 m 1,0,-1
 742 1539 l 1,1,2
 918 1427 918 1427 918 1053 c 2,3,-1
 918 548 l 2,4,5
 918 239 918 239 810 109.5 c 128,-1,6
 702 -20 702 -20 530 -20 c 0,7,8
 471 -20 471 -20 419 -3 c 1,9,-1
 383 -180 l 1,10,-1
 274 -156 l 1,11,-1
 317 51 l 1,12,13
 142 170 142 170 142 548 c 2,14,-1
 142 1053 l 2,15,16
 142 1352 142 1352 250 1477 c 128,-1,17
 358 1602 358 1602 530 1602 c 0,18,19
 587 1602 587 1602 639 1587 c 1,20,-1
 674 1755 l 1,21,-1
 782 1731 l 1,0,-1
741 548 m 2,22,-1
 741 1053 l 2,23,24
 741 1260 741 1260 701 1339 c 1,25,-1
 452 153 l 1,26,27
 488 137 488 137 531 137 c 0,28,29
 628 137 628 137 684.5 219 c 128,-1,30
 741 301 741 301 741 548 c 2,22,-1
529 1445 m 0,31,32
 430 1445 430 1445 374.5 1368 c 128,-1,33
 319 1291 319 1291 319 1053 c 2,34,-1
 319 548 l 2,35,36
 319 333 319 333 358 247 c 1,37,-1
 606 1431 l 1,38,39
 570 1445 570 1445 529 1445 c 0,31,32
EndSplineSet
EndChar
StartChar: Thorn
Encoding: 222 222 160
Width: 1060
GlyphClass: 2
Flags: W
LayerCount: 2
Fore
SplineSet
915 772 m 2,0,1
 915 590 915 590 802 475.5 c 128,-1,2
 689 361 689 361 500 361 c 2,3,-1
 321 361 l 1,4,-1
 321 0 l 1,5,-1
 145 0 l 1,6,-1
 145 1580 l 1,7,-1
 321 1580 l 1,8,-1
 321 1215 l 1,9,-1
 500 1215 l 2,10,11
 689 1215 689 1215 802 1100.5 c 128,-1,12
 915 986 915 986 915 805 c 2,13,-1
 915 772 l 2,0,1
738 749 m 2,14,-1
 738 827 l 2,15,16
 738 934 738 934 676.5 996 c 128,-1,17
 615 1058 615 1058 499 1058 c 2,18,-1
 321 1058 l 1,19,-1
 321 518 l 1,20,-1
 499 518 l 2,21,22
 615 518 615 518 676.5 580 c 128,-1,23
 738 642 738 642 738 749 c 2,14,-1
EndSplineSet
EndChar
StartChar: germandbls
Encoding: 223 223 161
Width: 1060
GlyphClass: 2
Flags: W
LayerCount: 2
Fore
SplineSet
461 -5 m 1,0,-1
 461 152 l 1,1,-1
 539 152 l 2,2,3
 665 152 665 152 721.5 201.5 c 128,-1,4
 778 251 778 251 778 338 c 0,5,6
 778 444 778 444 621.5 590 c 128,-1,7
 465 736 465 736 465 856 c 0,8,9
 465 960 465 960 576.5 1063.5 c 128,-1,10
 688 1167 688 1167 688 1253 c 0,11,12
 688 1330 688 1330 636.5 1382 c 128,-1,13
 585 1434 585 1434 509 1434 c 0,14,15
 423 1434 423 1434 372.5 1377.5 c 128,-1,16
 322 1321 322 1321 322 1193 c 2,17,-1
 322 0 l 1,18,-1
 145 0 l 1,19,-1
 145 1190 l 2,20,21
 145 1371 145 1371 248 1485.5 c 128,-1,22
 351 1600 351 1600 510 1600 c 256,23,24
 669 1600 669 1600 767 1495.5 c 128,-1,25
 865 1391 865 1391 865 1253 c 0,26,27
 865 1119 865 1119 763 1024 c 128,-1,28
 661 929 661 929 661 856 c 0,29,30
 660 779 660 779 807.5 642 c 128,-1,31
 955 505 955 505 955 338 c 0,32,33
 955 189 955 189 852 92 c 128,-1,34
 749 -5 749 -5 540 -5 c 2,35,-1
 461 -5 l 1,0,-1
EndSplineSet
EndChar
StartChar: ae
Encoding: 230 230 168
Width: 1060
GlyphClass: 2
Flags: W
LayerCount: 2
Fore
SplineSet
1020 568 m 1,0,-1
 614 568 l 1,1,-1
 614 375 l 2,2,3
 614 110 614 110 749 110 c 0,4,5
 833 110 833 110 888 242 c 1,6,-1
 1008 174 l 1,7,8
 925 -20 925 -20 749 -20 c 0,9,10
 605 -20 605 -20 534 116 c 1,11,12
 462 -20 462 -20 301 -20 c 0,13,14
 182 -20 182 -20 110.5 75.5 c 128,-1,15
 39 171 39 171 39 342 c 0,16,17
 39 515 39 515 125.5 602 c 128,-1,18
 212 689 212 689 382 689 c 2,19,-1
 446 689 l 1,20,-1
 446 878 l 2,21,22
 446 1063 446 1063 321 1063 c 0,23,24
 227 1063 227 1063 182 942 c 1,25,-1
 52 999 l 1,26,27
 135 1194 135 1194 321 1194 c 0,28,29
 472 1194 472 1194 534 1063 c 1,30,31
 604 1194 604 1194 749 1194 c 0,32,33
 868 1194 868 1194 944 1098 c 128,-1,34
 1020 1002 1020 1002 1020 767 c 2,35,-1
 1020 568 l 1,0,-1
853 689 m 1,36,-1
 853 797 l 2,37,38
 853 1063 853 1063 734 1063 c 0,39,40
 613 1063 613 1063 613 797 c 2,41,-1
 613 689 l 1,42,-1
 853 689 l 1,36,-1
446 369 m 2,43,-1
 446 568 l 1,44,-1
 382 568 l 2,45,46
 206 568 206 568 206 347 c 0,47,48
 206 110 206 110 326 110 c 256,49,50
 446 110 446 110 446 369 c 2,43,-1
EndSplineSet
EndChar
StartChar: eth
Encoding: 240 240 178
Width: 1060
GlyphClass: 2
Flags: W
LayerCount: 2
Fore
SplineSet
954 1431 m 1,0,-1
 816 1382 l 1,1,2
 874 1256 874 1256 874 1061 c 2,3,-1
 874 505 l 2,4,5
 874 225 874 225 762 102.5 c 128,-1,6
 650 -20 650 -20 491 -20 c 0,7,8
 301 -20 301 -20 200.5 102.5 c 128,-1,9
 100 225 100 225 100 505 c 2,10,-1
 100 581 l 2,11,12
 100 858 100 858 200.5 981.5 c 128,-1,13
 301 1105 301 1105 441 1105 c 0,14,15
 619 1105 619 1105 699 952 c 1,16,-1
 699 1061 l 2,17,18
 699 1227 699 1227 651 1325 c 1,19,-1
 396 1236 l 1,20,-1
 352 1371 l 1,21,-1
 569 1446 l 1,22,23
 503 1520 503 1520 417 1569 c 1,24,-1
 512 1710 l 1,25,26
 649 1631 649 1631 742 1506 c 1,27,-1
 911 1565 l 1,28,-1
 954 1431 l 1,0,-1
699 505 m 2,29,-1
 699 712 l 1,30,31
 659 947 659 947 484 947 c 0,32,33
 385 947 385 947 333 871 c 128,-1,34
 281 795 281 795 281 581 c 2,35,-1
 281 505 l 2,36,37
 281 287 281 287 333 212 c 128,-1,38
 385 137 385 137 491 137 c 0,39,40
 577 137 577 137 638 212 c 128,-1,41
 699 287 699 287 699 505 c 2,29,-1
EndSplineSet
EndChar
StartChar: divide
Encoding: 247 247 185
Width: 1060
GlyphClass: 2
Flags: W
LayerCount: 2
Fore
SplineSet
1000 703 m 1,0,-1
 59 703 l 1,1,-1
 59 879 l 1,2,-1
 1000 879 l 1,3,-1
 1000 703 l 1,0,-1
704 1222 m 0,4,5
 704 1151 704 1151 654.5 1100 c 128,-1,6
 605 1049 605 1049 530 1049 c 0,7,8
 454 1049 454 1049 405.5 1100 c 128,-1,9
 357 1151 357 1151 357 1222 c 0,10,11
 357 1292 357 1292 405.5 1343.5 c 128,-1,12
 454 1395 454 1395 530 1395 c 0,13,14
 605 1395 605 1395 654.5 1343 c 128,-1,15
 704 1291 704 1291 704 1222 c 0,4,5
703 357 m 0,16,17
 703 286 703 286 653.5 235 c 128,-1,18
 604 184 604 184 529 184 c 0,19,20
 453 184 453 184 404.5 235 c 128,-1,21
 356 286 356 286 356 357 c 0,22,23
 356 427 356 427 404.5 478.5 c 128,-1,24
 453 530 453 530 529 530 c 0,25,26
 604 530 604 530 653.5 478 c 128,-1,27
 703 426 703 426 703 357 c 0,16,17
EndSplineSet
EndChar
StartChar: oslash
Encoding: 248 248 186
Width: 1060
GlyphClass: 2
Flags: W
LayerCount: 2
Fore
SplineSet
807 1308 m 1,0,-1
 750 1124 l 1,1,2
 924 1002 924 1002 924 677 c 2,3,-1
 924 505 l 2,4,5
 924 247 924 247 814 113.5 c 128,-1,6
 704 -20 704 -20 530 -20 c 0,7,8
 464 -20 464 -20 406 0 c 1,9,-1
 355 -168 l 1,10,-1
 249 -134 l 1,11,-1
 307 56 l 1,12,13
 135 195 135 195 135 515 c 2,14,-1
 135 657 l 2,15,16
 135 916 135 916 245.5 1055 c 128,-1,17
 356 1194 356 1194 530 1194 c 0,18,19
 594 1194 594 1194 651 1175 c 1,20,-1
 702 1342 l 1,21,-1
 807 1308 l 1,0,-1
748 505 m 2,22,-1
 748 677 l 2,23,24
 748 881 748 881 697 949 c 1,25,-1
 453 152 l 1,26,27
 488 137 488 137 530 137 c 0,28,29
 626 137 626 137 687 213.5 c 128,-1,30
 748 290 748 290 748 505 c 2,22,-1
530 1036 m 0,31,32
 434 1036 434 1036 372.5 954.5 c 128,-1,33
 311 873 311 873 311 657 c 2,34,-1
 311 515 l 2,35,36
 311 315 311 315 362 234 c 1,37,-1
 604 1023 l 1,38,39
 569 1036 569 1036 530 1036 c 0,31,32
EndSplineSet
EndChar
StartChar: thorn
Encoding: 254 254 192
Width: 1060
GlyphClass: 2
Flags: W
LayerCount: 2
Fore
SplineSet
940 504 m 2,0,1
 940 227 940 227 834.5 103.5 c 128,-1,2
 729 -20 729 -20 599 -20 c 0,3,4
 419 -20 419 -20 327 154 c 1,5,-1
 327 -365 l 1,6,-1
 151 -365 l 1,7,-1
 151 1580 l 1,8,-1
 327 1580 l 1,9,-1
 327 1023 l 1,10,11
 419 1194 419 1194 599 1194 c 0,12,13
 729 1194 729 1194 834.5 1071.5 c 128,-1,14
 940 949 940 949 940 669 c 2,15,-1
 940 504 l 2,0,1
759 504 m 2,16,-1
 759 669 l 2,17,18
 759 877 759 877 702 957 c 128,-1,19
 645 1037 645 1037 556 1037 c 0,20,21
 382 1037 382 1037 327 805 c 1,22,-1
 327 372 l 1,23,24
 381 138 381 138 556 138 c 0,25,26
 645 138 645 138 702 219 c 128,-1,27
 759 300 759 300 759 504 c 2,16,-1
EndSplineSet
EndChar
StartChar: dcaron
Encoding: 271 271 209
Width: 1060
GlyphClass: 2
Flags: W
LayerCount: 2
Fore
SplineSet
815 0 m 1,0,-1
 639 0 l 1,1,-1
 639 131 l 1,2,3
 536 -20 536 -20 417 -20 c 0,4,5
 287 -20 287 -20 206 92.5 c 128,-1,6
 125 205 125 205 125 474 c 2,7,-1
 125 694 l 2,8,9
 125 964 125 964 206 1076.5 c 128,-1,10
 287 1189 287 1189 417 1189 c 0,11,12
 536 1189 536 1189 639 1037 c 1,13,-1
 639 1580 l 1,14,-1
 815 1580 l 1,15,-1
 815 0 l 1,0,-1
639 269 m 1,16,-1
 639 899 l 1,17,18
 554 1031 554 1031 469 1031 c 0,19,20
 376 1031 376 1031 338.5 966 c 128,-1,21
 301 901 301 901 301 705 c 2,22,-1
 301 463 l 2,23,24
 301 267 301 267 338.5 201.5 c 128,-1,25
 376 136 376 136 469 136 c 0,26,27
 553 136 553 136 639 269 c 1,16,-1
1085 1580 m 1,28,-1
 1016 1215 l 1,29,-1
 871 1215 l 1,30,-1
 915 1580 l 1,31,-1
 1085 1580 l 1,28,-1
EndSplineSet
EndChar
StartChar: dcroat
Encoding: 273 273 211
Width: 1060
GlyphClass: 2
Flags: W
LayerCount: 2
Fore
SplineSet
1011 1266 m 1,0,-1
 885 1266 l 1,1,-1
 885 0 l 1,2,-1
 709 0 l 1,3,-1
 709 131 l 1,4,5
 596 -20 596 -20 457 -20 c 0,6,7
 322 -20 322 -20 221 92.5 c 128,-1,8
 120 205 120 205 120 474 c 2,9,-1
 120 604 l 2,10,11
 120 874 120 874 221 986.5 c 128,-1,12
 322 1099 322 1099 457 1099 c 0,13,14
 596 1099 596 1099 709 947 c 1,15,-1
 709 1266 l 1,16,-1
 457 1266 l 1,17,-1
 457 1414 l 1,18,-1
 709 1414 l 1,19,-1
 709 1580 l 1,20,-1
 885 1580 l 1,21,-1
 885 1414 l 1,22,-1
 1011 1414 l 1,23,-1
 1011 1266 l 1,0,-1
709 299 m 1,24,-1
 709 789 l 1,25,26
 633 941 633 941 499 941 c 0,27,28
 396 941 396 941 348.5 871 c 128,-1,29
 301 801 301 801 301 615 c 2,30,-1
 301 463 l 2,31,32
 301 277 301 277 348.5 206.5 c 128,-1,33
 396 136 396 136 499 136 c 0,34,35
 633 136 633 136 709 299 c 1,24,-1
EndSplineSet
EndChar
StartChar: Hbar
Encoding: 294 294 232
Width: 1060
GlyphClass: 2
Flags: W
LayerCount: 2
Fore
SplineSet
910 0 m 1,0,-1
 734 0 l 1,1,-1
 734 710 l 1,2,-1
 326 710 l 1,3,-1
 326 0 l 1,4,-1
 150 0 l 1,5,-1
 150 1195 l 1,6,-1
 45 1195 l 1,7,-1
 45 1329 l 1,8,-1
 150 1329 l 1,9,-1
 150 1580 l 1,10,-1
 326 1580 l 1,11,-1
 326 1329 l 1,12,-1
 734 1329 l 1,13,-1
 734 1580 l 1,14,-1
 910 1580 l 1,15,-1
 910 1329 l 1,16,-1
 1014 1329 l 1,17,-1
 1014 1195 l 1,18,-1
 910 1195 l 1,19,-1
 910 0 l 1,0,-1
734 866 m 1,20,-1
 734 1195 l 1,21,-1
 326 1195 l 1,22,-1
 326 866 l 1,23,-1
 734 866 l 1,20,-1
EndSplineSet
EndChar
StartChar: hbar
Encoding: 295 295 233
Width: 1060
GlyphClass: 2
Flags: W
LayerCount: 2
Fore
SplineSet
605 1285 m 1,0,-1
 351 1285 l 1,1,-1
 351 967 l 1,2,3
 454 1119 454 1119 604 1119 c 0,4,5
 735 1119 735 1119 825 1022 c 128,-1,6
 915 925 915 925 915 698 c 2,7,-1
 915 0 l 1,8,-1
 739 0 l 1,9,-1
 739 698 l 2,10,11
 739 842 739 842 691.5 901.5 c 128,-1,12
 644 961 644 961 561 961 c 0,13,14
 420 961 420 961 351 800 c 1,15,-1
 351 0 l 1,16,-1
 175 0 l 1,17,-1
 175 1285 l 1,18,-1
 34 1285 l 1,19,-1
 34 1419 l 1,20,-1
 175 1419 l 1,21,-1
 175 1580 l 1,22,-1
 351 1580 l 1,23,-1
 351 1419 l 1,24,-1
 605 1419 l 1,25,-1
 605 1285 l 1,0,-1
EndSplineSet
EndChar
StartChar: dotlessi
Encoding: 305 305 243
Width: 1060
GlyphClass: 2
Flags: W
LayerCount: 2
Fore
SplineSet
879 0 m 1,0,-1
 200 0 l 1,1,-1
 200 157 l 1,2,-1
 451 157 l 1,3,-1
 451 1015 l 1,4,-1
 250 1015 l 1,5,-1
 250 1172 l 1,6,-1
 628 1172 l 1,7,-1
 628 157 l 1,8,-1
 879 157 l 1,9,-1
 879 0 l 1,0,-1
EndSplineSet
EndChar
StartChar: IJ
Encoding: 306 306 244
Width: 1060
GlyphClass: 2
Flags: W
LayerCount: 2
Fore
SplineSet
359 0 m 1,0,-1
 182 0 l 1,1,-1
 182 1580 l 1,2,-1
 359 1580 l 1,3,-1
 359 0 l 1,0,-1
878 415 m 2,4,5
 878 178 878 178 795 89 c 128,-1,6
 712 0 712 0 573 0 c 2,7,-1
 490 0 l 1,8,-1
 490 156 l 1,9,-1
 552 156 l 2,10,11
 618 156 618 156 659.5 193 c 128,-1,12
 701 230 701 230 701 360 c 2,13,-1
 701 1580 l 1,14,-1
 878 1580 l 1,15,-1
 878 415 l 2,4,5
EndSplineSet
EndChar
StartChar: ij
Encoding: 307 307 245
Width: 1060
GlyphClass: 2
Flags: W
LayerCount: 2
Fore
SplineSet
438 1569 m 256,0,1
 438 1513 438 1513 399 1472.5 c 128,-1,2
 360 1432 360 1432 300 1432 c 256,3,4
 240 1432 240 1432 201.5 1472.5 c 128,-1,5
 163 1513 163 1513 163 1569 c 256,6,7
 163 1625 163 1625 201.5 1666 c 128,-1,8
 240 1707 240 1707 300 1707 c 256,9,10
 360 1707 360 1707 399 1666 c 128,-1,11
 438 1625 438 1625 438 1569 c 256,0,1
389 0 m 1,12,-1
 212 0 l 1,13,-1
 212 1172 l 1,14,-1
 389 1172 l 1,15,-1
 389 0 l 1,12,-1
672 -20 m 2,16,-1
 672 1172 l 1,17,-1
 849 1172 l 1,18,-1
 849 -8 l 2,19,20
 849 -188 849 -188 756 -281.5 c 128,-1,21
 663 -375 663 -375 528 -375 c 0,22,23
 337 -375 337 -375 224 -226 c 1,24,-1
 355 -133 l 1,25,26
 412 -219 412 -219 517 -219 c 0,27,28
 590 -219 590 -219 631 -172.5 c 128,-1,29
 672 -126 672 -126 672 -20 c 2,16,-1
898 1569 m 256,30,31
 898 1513 898 1513 859 1472.5 c 128,-1,32
 820 1432 820 1432 760 1432 c 256,33,34
 700 1432 700 1432 661.5 1472.5 c 128,-1,35
 623 1513 623 1513 623 1569 c 256,36,37
 623 1625 623 1625 661.5 1666 c 128,-1,38
 700 1707 700 1707 760 1707 c 256,39,40
 820 1707 820 1707 859 1666 c 128,-1,41
 898 1625 898 1625 898 1569 c 256,30,31
EndSplineSet
EndChar
StartChar: Lslash
Encoding: 321 321 259
Width: 1060
GlyphClass: 2
Flags: W
LayerCount: 2
Fore
SplineSet
983 0 m 1,0,-1
 334 0 l 1,1,-1
 334 710 l 1,2,-1
 188 590 l 1,3,-1
 76 707 l 1,4,-1
 334 917 l 1,5,-1
 334 1580 l 1,6,-1
 510 1580 l 1,7,-1
 510 1060 l 1,8,-1
 681 1200 l 1,9,-1
 792 1083 l 1,10,-1
 510 853 l 1,11,-1
 510 157 l 1,12,-1
 983 157 l 1,13,-1
 983 0 l 1,0,-1
EndSplineSet
EndChar
StartChar: lslash
Encoding: 322 322 260
Width: 1060
GlyphClass: 2
Flags: W
LayerCount: 2
Fore
SplineSet
903 1083 m 1,0,-1
 629 860 l 1,1,-1
 629 157 l 1,2,-1
 880 157 l 1,3,-1
 880 0 l 1,4,-1
 200 0 l 1,5,-1
 200 157 l 1,6,-1
 452 157 l 1,7,-1
 452 714 l 1,8,-1
 299 590 l 1,9,-1
 188 707 l 1,10,-1
 452 922 l 1,11,-1
 452 1424 l 1,12,-1
 240 1424 l 1,13,-1
 240 1580 l 1,14,-1
 629 1580 l 1,15,-1
 629 1066 l 1,16,-1
 792 1200 l 1,17,-1
 903 1083 l 1,0,-1
EndSplineSet
EndChar
StartChar: napostrophe
Encoding: 329 329 267
Width: 1060
GlyphClass: 2
Flags: W
LayerCount: 2
Fore
SplineSet
915 0 m 1,0,-1
 739 0 l 1,1,-1
 739 790 l 2,2,3
 739 912 739 912 701.5 971.5 c 128,-1,4
 664 1031 664 1031 591 1031 c 0,5,6
 476 1031 476 1031 401 899 c 1,7,-1
 401 0 l 1,8,-1
 225 0 l 1,9,-1
 225 1172 l 1,10,-1
 401 1172 l 1,11,-1
 401 1037 l 1,12,13
 494 1189 494 1189 634 1189 c 0,14,15
 755 1189 755 1189 835 1092 c 128,-1,16
 915 995 915 995 915 790 c 2,17,-1
 915 0 l 1,0,-1
297 1580 m 1,18,-1
 229 1323 l 1,19,-1
 87 1323 l 1,20,-1
 130 1580 l 1,21,-1
 297 1580 l 1,18,-1
EndSplineSet
EndChar
StartChar: Eng
Encoding: 330 330 268
Width: 1060
GlyphClass: 2
Flags: W
LayerCount: 2
Fore
SplineSet
910 72 m 2,0,1
 910 -185 910 -185 827 -274 c 128,-1,2
 744 -363 744 -363 595 -363 c 2,3,-1
 502 -363 l 1,4,-1
 502 -207 l 1,5,-1
 574 -207 l 2,6,7
 641 -207 641 -207 687.5 -160 c 128,-1,8
 734 -113 734 -113 734 17 c 2,9,-1
 734 478 l 1,10,-1
 286 1334 l 1,11,-1
 326 527 l 1,12,-1
 326 0 l 1,13,-1
 150 0 l 1,14,-1
 150 1580 l 1,15,-1
 326 1580 l 1,16,-1
 774 724 l 1,17,-1
 734 1531 l 1,18,-1
 734 1580 l 1,19,-1
 910 1580 l 1,20,-1
 910 72 l 2,0,1
EndSplineSet
EndChar
StartChar: eng
Encoding: 331 331 269
Width: 1060
GlyphClass: 2
Flags: W
LayerCount: 2
Fore
SplineSet
738 99 m 1,0,-1
 738 790 l 2,1,2
 738 912 738 912 691 971.5 c 128,-1,3
 644 1031 644 1031 561 1031 c 0,4,5
 416 1031 416 1031 321 899 c 1,6,-1
 321 0 l 1,7,-1
 145 0 l 1,8,-1
 145 1172 l 1,9,-1
 321 1172 l 1,10,-1
 321 1037 l 1,11,12
 434 1189 434 1189 604 1189 c 0,13,14
 735 1189 735 1189 824.5 1092 c 128,-1,15
 914 995 914 995 914 790 c 2,16,-1
 914 72 l 2,17,18
 914 -185 914 -185 831 -274 c 128,-1,19
 748 -363 748 -363 599 -363 c 2,20,-1
 506 -363 l 1,21,-1
 506 -207 l 1,22,-1
 578 -207 l 2,23,24
 644 -207 644 -207 691 -160 c 128,-1,25
 738 -113 738 -113 738 17 c 2,26,-1
 738 99 l 1,0,-1
EndSplineSet
EndChar
StartChar: OE
Encoding: 338 338 276
Width: 1060
GlyphClass: 2
Flags: W
LayerCount: 2
Fore
SplineSet
1010 0 m 1,0,-1
 506 0 l 2,1,2
 297 0 297 0 199 114.5 c 128,-1,3
 101 229 101 229 101 440 c 2,4,-1
 101 1140 l 2,5,6
 101 1351 101 1351 199 1465.5 c 128,-1,7
 297 1580 297 1580 506 1580 c 2,8,-1
 1010 1580 l 1,9,-1
 1010 1424 l 1,10,-1
 709 1424 l 1,11,-1
 709 905 l 1,12,-1
 968 905 l 1,13,-1
 968 748 l 1,14,-1
 709 748 l 1,15,-1
 709 157 l 1,16,-1
 1010 157 l 1,17,-1
 1010 0 l 1,0,-1
533 157 m 1,18,-1
 533 1423 l 1,19,20
 474 1424 474 1424 469 1424 c 0,21,22
 383 1424 383 1424 330.5 1362.5 c 128,-1,23
 278 1301 278 1301 278 1143 c 2,24,-1
 278 438 l 2,25,26
 278 281 278 281 331.5 219 c 128,-1,27
 385 157 385 157 471 157 c 2,28,-1
 533 157 l 1,18,-1
EndSplineSet
EndChar
StartChar: oe
Encoding: 339 339 277
Width: 1060
GlyphClass: 2
Flags: W
LayerCount: 2
Fore
SplineSet
1020 536 m 1,0,-1
 614 536 l 1,1,-1
 614 375 l 2,2,3
 614 130 614 130 749 130 c 0,4,5
 832 130 832 130 888 242 c 1,6,-1
 1008 174 l 1,7,8
 925 -20 925 -20 749 -20 c 0,9,10
 605 -20 605 -20 534 116 c 1,11,12
 462 -20 462 -20 311 -20 c 0,13,14
 192 -20 192 -20 115.5 75.5 c 128,-1,15
 39 171 39 171 39 405 c 2,16,-1
 39 767 l 2,17,18
 39 1002 39 1002 115.5 1098 c 128,-1,19
 192 1194 192 1194 311 1194 c 0,20,21
 462 1194 462 1194 534 1063 c 1,22,23
 604 1194 604 1194 749 1194 c 0,24,25
 868 1194 868 1194 944 1098 c 128,-1,26
 1020 1002 1020 1002 1020 767 c 2,27,-1
 1020 536 l 1,0,-1
853 657 m 1,28,-1
 853 797 l 2,29,30
 853 1043 853 1043 734 1043 c 0,31,32
 613 1043 613 1043 613 797 c 2,33,-1
 613 657 l 1,34,-1
 853 657 l 1,28,-1
446 375 m 2,35,-1
 446 797 l 2,36,37
 446 1043 446 1043 326 1043 c 256,38,39
 206 1043 206 1043 206 797 c 2,40,-1
 206 375 l 2,41,42
 206 130 206 130 326 130 c 256,43,44
 446 130 446 130 446 375 c 2,35,-1
EndSplineSet
EndChar
StartChar: tcaron
Encoding: 357 357 295
Width: 1060
GlyphClass: 2
Flags: W
LayerCount: 2
Fore
SplineSet
975 164 m 1,0,1
 852 -20 852 -20 646 -20 c 0,2,3
 510 -20 510 -20 417 73 c 128,-1,4
 324 166 324 166 324 347 c 2,5,-1
 324 1015 l 1,6,-1
 127 1015 l 1,7,-1
 127 1172 l 1,8,-1
 324 1172 l 1,9,-1
 324 1580 l 1,10,-1
 501 1580 l 1,11,-1
 501 1172 l 1,12,-1
 766 1172 l 1,13,-1
 766 1015 l 1,14,-1
 501 1015 l 1,15,-1
 501 335 l 2,16,17
 501 229 501 229 542 182.5 c 128,-1,18
 583 136 583 136 656 136 c 0,19,20
 779 136 779 136 842 261 c 1,21,-1
 975 164 l 1,0,1
1045 1580 m 1,22,-1
 976 1215 l 1,23,-1
 831 1215 l 1,24,-1
 875 1580 l 1,25,-1
 1045 1580 l 1,22,-1
EndSplineSet
EndChar
StartChar: Tbar
Encoding: 358 358 296
Width: 1060
GlyphClass: 2
Flags: W
LayerCount: 2
Fore
SplineSet
943 1423 m 1,0,-1
 618 1423 l 1,1,-1
 618 926 l 1,2,-1
 914 926 l 1,3,-1
 914 769 l 1,4,-1
 618 769 l 1,5,-1
 618 0 l 1,6,-1
 441 0 l 1,7,-1
 441 769 l 1,8,-1
 145 769 l 1,9,-1
 145 926 l 1,10,-1
 441 926 l 1,11,-1
 441 1423 l 1,12,-1
 116 1423 l 1,13,-1
 116 1580 l 1,14,-1
 943 1580 l 1,15,-1
 943 1423 l 1,0,-1
EndSplineSet
EndChar
StartChar: tbar
Encoding: 359 359 297
Width: 1060
GlyphClass: 2
Flags: W
LayerCount: 2
Fore
SplineSet
975 164 m 1,0,1
 852 -20 852 -20 646 -20 c 0,2,3
 510 -20 510 -20 417 73 c 128,-1,4
 324 166 324 166 324 347 c 2,5,-1
 324 605 l 1,6,-1
 127 605 l 1,7,-1
 127 762 l 1,8,-1
 324 762 l 1,9,-1
 324 1015 l 1,10,-1
 127 1015 l 1,11,-1
 127 1172 l 1,12,-1
 324 1172 l 1,13,-1
 324 1580 l 1,14,-1
 501 1580 l 1,15,-1
 501 1172 l 1,16,-1
 896 1172 l 1,17,-1
 896 1015 l 1,18,-1
 501 1015 l 1,19,-1
 501 762 l 1,20,-1
 896 762 l 1,21,-1
 896 605 l 1,22,-1
 501 605 l 1,23,-1
 501 335 l 2,24,25
 501 229 501 229 542 182.5 c 128,-1,26
 583 136 583 136 656 136 c 0,27,28
 779 136 779 136 842 261 c 1,29,-1
 975 164 l 1,0,1
EndSplineSet
EndChar
StartChar: slong
Encoding: 383 383 321
Width: 1060
GlyphClass: 2
Flags: W
LayerCount: 2
Fore
SplineSet
841 1362 m 1,0,1
 800 1445 800 1445 688 1445 c 0,2,3
 615 1445 615 1445 574 1398 c 128,-1,4
 533 1351 533 1351 533 1245 c 2,5,-1
 533 0 l 1,6,-1
 356 0 l 1,7,-1
 356 950 l 1,8,-1
 159 950 l 1,9,-1
 159 1107 l 1,10,-1
 356 1107 l 1,11,-1
 356 1234 l 2,12,13
 356 1414 356 1414 449 1507.5 c 128,-1,14
 542 1601 542 1601 677 1601 c 0,15,16
 884 1601 884 1601 974 1459 c 1,17,-1
 841 1362 l 1,0,1
EndSplineSet
EndChar
StartChar: Bhook
Encoding: 385 385 323
Width: 1060
GlyphClass: 2
Flags: W
LayerCount: 2
Fore
SplineSet
198 1172 m 1,0,-1
 51 1172 l 1,1,-1
 51 1292 l 2,2,3
 51 1424 51 1424 120 1502 c 128,-1,4
 189 1580 189 1580 358 1580 c 2,5,-1
 536 1580 l 2,6,7
 738 1580 738 1580 840 1471 c 128,-1,8
 942 1362 942 1362 942 1201 c 2,9,-1
 942 1152 l 2,10,11
 942 1048 942 1048 886 964 c 1,12,13
 826 882 826 882 748 859 c 1,14,15
 875 814 875 814 932 727 c 0,16,17
 985 647 985 647 985 524 c 2,18,-1
 985 401 l 2,19,20
 985 218 985 218 872 109 c 128,-1,21
 759 0 759 0 579 0 c 2,22,-1
 335 0 l 1,23,-1
 335 1424 l 1,24,-1
 319 1424 l 2,25,26
 252 1424 252 1424 225 1390.5 c 128,-1,27
 198 1357 198 1357 198 1293 c 2,28,-1
 198 1172 l 1,0,-1
808 400 m 2,29,-1
 808 526 l 2,30,31
 808 646 808 646 747 708 c 128,-1,32
 686 770 686 770 579 770 c 2,33,-1
 511 770 l 1,34,-1
 511 157 l 1,35,-1
 578 157 l 2,36,37
 685 157 685 157 746.5 213.5 c 128,-1,38
 808 270 808 270 808 400 c 2,29,-1
765 1159 m 2,39,-1
 765 1202 l 2,40,41
 765 1310 765 1310 709 1367 c 128,-1,42
 653 1424 653 1424 535 1424 c 2,43,-1
 511 1424 l 1,44,-1
 511 926 l 1,45,-1
 535 926 l 2,46,47
 642 926 642 926 703.5 988 c 128,-1,48
 765 1050 765 1050 765 1159 c 2,39,-1
EndSplineSet
EndChar
StartChar: btopbar
Encoding: 387 387 325
Width: 1060
GlyphClass: 2
Flags: W
LayerCount: 2
Fore
SplineSet
166 0 m 1,0,-1
 166 1580 l 1,1,-1
 831 1580 l 1,2,-1
 831 1424 l 1,3,-1
 342 1424 l 1,4,-1
 342 967 l 1,5,6
 454 1119 454 1119 604 1119 c 0,7,8
 734 1119 734 1119 834.5 1006.5 c 128,-1,9
 935 894 935 894 935 624 c 2,10,-1
 935 474 l 2,11,12
 935 205 935 205 834.5 92.5 c 128,-1,13
 734 -20 734 -20 604 -20 c 0,14,15
 454 -20 454 -20 342 131 c 1,16,-1
 342 0 l 1,17,-1
 166 0 l 1,0,-1
759 463 m 2,18,-1
 759 635 l 2,19,20
 759 831 759 831 712 896 c 128,-1,21
 665 961 665 961 561 961 c 0,22,23
 436 961 436 961 342 829 c 1,24,-1
 342 269 l 1,25,26
 437 136 437 136 561 136 c 0,27,28
 665 136 665 136 712 201.5 c 128,-1,29
 759 267 759 267 759 463 c 2,18,-1
EndSplineSet
EndChar
StartChar: Oopen
Encoding: 390 390 328
Width: 1060
GlyphClass: 2
Flags: W
LayerCount: 2
Fore
SplineSet
198 331 m 1,0,1
 287 140 287 140 457 140 c 0,2,3
 555 140 555 140 620.5 212 c 128,-1,4
 686 284 686 284 686 519 c 2,5,-1
 686 1063 l 2,6,7
 686 1298 686 1298 620.5 1370 c 128,-1,8
 555 1442 555 1442 457 1442 c 0,9,10
 287 1442 287 1442 208 1259 c 1,11,-1
 64 1346 l 1,12,13
 191 1602 191 1602 457 1602 c 0,14,15
 627 1602 627 1602 745 1482 c 128,-1,16
 863 1362 863 1362 863 1063 c 2,17,-1
 863 519 l 2,18,19
 863 210 863 210 745 95 c 128,-1,20
 627 -20 627 -20 457 -20 c 0,21,22
 201 -20 201 -20 54 234 c 1,23,-1
 198 331 l 1,0,1
EndSplineSet
EndChar
StartChar: Chook
Encoding: 391 391 329
Width: 1060
GlyphClass: 2
Flags: W
LayerCount: 2
Fore
SplineSet
881 1293 m 1,0,-1
 724 1293 l 1,1,2
 668 1445 668 1445 524 1445 c 0,3,4
 430 1445 430 1445 377 1371.5 c 128,-1,5
 324 1298 324 1298 324 1063 c 2,6,-1
 324 519 l 2,7,8
 324 284 324 284 389.5 212 c 128,-1,9
 455 140 455 140 554 140 c 0,10,11
 723 140 723 140 812 331 c 1,12,-1
 956 234 l 1,13,14
 809 -20 809 -20 555 -20 c 0,15,16
 383 -20 383 -20 265 95 c 128,-1,17
 147 210 147 210 147 519 c 2,18,-1
 147 1063 l 2,19,20
 147 1362 147 1362 250 1482 c 128,-1,21
 353 1602 353 1602 524 1602 c 0,22,23
 647 1602 647 1602 734 1512 c 1,24,25
 734 1683 734 1683 803 1761 c 128,-1,26
 872 1839 872 1839 1001 1839 c 2,27,-1
 1028 1839 l 1,28,-1
 1028 1681 l 1,29,-1
 1002 1681 l 2,30,31
 935 1681 935 1681 908 1648.5 c 128,-1,32
 881 1616 881 1616 881 1552 c 2,33,-1
 881 1293 l 1,0,-1
EndSplineSet
EndChar
StartChar: chook
Encoding: 392 392 330
Width: 1060
GlyphClass: 2
Flags: W
LayerCount: 2
Fore
SplineSet
862 884 m 1,0,-1
 715 884 l 1,1,2
 666 1036 666 1036 524 1036 c 0,3,4
 450 1036 450 1036 388.5 974 c 128,-1,5
 327 912 327 912 327 772 c 2,6,-1
 327 401 l 2,7,8
 327 260 327 260 388.5 198.5 c 128,-1,9
 450 137 450 137 547 137 c 0,10,11
 692 137 692 137 779 288 c 1,12,-1
 912 195 l 1,13,14
 777 -20 777 -20 547 -20 c 0,15,16
 377 -20 377 -20 263.5 94 c 128,-1,17
 150 208 150 208 150 476 c 2,18,-1
 150 697 l 2,19,20
 150 965 150 965 263.5 1079.5 c 128,-1,21
 377 1194 377 1194 524 1194 c 0,22,23
 643 1194 643 1194 715 1119 c 1,24,25
 715 1274 715 1274 784 1352 c 256,26,27
 853 1430 853 1430 982 1430 c 2,28,-1
 1009 1430 l 1,29,-1
 1009 1272 l 1,30,-1
 983 1272 l 2,31,32
 916 1272 916 1272 889 1239.5 c 128,-1,33
 862 1207 862 1207 862 1143 c 2,34,-1
 862 884 l 1,0,-1
EndSplineSet
EndChar
StartChar: Dhook
Encoding: 394 394 332
Width: 1060
GlyphClass: 2
Flags: W
LayerCount: 2
Fore
SplineSet
198 1172 m 1,0,-1
 51 1172 l 1,1,-1
 51 1292 l 2,2,3
 51 1424 51 1424 120 1502 c 128,-1,4
 189 1580 189 1580 368 1580 c 2,5,-1
 522 1580 l 2,6,7
 704 1580 704 1580 816.5 1465.5 c 128,-1,8
 929 1351 929 1351 929 1053 c 2,9,-1
 929 528 l 2,10,11
 929 229 929 229 816.5 114.5 c 128,-1,12
 704 0 704 0 562 0 c 2,13,-1
 341 0 l 1,14,-1
 341 1424 l 1,15,16
 252 1424 252 1424 225 1390.5 c 128,-1,17
 198 1357 198 1357 198 1293 c 2,18,-1
 198 1172 l 1,0,-1
752 453 m 2,19,-1
 752 1128 l 2,20,21
 752 1300 752 1300 690.5 1362 c 128,-1,22
 629 1424 629 1424 561 1424 c 2,23,-1
 516 1424 l 1,24,-1
 516 157 l 1,25,-1
 561 157 l 2,26,27
 629 157 629 157 690.5 219 c 128,-1,28
 752 281 752 281 752 453 c 2,19,-1
EndSplineSet
EndChar
StartChar: Dtopbar
Encoding: 395 395 333
Width: 1060
GlyphClass: 2
Flags: W
LayerCount: 2
Fore
SplineSet
229 1580 m 1,0,-1
 895 1580 l 1,1,-1
 895 0 l 1,2,-1
 531 0 l 2,3,4
 351 0 351 0 238 109 c 128,-1,5
 125 218 125 218 125 420 c 2,6,-1
 125 556 l 2,7,8
 125 757 125 757 238 866.5 c 128,-1,9
 351 976 351 976 531 976 c 2,10,-1
 719 976 l 1,11,-1
 719 1424 l 1,12,-1
 229 1424 l 1,13,-1
 229 1580 l 1,0,-1
302 420 m 2,14,15
 302 270 302 270 363.5 213.5 c 128,-1,16
 425 157 425 157 532 157 c 2,17,-1
 719 157 l 1,18,-1
 719 820 l 1,19,-1
 531 820 l 2,20,21
 424 820 424 820 363 758 c 128,-1,22
 302 696 302 696 302 556 c 2,23,-1
 302 420 l 2,14,15
EndSplineSet
EndChar
StartChar: dtopbar
Encoding: 396 396 334
Width: 1060
GlyphClass: 2
Flags: W
LayerCount: 2
Fore
SplineSet
718 0 m 1,0,-1
 718 131 l 1,1,2
 606 -20 606 -20 456 -20 c 0,3,4
 326 -20 326 -20 225.5 92.5 c 128,-1,5
 125 205 125 205 125 474 c 2,6,-1
 125 624 l 2,7,8
 125 894 125 894 225.5 1006.5 c 128,-1,9
 326 1119 326 1119 456 1119 c 0,10,11
 606 1119 606 1119 718 967 c 1,12,-1
 718 1424 l 1,13,-1
 229 1424 l 1,14,-1
 229 1580 l 1,15,-1
 894 1580 l 1,16,-1
 894 0 l 1,17,-1
 718 0 l 1,0,-1
301 463 m 2,18,19
 301 267 301 267 348 201.5 c 128,-1,20
 395 136 395 136 499 136 c 0,21,22
 623 136 623 136 718 269 c 1,23,-1
 718 829 l 1,24,25
 624 961 624 961 499 961 c 0,26,27
 395 961 395 961 348 896 c 128,-1,28
 301 831 301 831 301 635 c 2,29,-1
 301 463 l 2,18,19
EndSplineSet
EndChar
StartChar: deltaturned
Encoding: 397 397 335
Width: 1060
GlyphClass: 2
Flags: W
LayerCount: 2
Fore
SplineSet
162 -208 m 1,0,-1
 733 -208 l 1,1,2
 733 -158 733 -158 663 -93 c 2,3,-1
 371 170 l 1,4,5
 143 385 143 385 143 687 c 0,6,7
 143 936 143 936 253.5 1065 c 128,-1,8
 364 1194 364 1194 538 1194 c 256,9,10
 712 1194 712 1194 822 1065 c 128,-1,11
 932 936 932 936 932 687 c 0,12,13
 932 371 932 371 648 137 c 1,14,-1
 776 22 l 2,15,16
 909 -100 909 -100 909 -276 c 2,17,-1
 909 -365 l 1,18,-1
 162 -365 l 1,19,-1
 162 -208 l 1,0,-1
319 687 m 0,20,21
 319 411 319 411 527 246 c 1,22,23
 756 414 756 414 756 687 c 0,24,25
 756 875 756 875 695 954.5 c 128,-1,26
 634 1034 634 1034 538 1034 c 256,27,28
 442 1034 442 1034 380.5 954.5 c 128,-1,29
 319 875 319 875 319 687 c 0,20,21
EndSplineSet
EndChar
StartChar: Ereversed
Encoding: 398 398 336
Width: 1060
GlyphClass: 2
Flags: W
LayerCount: 2
Fore
SplineSet
136 157 m 1,0,-1
 708 157 l 1,1,-1
 708 748 l 1,2,-1
 280 748 l 1,3,-1
 280 905 l 1,4,-1
 708 905 l 1,5,-1
 708 1424 l 1,6,-1
 136 1424 l 1,7,-1
 136 1580 l 1,8,-1
 884 1580 l 1,9,-1
 884 0 l 1,10,-1
 136 0 l 1,11,-1
 136 157 l 1,0,-1
EndSplineSet
EndChar
StartChar: Schwa
Encoding: 399 399 337
Width: 1060
GlyphClass: 2
Flags: W
LayerCount: 2
Fore
SplineSet
135 926 m 1,0,-1
 748 926 l 1,1,-1
 748 1033 l 2,2,3
 748 1280 748 1280 682.5 1362.5 c 128,-1,4
 617 1445 617 1445 528 1445 c 0,5,6
 362 1445 362 1445 285 1294 c 1,7,-1
 152 1387 l 1,8,9
 287 1602 287 1602 529 1602 c 0,10,11
 688 1602 688 1602 806 1467 c 128,-1,12
 924 1332 924 1332 924 1033 c 2,13,-1
 924 568 l 2,14,15
 924 259 924 259 806 119.5 c 128,-1,16
 688 -20 688 -20 529 -20 c 256,17,18
 370 -20 370 -20 252.5 119.5 c 128,-1,19
 135 259 135 259 135 568 c 2,20,-1
 135 926 l 1,0,-1
311 770 m 1,21,-1
 311 568 l 2,22,23
 311 310 311 310 375.5 224 c 128,-1,24
 440 138 440 138 529 138 c 256,25,26
 618 138 618 138 683 224.5 c 128,-1,27
 748 311 748 311 748 568 c 2,28,-1
 748 770 l 1,29,-1
 311 770 l 1,21,-1
EndSplineSet
EndChar
StartChar: Eopen
Encoding: 400 400 338
Width: 1060
GlyphClass: 2
Flags: W
LayerCount: 2
Fore
SplineSet
975 240 m 1,0,1
 829 -20 829 -20 557 -20 c 0,2,3
 376 -20 376 -20 258 104 c 128,-1,4
 140 228 140 228 140 466 c 0,5,6
 140 769 140 769 382 837 c 1,7,8
 172 928 172 928 172 1182 c 0,9,10
 172 1373 172 1373 279.5 1487.5 c 128,-1,11
 387 1602 387 1602 557 1602 c 0,12,13
 798 1602 798 1602 944 1341 c 1,14,-1
 800 1245 l 1,15,16
 726 1442 726 1442 558 1442 c 0,17,18
 467 1442 467 1442 408 1380 c 128,-1,19
 349 1318 349 1318 349 1182 c 0,20,21
 349 1043 349 1043 422.5 977.5 c 128,-1,22
 496 912 496 912 588 912 c 2,23,-1
 665 912 l 1,24,-1
 665 762 l 1,25,-1
 588 762 l 2,26,27
 480 762 480 762 398.5 700 c 128,-1,28
 317 638 317 638 317 466 c 0,29,30
 317 284 317 284 386 212 c 128,-1,31
 455 140 455 140 558 140 c 0,32,33
 757 140 757 140 831 336 c 1,34,-1
 975 240 l 1,0,1
EndSplineSet
EndChar
StartChar: Fhook
Encoding: 401 401 339
Width: 1060
GlyphClass: 2
Flags: W
LayerCount: 2
Fore
SplineSet
137 -218 m 2,0,1
 181 -218 181 -218 213.5 -191 c 128,-1,2
 246 -164 246 -164 246 -78 c 2,3,-1
 246 1580 l 1,4,-1
 944 1580 l 1,5,-1
 944 1424 l 1,6,-1
 422 1424 l 1,7,-1
 422 905 l 1,8,-1
 832 905 l 1,9,-1
 832 748 l 1,10,-1
 422 748 l 1,11,-1
 422 -78 l 2,12,13
 422 -227 422 -227 344 -296 c 128,-1,14
 266 -365 266 -365 154 -365 c 2,15,-1
 59 -365 l 1,16,-1
 59 -218 l 1,17,-1
 137 -218 l 2,0,1
EndSplineSet
EndChar
StartChar: florin
Encoding: 402 402 340
Width: 1060
GlyphClass: 2
Flags: W
LayerCount: 2
Fore
SplineSet
962 1437 m 1,0,-1
 831 1341 l 1,1,2
 774 1434 774 1434 656 1434 c 0,3,4
 583 1434 583 1434 536.5 1382.5 c 128,-1,5
 490 1331 490 1331 490 1215 c 2,6,-1
 490 1022 l 1,7,-1
 874 1022 l 1,8,-1
 874 865 l 1,9,-1
 481 865 l 1,10,-1
 393 -232 l 1,11,-1
 225 -232 l 1,12,-1
 313 865 l 1,13,-1
 106 865 l 1,14,-1
 106 1022 l 1,15,-1
 313 1022 l 1,16,-1
 313 1214 l 2,17,18
 313 1393 313 1393 411.5 1497 c 128,-1,19
 510 1601 510 1601 656 1601 c 0,20,21
 842 1601 842 1601 962 1437 c 1,0,-1
EndSplineSet
EndChar
StartChar: Ghook
Encoding: 403 403 341
Width: 1060
GlyphClass: 2
Flags: W
LayerCount: 2
Fore
SplineSet
139 1103 m 2,0,1
 139 1363 139 1363 250 1482.5 c 128,-1,2
 361 1602 361 1602 522 1602 c 0,3,4
 645 1602 645 1602 732 1512 c 1,5,6
 732 1683 732 1683 801 1761 c 128,-1,7
 870 1839 870 1839 999 1839 c 2,8,-1
 1026 1839 l 1,9,-1
 1026 1681 l 1,10,-1
 1000 1681 l 2,11,12
 933 1681 933 1681 906 1648.5 c 128,-1,13
 879 1616 879 1616 879 1552 c 2,14,-1
 879 1293 l 1,15,-1
 722 1293 l 1,16,17
 666 1442 666 1442 522 1442 c 0,18,19
 435 1442 435 1442 375.5 1370 c 128,-1,20
 316 1298 316 1298 316 1103 c 2,21,-1
 316 479 l 2,22,23
 316 285 316 285 372.5 212.5 c 128,-1,24
 429 140 429 140 530 140 c 0,25,26
 628 140 628 140 688.5 212.5 c 128,-1,27
 749 285 749 285 749 480 c 2,28,-1
 749 695 l 1,29,-1
 562 695 l 1,30,-1
 562 845 l 1,31,-1
 925 845 l 1,32,-1
 925 479 l 2,33,34
 925 220 925 220 812.5 100 c 128,-1,35
 700 -20 700 -20 530 -20 c 256,36,37
 360 -20 360 -20 249.5 100 c 128,-1,38
 139 220 139 220 139 479 c 2,39,-1
 139 1103 l 2,0,1
EndSplineSet
EndChar
StartChar: hv
Encoding: 405 405 342
Width: 1060
GlyphClass: 2
Flags: W
LayerCount: 2
Fore
SplineSet
959 573 m 2,0,1
 959 -20 959 -20 662 -20 c 0,2,3
 453 -20 453 -20 453 317 c 2,4,-1
 453 905 l 2,5,6
 453 1046 453 1046 385 1046 c 0,7,8
 308 1046 308 1046 255 939 c 1,9,-1
 255 0 l 1,10,-1
 101 0 l 1,11,-1
 101 1580 l 1,12,-1
 255 1580 l 1,13,-1
 255 1057 l 1,14,15
 333 1194 333 1194 438 1194 c 0,16,17
 607 1194 607 1194 607 893 c 2,18,-1
 607 269 l 2,19,20
 607 128 607 128 675 128 c 0,21,22
 805 128 805 128 805 487 c 2,23,-1
 805 1172 l 1,24,-1
 959 1172 l 1,25,-1
 959 573 l 2,0,1
EndSplineSet
EndChar
StartChar: Iotaafrican
Encoding: 406 406 343
Width: 1060
GlyphClass: 2
Flags: W
LayerCount: 2
Fore
SplineSet
303 1580 m 1,0,-1
 480 1580 l 1,1,-1
 480 430 l 2,2,3
 480 280 480 280 541.5 218 c 128,-1,4
 603 156 603 156 689 156 c 2,5,-1
 900 156 l 1,6,-1
 900 0 l 1,7,-1
 688 0 l 2,8,9
 529 0 529 0 416 114 c 128,-1,10
 303 228 303 228 303 485 c 2,11,-1
 303 1580 l 1,0,-1
EndSplineSet
EndChar
StartChar: Khook
Encoding: 408 408 345
Width: 1060
GlyphClass: 2
Flags: W
LayerCount: 2
Fore
SplineSet
550 922 m 1,0,-1
 807 487 l 2,1,2
 965 220 965 220 974 70 c 2,3,-1
 978 0 l 1,4,-1
 802 0 l 1,5,-1
 799 55 l 2,6,7
 791 194 791 194 668 401 c 2,8,-1
 449 769 l 1,9,-1
 334 539 l 1,10,-1
 334 0 l 1,11,-1
 158 0 l 1,12,-1
 158 1580 l 1,13,-1
 334 1580 l 1,14,-1
 334 840 l 1,15,-1
 597 1366 l 2,16,17
 702 1580 702 1580 930 1580 c 2,18,-1
 997 1580 l 1,19,-1
 997 1433 l 1,20,-1
 930 1433 l 2,21,22
 808 1433 808 1433 750 1317 c 2,23,-1
 550 922 l 1,0,-1
EndSplineSet
EndChar
StartChar: khook
Encoding: 409 409 346
Width: 1060
GlyphClass: 2
Flags: W
LayerCount: 2
Fore
SplineSet
185 0 m 1,0,-1
 185 1201 l 2,1,2
 185 1381 185 1381 283 1480.5 c 128,-1,3
 381 1580 381 1580 549 1580 c 2,4,-1
 626 1580 l 1,5,-1
 626 1433 l 1,6,-1
 549 1433 l 2,7,8
 443 1433 443 1433 402 1380 c 128,-1,9
 361 1327 361 1327 361 1211 c 2,10,-1
 361 609 l 1,11,-1
 620 928 l 2,12,13
 749 1087 749 1087 753 1172 c 1,14,-1
 929 1172 l 1,15,-1
 927 1134 l 2,16,17
 921 1041 921 1041 752 834 c 2,18,-1
 611 661 l 1,19,-1
 793 397 l 2,20,21
 960 156 960 156 967 41 c 2,22,-1
 970 0 l 1,23,-1
 794 0 l 1,24,25
 786 129 786 129 667 301 c 2,26,-1
 492 552 l 1,27,-1
 361 392 l 1,28,-1
 361 0 l 1,29,-1
 185 0 l 1,0,-1
EndSplineSet
EndChar
StartChar: lbar
Encoding: 410 410 347
Width: 1060
GlyphClass: 2
Flags: W
LayerCount: 2
Fore
SplineSet
825 785 m 1,0,-1
 629 785 l 1,1,-1
 629 157 l 1,2,-1
 880 157 l 1,3,-1
 880 0 l 1,4,-1
 200 0 l 1,5,-1
 200 157 l 1,6,-1
 452 157 l 1,7,-1
 452 785 l 1,8,-1
 254 785 l 1,9,-1
 254 919 l 1,10,-1
 452 919 l 1,11,-1
 452 1424 l 1,12,-1
 240 1424 l 1,13,-1
 240 1580 l 1,14,-1
 629 1580 l 1,15,-1
 629 919 l 1,16,-1
 825 919 l 1,17,-1
 825 785 l 1,0,-1
EndSplineSet
EndChar
StartChar: Mturned
Encoding: 412 412 349
Width: 1060
GlyphClass: 2
Flags: W
LayerCount: 2
Fore
SplineSet
101 1580 m 1,0,-1
 255 1580 l 1,1,-1
 255 267 l 2,2,3
 258 126 258 126 326 126 c 0,4,5
 406 126 406 126 453 233 c 1,6,-1
 453 1580 l 1,7,-1
 607 1580 l 1,8,-1
 607 267 l 2,9,10
 609 126 609 126 675 126 c 0,11,12
 752 126 752 126 805 233 c 1,13,-1
 805 1580 l 1,14,-1
 959 1580 l 1,15,-1
 959 0 l 1,16,-1
 805 0 l 1,17,-1
 805 115 l 1,18,19
 727 -22 727 -22 622 -22 c 0,20,21
 513 -22 513 -22 472 108 c 1,22,23
 396 -22 396 -22 286 -22 c 0,24,25
 101 -22 101 -22 101 279 c 2,26,-1
 101 1580 l 1,0,-1
EndSplineSet
EndChar
StartChar: Nhookleft
Encoding: 413 413 350
Width: 1060
GlyphClass: 2
Flags: W
LayerCount: 2
Fore
SplineSet
150 -78 m 2,0,-1
 150 1580 l 1,1,-1
 326 1580 l 1,2,-1
 770 724 l 1,3,-1
 734 1531 l 1,4,-1
 734 1580 l 1,5,-1
 910 1580 l 1,6,-1
 910 0 l 1,7,-1
 748 0 l 1,8,-1
 734 478 l 1,9,-1
 311 1279 l 1,10,-1
 326 527 l 1,11,-1
 326 -78 l 2,12,13
 326 -227 326 -227 248 -296 c 128,-1,14
 170 -365 170 -365 58 -365 c 2,15,-1
 -37 -365 l 1,16,-1
 -37 -218 l 1,17,-1
 41 -218 l 2,18,19
 85 -218 85 -218 117.5 -191 c 128,-1,20
 150 -164 150 -164 150 -78 c 2,0,-1
EndSplineSet
EndChar
StartChar: Obar
Encoding: 415 415 352
Width: 1060
GlyphClass: 2
Flags: W
LayerCount: 2
Fore
SplineSet
132 479 m 2,0,-1
 132 1103 l 2,1,2
 132 1362 132 1362 240 1482 c 128,-1,3
 348 1602 348 1602 530 1602 c 0,4,5
 702 1602 702 1602 815 1482 c 128,-1,6
 928 1362 928 1362 928 1103 c 2,7,-1
 928 479 l 2,8,9
 928 220 928 220 815 100 c 128,-1,10
 702 -20 702 -20 530 -20 c 0,11,12
 348 -19 348 -19 240 100.5 c 128,-1,13
 132 220 132 220 132 479 c 2,0,-1
309 479 m 2,14,15
 309 284 309 284 369.5 212 c 128,-1,16
 430 140 430 140 529 140 c 256,17,18
 628 140 628 140 689.5 212.5 c 128,-1,19
 751 285 751 285 751 479 c 2,20,-1
 751 766 l 1,21,-1
 309 766 l 1,22,-1
 309 479 l 2,14,15
751 1103 m 2,23,24
 751 1297 751 1297 689.5 1369.5 c 128,-1,25
 628 1442 628 1442 529 1442 c 256,26,27
 430 1442 430 1442 369.5 1370 c 128,-1,28
 309 1298 309 1298 309 1103 c 2,29,-1
 309 920 l 1,30,-1
 751 920 l 1,31,-1
 751 1103 l 2,23,24
EndSplineSet
EndChar
StartChar: Ohorn
Encoding: 416 416 353
Width: 1060
GlyphClass: 2
Flags: W
LayerCount: 2
Fore
SplineSet
903 1748 m 1,0,-1
 1060 1748 l 1,1,-1
 1060 1628 l 2,2,3
 1060 1516 1060 1516 991 1438 c 0,4,5
 933 1372 933 1372 814 1362 c 1,6,7
 848 1260 848 1260 848 1103 c 2,8,-1
 848 479 l 2,9,10
 848 220 848 220 750 100 c 128,-1,11
 652 -20 652 -20 480 -20 c 256,12,13
 308 -20 308 -20 210 100 c 128,-1,14
 112 220 112 220 112 479 c 2,15,-1
 112 1103 l 2,16,17
 112 1362 112 1362 210 1482 c 128,-1,18
 308 1602 308 1602 480 1602 c 0,19,20
 677 1602 677 1602 775 1446 c 1,21,22
 903 1444 903 1444 903 1617 c 2,23,-1
 903 1748 l 1,0,-1
289 479 m 2,24,25
 289 282 289 282 334.5 211 c 128,-1,26
 380 140 380 140 479 140 c 256,27,28
 578 140 578 140 624.5 211 c 128,-1,29
 671 282 671 282 671 479 c 2,30,-1
 671 1103 l 2,31,32
 671 1297 671 1297 624.5 1369.5 c 128,-1,33
 578 1442 578 1442 479 1442 c 256,34,35
 380 1442 380 1442 334.5 1370 c 128,-1,36
 289 1298 289 1298 289 1103 c 2,37,-1
 289 479 l 2,24,25
EndSplineSet
EndChar
StartChar: ohorn
Encoding: 417 417 354
Width: 1060
GlyphClass: 2
Flags: W
LayerCount: 2
Fore
SplineSet
895 507 m 2,0,1
 895 238 895 238 784.5 109 c 128,-1,2
 674 -20 674 -20 500 -20 c 256,3,4
 326 -20 326 -20 216 109 c 128,-1,5
 106 238 106 238 106 507 c 2,6,-1
 106 667 l 2,7,8
 106 936 106 936 216 1065 c 128,-1,9
 326 1194 326 1194 500 1194 c 0,10,11
 687 1194 687 1194 797 1048 c 1,12,13
 847 1057 847 1057 866 1088 c 0,14,15
 893 1132 893 1132 893 1216 c 2,16,-1
 893 1347 l 1,17,-1
 1040 1347 l 1,18,-1
 1040 1227 l 2,19,20
 1040 1115 1040 1115 971 1037 c 0,21,22
 925 985 925 985 844 967 c 1,23,24
 895 849 895 849 895 667 c 2,25,-1
 895 507 l 2,0,1
719 507 m 2,26,-1
 719 667 l 2,27,28
 719 875 719 875 657.5 954.5 c 128,-1,29
 596 1034 596 1034 500 1034 c 256,30,31
 404 1034 404 1034 343 954.5 c 128,-1,32
 282 875 282 875 282 667 c 2,33,-1
 282 507 l 2,34,35
 282 299 282 299 343 219.5 c 128,-1,36
 404 140 404 140 500 140 c 256,37,38
 596 140 596 140 657.5 219.5 c 128,-1,39
 719 299 719 299 719 507 c 2,26,-1
EndSplineSet
EndChar
StartChar: OI
Encoding: 418 418 355
Width: 1060
GlyphClass: 2
Flags: W
LayerCount: 2
Fore
SplineSet
648 1407 m 1,0,1
 679 1321 679 1321 679 1204 c 2,2,-1
 679 378 l 2,3,4
 679 199 679 199 606.5 89.5 c 128,-1,5
 534 -20 534 -20 387 -20 c 0,6,7
 242 -19 242 -19 169.5 90 c 128,-1,8
 97 199 97 199 97 378 c 2,9,-1
 97 1204 l 2,10,11
 97 1383 97 1383 169.5 1492.5 c 128,-1,12
 242 1602 242 1602 387 1602 c 0,13,14
 529 1602 529 1602 599 1502 c 1,15,16
 672 1602 672 1602 782 1602 c 0,17,18
 967 1602 967 1602 967 1301 c 2,19,-1
 967 -365 l 1,20,-1
 811 -365 l 1,21,-1
 811 1313 l 2,22,23
 811 1454 811 1454 735 1454 c 0,24,25
 685 1454 685 1454 648 1407 c 1,0,1
254 365 m 2,26,27
 254 139 254 139 387 136 c 0,28,29
 522 136 522 136 522 365 c 2,30,-1
 522 1217 l 2,31,32
 522 1445 522 1445 388 1445 c 256,33,34
 254 1445 254 1445 254 1217 c 2,35,-1
 254 365 l 2,26,27
EndSplineSet
EndChar
StartChar: oi
Encoding: 419 419 356
Width: 1060
GlyphClass: 2
Flags: W
LayerCount: 2
Fore
SplineSet
648 999 m 1,0,1
 679 913 679 913 679 796 c 2,2,-1
 679 378 l 2,3,4
 679 199 679 199 606.5 89.5 c 128,-1,5
 534 -20 534 -20 387 -20 c 0,6,7
 242 -19 242 -19 169.5 90 c 128,-1,8
 97 199 97 199 97 378 c 2,9,-1
 97 796 l 2,10,11
 97 975 97 975 169.5 1084.5 c 128,-1,12
 242 1194 242 1194 387 1194 c 0,13,14
 529 1194 529 1194 599 1094 c 1,15,16
 672 1194 672 1194 782 1194 c 0,17,18
 967 1194 967 1194 967 893 c 2,19,-1
 967 -365 l 1,20,-1
 811 -365 l 1,21,-1
 811 905 l 2,22,23
 811 1046 811 1046 735 1046 c 0,24,25
 685 1046 685 1046 648 999 c 1,0,1
254 365 m 2,26,27
 254 139 254 139 387 136 c 0,28,29
 522 136 522 136 522 365 c 2,30,-1
 522 809 l 2,31,32
 522 1037 522 1037 388 1037 c 256,33,34
 254 1037 254 1037 254 809 c 2,35,-1
 254 365 l 2,26,27
EndSplineSet
EndChar
StartChar: Phook
Encoding: 420 420 357
Width: 1060
GlyphClass: 2
Flags: W
LayerCount: 2
Fore
SplineSet
509 0 m 1,0,-1
 333 0 l 1,1,-1
 333 1430 l 1,2,-1
 319 1430 l 2,3,4
 252 1430 252 1430 225 1396.5 c 128,-1,5
 198 1363 198 1363 198 1292 c 2,6,-1
 198 1172 l 1,7,-1
 51 1172 l 1,8,-1
 51 1292 l 2,9,10
 51 1424 51 1424 120 1502 c 0,11,12
 185 1576 185 1576 333 1580 c 1,13,-1
 557 1580 l 2,14,15
 768 1580 768 1580 875.5 1465.5 c 128,-1,16
 983 1351 983 1351 983 1160 c 0,17,18
 983 946 983 946 865 831.5 c 128,-1,19
 747 717 747 717 557 717 c 2,20,-1
 509 717 l 1,21,-1
 509 0 l 1,0,-1
509 867 m 1,22,-1
 556 867 l 2,23,24
 678 867 678 867 739.5 929 c 128,-1,25
 801 991 801 991 801 1160 c 0,26,27
 801 1306 801 1306 744.5 1368 c 128,-1,28
 688 1430 688 1430 556 1430 c 2,29,-1
 509 1430 l 1,30,-1
 509 867 l 1,22,-1
EndSplineSet
EndChar
StartChar: uni01A5
Encoding: 421 421 358
Width: 1060
GlyphClass: 2
Flags: W
LayerCount: 2
Fore
SplineSet
342 1223 m 2,0,-1
 342 967 l 1,1,2
 454 1119 454 1119 604 1119 c 0,3,4
 734 1119 734 1119 834.5 1006.5 c 128,-1,5
 935 894 935 894 935 624 c 2,6,-1
 935 474 l 2,7,8
 935 205 935 205 834.5 92.5 c 128,-1,9
 734 -20 734 -20 604 -20 c 0,10,11
 454 -20 454 -20 342 131 c 1,12,-1
 342 -365 l 1,13,-1
 166 -365 l 1,14,-1
 166 1222 l 2,15,16
 166 1383 166 1383 270.5 1492.5 c 128,-1,17
 375 1602 375 1602 540 1602 c 0,18,19
 760 1602 760 1602 907 1386 c 1,20,-1
 772 1292 l 1,21,22
 685 1445 685 1445 541 1445 c 0,23,24
 466 1445 466 1445 404 1392 c 128,-1,25
 342 1339 342 1339 342 1223 c 2,0,-1
759 463 m 2,26,-1
 759 635 l 2,27,28
 759 831 759 831 712 896 c 128,-1,29
 665 961 665 961 561 961 c 0,30,31
 436 961 436 961 342 829 c 1,32,-1
 342 269 l 1,33,34
 437 136 437 136 561 136 c 0,35,36
 665 136 665 136 712 201.5 c 128,-1,37
 759 267 759 267 759 463 c 2,26,-1
EndSplineSet
EndChar
StartChar: YR
Encoding: 422 422 359
Width: 1060
GlyphClass: 2
Flags: W
LayerCount: 2
Fore
SplineSet
498 510 m 1,0,-1
 353 510 l 1,1,-1
 353 0 l 1,2,-1
 177 0 l 1,3,-1
 177 1580 l 1,4,-1
 353 1580 l 1,5,-1
 353 1302 l 1,6,-1
 522 1302 l 2,7,8
 732 1302 732 1302 834.5 1193 c 128,-1,9
 937 1084 937 1084 937 912 c 0,10,11
 937 783 937 783 872.5 681 c 128,-1,12
 808 579 808 579 673 529 c 1,13,-1
 832 209 l 2,14,15
 954 -38 954 -38 965 -208 c 2,16,-1
 969 -278 l 1,17,-1
 793 -278 l 1,18,-1
 790 -223 l 2,19,20
 779 -53 779 -53 693 123 c 2,21,-1
 498 510 l 1,0,-1
755 913 m 0,22,23
 755 1032 755 1032 699 1092 c 128,-1,24
 643 1152 643 1152 521 1152 c 2,25,-1
 353 1152 l 1,26,-1
 353 660 l 1,27,-1
 520 660 l 2,28,29
 637 660 637 660 696 725.5 c 128,-1,30
 755 791 755 791 755 913 c 0,22,23
EndSplineSet
EndChar
StartChar: Tonetwo
Encoding: 423 423 360
Width: 1060
GlyphClass: 2
Flags: W
LayerCount: 2
Fore
SplineSet
111 369 m 0,0,1
 111 547 111 547 277 704 c 2,2,-1
 615 1019 l 2,3,4
 708 1105 708 1105 708 1223 c 0,5,6
 708 1336 708 1336 646.5 1389 c 128,-1,7
 585 1442 585 1442 493 1442 c 0,8,9
 332 1442 332 1442 245 1280 c 1,10,-1
 110 1386 l 1,11,12
 257 1602 257 1602 494 1602 c 0,13,14
 676 1602 676 1602 780.5 1492.5 c 128,-1,15
 885 1383 885 1383 885 1222 c 0,16,17
 885 1020 885 1020 743 886 c 2,18,-1
 404 569 l 2,19,20
 288 460 288 460 288 368 c 0,21,22
 288 255 288 255 355 197.5 c 128,-1,23
 422 140 422 140 515 140 c 0,24,25
 717 140 717 140 820 339 c 1,26,-1
 950 240 l 1,27,28
 813 -20 813 -20 514 -20 c 0,29,30
 325 -20 325 -20 218 94 c 128,-1,31
 111 208 111 208 111 369 c 0,0,1
EndSplineSet
EndChar
StartChar: tonetwo
Encoding: 424 424 361
Width: 1060
GlyphClass: 2
Flags: W
LayerCount: 2
Fore
SplineSet
143 977 m 1,0,1
 269 1194 269 1194 504 1194 c 0,2,3
 667 1194 667 1194 770.5 1099.5 c 128,-1,4
 874 1005 874 1005 874 861 c 0,5,6
 874 677 874 677 664 578 c 2,7,-1
 439 474 l 2,8,9
 313 417 313 417 313 315 c 0,10,11
 313 240 313 240 369.5 188 c 128,-1,12
 426 136 426 136 536 136 c 0,13,14
 712 136 712 136 798 307 c 1,15,-1
 943 219 l 1,16,17
 797 -20 797 -20 538 -20 c 0,18,19
 353 -20 353 -20 245 78 c 128,-1,20
 137 176 137 176 137 306 c 0,21,22
 137 527 137 527 368 634 c 2,23,-1
 581 733 l 2,24,25
 698 789 698 789 698 879 c 0,26,27
 698 946 698 946 646 991.5 c 128,-1,28
 594 1037 594 1037 504 1037 c 0,29,30
 353 1037 353 1037 287 890 c 1,31,-1
 143 977 l 1,0,1
EndSplineSet
EndChar
StartChar: tpalatalhook
Encoding: 427 427 363
Width: 1060
GlyphClass: 2
Flags: W
LayerCount: 2
Fore
SplineSet
768 156 m 1,0,-1
 915 156 l 1,1,-1
 915 -97 l 2,2,3
 915 -209 915 -209 846 -287 c 128,-1,4
 777 -365 777 -365 648 -365 c 2,5,-1
 621 -365 l 1,6,-1
 621 -207 l 1,7,-1
 647 -207 l 2,8,9
 714 -207 714 -207 741 -174.5 c 128,-1,10
 768 -142 768 -142 768 -98 c 2,11,-1
 768 0 l 1,12,-1
 666 0 l 2,13,14
 510 0 510 0 417 93 c 128,-1,15
 324 186 324 186 324 367 c 2,16,-1
 324 1015 l 1,17,-1
 127 1015 l 1,18,-1
 127 1172 l 1,19,-1
 324 1172 l 1,20,-1
 324 1580 l 1,21,-1
 501 1580 l 1,22,-1
 501 1172 l 1,23,-1
 896 1172 l 1,24,-1
 896 1015 l 1,25,-1
 501 1015 l 1,26,-1
 501 355 l 2,27,28
 501 249 501 249 542 202.5 c 128,-1,29
 583 156 583 156 676 156 c 2,30,-1
 768 156 l 1,0,-1
EndSplineSet
EndChar
StartChar: Thook
Encoding: 428 428 364
Width: 1060
GlyphClass: 2
Flags: W
LayerCount: 2
Fore
SplineSet
208 1172 m 1,0,-1
 61 1172 l 1,1,-1
 61 1312 l 2,2,3
 61 1424 61 1424 130 1502 c 128,-1,4
 199 1580 199 1580 328 1580 c 2,5,-1
 943 1580 l 1,6,-1
 943 1424 l 1,7,-1
 618 1424 l 1,8,-1
 618 0 l 1,9,-1
 441 0 l 1,10,-1
 441 1424 l 1,11,-1
 329 1424 l 2,12,13
 262 1424 262 1424 235 1390.5 c 128,-1,14
 208 1357 208 1357 208 1313 c 2,15,-1
 208 1172 l 1,0,-1
EndSplineSet
EndChar
StartChar: thook
Encoding: 429 429 365
Width: 1060
GlyphClass: 2
Flags: W
LayerCount: 2
Fore
SplineSet
500 1225 m 2,0,-1
 500 1092 l 1,1,-1
 896 1092 l 1,2,-1
 896 935 l 1,3,-1
 500 935 l 1,4,-1
 500 335 l 2,5,6
 500 229 500 229 541.5 182.5 c 128,-1,7
 583 136 583 136 656 136 c 0,8,9
 779 136 779 136 842 261 c 1,10,-1
 975 164 l 1,11,12
 852 -20 852 -20 646 -20 c 0,13,14
 510 -20 510 -20 417 73 c 128,-1,15
 324 166 324 166 324 347 c 2,16,-1
 324 935 l 1,17,-1
 127 935 l 1,18,-1
 127 1092 l 1,19,-1
 324 1092 l 1,20,-1
 324 1201 l 2,21,22
 324 1381 324 1381 422 1480.5 c 128,-1,23
 520 1580 520 1580 688 1580 c 2,24,-1
 765 1580 l 1,25,-1
 765 1433 l 1,26,-1
 688 1433 l 2,27,28
 591 1433 591 1433 545.5 1385 c 128,-1,29
 500 1337 500 1337 500 1225 c 2,0,-1
EndSplineSet
EndChar
StartChar: Trthook
Encoding: 430 430 366
Width: 1060
GlyphClass: 2
Flags: W
LayerCount: 2
Fore
SplineSet
442 1424 m 1,0,-1
 117 1424 l 1,1,-1
 117 1580 l 1,2,-1
 943 1580 l 1,3,-1
 943 1424 l 1,4,-1
 618 1424 l 1,5,-1
 618 -10 l 2,6,7
 618 -122 618 -122 663.5 -170 c 128,-1,8
 709 -218 709 -218 806 -218 c 2,9,-1
 883 -218 l 1,10,-1
 883 -365 l 1,11,-1
 806 -365 l 2,12,13
 638 -365 638 -365 540 -265.5 c 128,-1,14
 442 -166 442 -166 442 14 c 2,15,-1
 442 1424 l 1,0,-1
EndSplineSet
EndChar
StartChar: Uhorn
Encoding: 431 431 367
Width: 1060
GlyphClass: 2
Flags: W
LayerCount: 2
Fore
SplineSet
913 1748 m 1,0,-1
 1060 1748 l 1,1,-1
 1060 1628 l 2,2,3
 1060 1516 1060 1516 991 1438 c 0,4,5
 925 1363 925 1363 785 1360 c 1,6,-1
 785 444 l 2,7,8
 785 198 785 198 697 89 c 128,-1,9
 609 -20 609 -20 450 -20 c 256,10,11
 291 -20 291 -20 203 89 c 128,-1,12
 115 198 115 198 115 444 c 2,13,-1
 115 1580 l 1,14,-1
 281 1580 l 1,15,-1
 281 379 l 2,16,17
 281 250 281 250 322 193 c 128,-1,18
 363 136 363 136 449 136 c 256,19,20
 535 136 535 136 576.5 193 c 128,-1,21
 618 250 618 250 618 379 c 2,22,-1
 618 1580 l 1,23,-1
 785 1580 l 1,24,-1
 785 1446 l 1,25,26
 861 1449 861 1449 886 1489 c 0,27,28
 913 1533 913 1533 913 1617 c 2,29,-1
 913 1748 l 1,0,-1
EndSplineSet
EndChar
StartChar: uhorn
Encoding: 432 432 368
Width: 1060
GlyphClass: 2
Flags: W
LayerCount: 2
Fore
SplineSet
913 1347 m 1,0,-1
 1060 1347 l 1,1,-1
 1060 1227 l 2,2,3
 1060 1115 1060 1115 991 1037 c 0,4,5
 924 962 924 962 784 959 c 1,6,-1
 784 0 l 1,7,-1
 618 0 l 1,8,-1
 618 132 l 1,9,10
 515 -20 515 -20 366 -20 c 0,11,12
 115 -20 115 -20 115 383 c 2,13,-1
 115 1172 l 1,14,-1
 281 1172 l 1,15,-1
 281 383 l 2,16,17
 281 137 281 137 410 137 c 0,18,19
 537 137 537 137 618 270 c 1,20,-1
 618 1172 l 1,21,-1
 784 1172 l 1,22,-1
 784 1045 l 1,23,24
 861 1048 861 1048 886 1088 c 0,25,26
 913 1132 913 1132 913 1216 c 2,27,-1
 913 1347 l 1,0,-1
EndSplineSet
EndChar
StartChar: Upsilonafrican
Encoding: 433 433 369
Width: 1060
GlyphClass: 2
Flags: W
LayerCount: 2
Fore
SplineSet
531 135 m 2,0,1
 620 135 620 135 680.5 196.5 c 128,-1,2
 741 258 741 258 741 431 c 2,3,-1
 741 1006 l 2,4,5
 741 1260 741 1260 603 1358 c 1,6,-1
 603 1580 l 1,7,-1
 930 1580 l 1,8,-1
 930 1425 l 1,9,-1
 721 1425 l 1,10,11
 918 1304 918 1304 918 956 c 2,12,-1
 918 506 l 2,13,14
 918 207 918 207 805 92.5 c 128,-1,15
 692 -22 692 -22 530 -22 c 256,16,17
 368 -22 368 -22 255 92.5 c 128,-1,18
 142 207 142 207 142 506 c 2,19,-1
 142 956 l 2,20,21
 142 1304 142 1304 339 1425 c 1,22,-1
 130 1425 l 1,23,-1
 130 1580 l 1,24,-1
 457 1580 l 1,25,-1
 457 1358 l 1,26,27
 319 1260 319 1260 319 1006 c 2,28,-1
 319 431 l 2,29,30
 319 258 319 258 379.5 196.5 c 128,-1,31
 440 135 440 135 529 135 c 2,32,-1
 531 135 l 2,0,1
EndSplineSet
EndChar
StartChar: Vcursive
Encoding: 434 434 370
Width: 1060
GlyphClass: 2
Flags: W
LayerCount: 2
Fore
SplineSet
446 1512 m 1,0,1
 534 1602 534 1602 651 1602 c 0,2,3
 777 1602 777 1602 861 1509 c 128,-1,4
 945 1416 945 1416 945 1260 c 2,5,-1
 945 783 l 2,6,7
 945 398 945 398 802.5 189 c 128,-1,8
 660 -20 660 -20 461 -20 c 0,9,10
 292 -20 292 -20 203.5 94 c 128,-1,11
 115 208 115 208 115 424 c 2,12,-1
 115 1580 l 1,13,-1
 291 1580 l 1,14,-1
 291 365 l 2,15,16
 291 240 291 240 339 188 c 128,-1,17
 387 136 387 136 461 136 c 0,18,19
 585 136 585 136 676.5 285 c 128,-1,20
 768 434 768 434 768 743 c 2,21,-1
 768 1250 l 2,22,23
 768 1446 768 1446 642 1446 c 0,24,25
 575 1446 575 1446 523 1389 c 1,26,-1
 446 1512 l 1,0,1
EndSplineSet
EndChar
StartChar: Yhook
Encoding: 435 435 371
Width: 1060
GlyphClass: 2
Flags: W
LayerCount: 2
Fore
SplineSet
422 0 m 1,0,-1
 422 673 l 1,1,-1
 252 983 l 2,2,3
 78 1300 78 1300 78 1507 c 2,4,-1
 78 1580 l 1,5,-1
 254 1580 l 1,6,-1
 254 1507 l 2,7,8
 254 1329 254 1329 386 1072 c 2,9,-1
 505 834 l 1,10,-1
 652 1334 l 2,11,12
 723 1580 723 1580 950 1580 c 2,13,-1
 1007 1580 l 1,14,-1
 1007 1433 l 1,15,-1
 950 1433 l 2,16,17
 847 1433 847 1433 814 1321 c 2,18,-1
 598 607 l 1,19,-1
 598 0 l 1,20,-1
 422 0 l 1,0,-1
EndSplineSet
EndChar
StartChar: uni01B4
Encoding: 436 436 372
Width: 1060
GlyphClass: 2
Flags: W
LayerCount: 2
Fore
SplineSet
294 -365 m 1,0,-1
 296 -331 l 2,1,2
 300 -267 300 -267 329 -166 c 2,3,-1
 434 194 l 1,4,-1
 205 758 l 2,5,6
 118 973 118 973 111 1082 c 2,7,-1
 106 1172 l 1,8,-1
 282 1172 l 1,9,-1
 287 1088 l 2,10,11
 291 1017 291 1017 368 808 c 2,12,-1
 504 437 l 1,13,-1
 646 927 l 2,14,15
 717 1172 717 1172 950 1172 c 2,16,-1
 1007 1172 l 1,17,-1
 1007 1025 l 1,18,-1
 950 1025 l 2,19,20
 839 1025 839 1025 806 914 c 2,21,-1
 488 -183 l 2,22,23
 466 -259 466 -259 462 -331 c 2,24,-1
 460 -365 l 1,25,-1
 294 -365 l 1,0,-1
EndSplineSet
EndChar
StartChar: Zbar
Encoding: 437 437 373
Width: 1060
GlyphClass: 2
Flags: W
LayerCount: 2
Fore
SplineSet
944 0 m 1,0,-1
 155 0 l 1,1,-1
 155 150 l 1,2,-1
 444 777 l 1,3,-1
 277 777 l 1,4,-1
 277 911 l 1,5,-1
 506 911 l 1,6,-1
 746 1430 l 1,7,-1
 155 1430 l 1,8,-1
 155 1580 l 1,9,-1
 934 1580 l 1,10,-1
 934 1430 l 1,11,-1
 694 911 l 1,12,-1
 848 911 l 1,13,-1
 848 777 l 1,14,-1
 632 777 l 1,15,-1
 343 150 l 1,16,-1
 944 150 l 1,17,-1
 944 0 l 1,0,-1
EndSplineSet
EndChar
StartChar: zbar
Encoding: 438 438 374
Width: 1060
GlyphClass: 2
Flags: W
LayerCount: 2
Fore
SplineSet
940 0 m 1,0,-1
 152 0 l 1,1,-1
 152 150 l 1,2,-1
 410 548 l 1,3,-1
 256 548 l 1,4,-1
 256 682 l 1,5,-1
 497 682 l 1,6,-1
 718 1022 l 1,7,-1
 161 1022 l 1,8,-1
 161 1172 l 1,9,-1
 918 1172 l 1,10,-1
 918 1022 l 1,11,-1
 697 682 l 1,12,-1
 827 682 l 1,13,-1
 827 548 l 1,14,-1
 610 548 l 1,15,-1
 352 150 l 1,16,-1
 940 150 l 1,17,-1
 940 0 l 1,0,-1
EndSplineSet
EndChar
StartChar: Ezh
Encoding: 439 439 375
Width: 1060
GlyphClass: 2
Flags: W
LayerCount: 2
Fore
SplineSet
735 486 m 0,0,1
 735 638 735 638 664 723.5 c 128,-1,2
 593 809 593 809 434 809 c 2,3,-1
 307 809 l 1,4,-1
 307 946 l 1,5,-1
 696 1423 l 1,6,-1
 154 1423 l 1,7,-1
 154 1580 l 1,8,-1
 880 1580 l 1,9,-1
 880 1397 l 1,10,-1
 515 957 l 1,11,12
 912 910 912 910 912 486 c 0,13,14
 912 228 912 228 794 104 c 128,-1,15
 676 -20 676 -20 495 -20 c 0,16,17
 223 -20 223 -20 77 240 c 1,18,-1
 221 336 l 1,19,20
 295 140 295 140 494 140 c 0,21,22
 597 140 597 140 666 212 c 128,-1,23
 735 284 735 284 735 486 c 0,0,1
EndSplineSet
EndChar
StartChar: Ezhreversed
Encoding: 440 440 376
Width: 1060
GlyphClass: 2
Flags: W
LayerCount: 2
Fore
SplineSet
325 486 m 0,0,1
 325 284 325 284 394 212 c 128,-1,2
 463 140 463 140 566 140 c 0,3,4
 765 140 765 140 839 336 c 1,5,-1
 983 240 l 1,6,7
 837 -20 837 -20 565 -20 c 0,8,9
 384 -20 384 -20 266 104 c 128,-1,10
 148 228 148 228 148 486 c 0,11,12
 148 900 148 900 545 957 c 1,13,-1
 210 1397 l 1,14,-1
 210 1580 l 1,15,-1
 936 1580 l 1,16,-1
 936 1423 l 1,17,-1
 394 1423 l 1,18,-1
 753 946 l 1,19,-1
 753 809 l 1,20,-1
 626 809 l 2,21,22
 467 809 467 809 396 718.5 c 128,-1,23
 325 628 325 628 325 486 c 0,0,1
EndSplineSet
EndChar
StartChar: ezhreversed
Encoding: 441 441 377
Width: 1060
GlyphClass: 2
Flags: W
LayerCount: 2
Fore
SplineSet
148 76 m 0,0,1
 148 489 148 489 550 583 c 1,2,-1
 210 989 l 1,3,-1
 210 1172 l 1,4,-1
 936 1172 l 1,5,-1
 936 1015 l 1,6,-1
 394 1015 l 1,7,-1
 753 582 l 1,8,-1
 753 445 l 1,9,-1
 716 445 l 2,10,11
 325 445 325 445 325 76 c 0,12,13
 325 -71 325 -71 394 -143 c 128,-1,14
 463 -215 463 -215 566 -215 c 0,15,16
 765 -215 765 -215 839 -19 c 1,17,-1
 983 -115 l 1,18,19
 837 -375 837 -375 565 -375 c 0,20,21
 384 -375 384 -375 266 -251 c 128,-1,22
 148 -127 148 -127 148 76 c 0,0,1
EndSplineSet
EndChar
StartChar: twostroke
Encoding: 443 443 378
Width: 1060
GlyphClass: 2
Flags: W
LayerCount: 2
Fore
SplineSet
916 0 m 1,0,-1
 184 0 l 1,1,-1
 184 150 l 2,2,3
 184 388 184 388 405 677 c 1,4,-1
 257 677 l 1,5,-1
 257 811 l 1,6,-1
 510 811 l 1,7,-1
 652 993 l 1,8,9
 739 1092 739 1092 739 1213 c 0,10,11
 739 1329 739 1329 683 1385.5 c 128,-1,12
 627 1442 627 1442 530 1442 c 0,13,14
 362 1442 362 1442 289 1240 c 1,15,-1
 144 1341 l 1,16,17
 279 1602 279 1602 530 1602 c 0,18,19
 690 1602 690 1602 803 1492 c 128,-1,20
 916 1382 916 1382 916 1212 c 0,21,22
 916 1030 916 1030 781 874 c 1,23,-1
 732 811 l 1,24,-1
 878 811 l 1,25,-1
 878 677 l 1,26,-1
 627 677 l 1,27,-1
 550 578 l 2,28,29
 360 334 360 334 360 150 c 1,30,-1
 916 150 l 1,31,-1
 916 0 l 1,0,-1
EndSplineSet
EndChar
StartChar: tonefive
Encoding: 445 445 380
Width: 1060
GlyphClass: 2
Flags: W
LayerCount: 2
Fore
SplineSet
139 240 m 1,0,-1
 273 320 l 1,1,2
 347 136 347 136 525 136 c 0,3,4
 621 136 621 136 682.5 193 c 128,-1,5
 744 250 744 250 744 376 c 0,6,7
 744 498 744 498 683.5 554.5 c 128,-1,8
 623 611 623 611 494 611 c 2,9,-1
 220 611 l 1,10,-1
 220 1172 l 1,11,-1
 858 1172 l 1,12,-1
 858 1016 l 1,13,-1
 396 1016 l 1,14,-1
 396 768 l 1,15,-1
 505 768 l 2,16,17
 717 768 717 768 819 664.5 c 128,-1,18
 921 561 921 561 921 376 c 0,19,20
 921 198 921 198 808 89 c 128,-1,21
 695 -20 695 -20 526 -20 c 0,22,23
 264 -20 264 -20 139 240 c 1,0,-1
EndSplineSet
EndChar
StartChar: wynn
Encoding: 447 447 381
Width: 1060
GlyphClass: 2
Flags: W
LayerCount: 2
Fore
SplineSet
341 152 m 1,0,-1
 528 254 l 2,1,2
 758 382 758 382 759 709 c 0,3,4
 759 905 759 905 711.5 971 c 128,-1,5
 664 1037 664 1037 561 1037 c 0,6,7
 437 1037 437 1037 341 903 c 1,8,-1
 341 152 l 1,0,-1
165 -365 m 1,9,-1
 165 1172 l 1,10,-1
 341 1172 l 1,11,-1
 341 1041 l 1,12,13
 454 1194 454 1194 603 1194 c 0,14,15
 733 1194 733 1194 834 1081 c 128,-1,16
 935 968 935 968 935 699 c 0,17,18
 935 307 935 307 550 95 c 2,19,-1
 341 -21 l 1,20,-1
 341 -365 l 1,21,-1
 165 -365 l 1,9,-1
EndSplineSet
EndChar
StartChar: clickalveolar
Encoding: 450 450 384
Width: 1060
GlyphClass: 2
Flags: W
LayerCount: 2
Fore
SplineSet
961 911 m 1,0,-1
 618 911 l 1,1,-1
 618 670 l 1,2,-1
 961 670 l 1,3,-1
 961 513 l 1,4,-1
 618 513 l 1,5,-1
 618 -211 l 1,6,-1
 441 -211 l 1,7,-1
 441 513 l 1,8,-1
 99 513 l 1,9,-1
 99 670 l 1,10,-1
 441 670 l 1,11,-1
 441 911 l 1,12,-1
 99 911 l 1,13,-1
 99 1068 l 1,14,-1
 441 1068 l 1,15,-1
 441 1792 l 1,16,-1
 618 1792 l 1,17,-1
 618 1068 l 1,18,-1
 961 1068 l 1,19,-1
 961 911 l 1,0,-1
EndSplineSet
EndChar
StartChar: LJ
Encoding: 455 455 389
Width: 1060
GlyphClass: 2
Flags: W
LayerCount: 2
Fore
SplineSet
597 0 m 1,0,-1
 169 0 l 1,1,-1
 169 1580 l 1,2,-1
 345 1580 l 1,3,-1
 345 157 l 1,4,-1
 597 157 l 1,5,-1
 597 0 l 1,0,-1
722 -20 m 2,6,-1
 722 1580 l 1,7,-1
 899 1580 l 1,8,-1
 899 -8 l 2,9,10
 899 -188 899 -188 806 -281.5 c 128,-1,11
 713 -375 713 -375 578 -375 c 0,12,13
 387 -375 387 -375 274 -226 c 1,14,-1
 405 -133 l 1,15,16
 462 -219 462 -219 567 -219 c 0,17,18
 640 -219 640 -219 681 -172.5 c 128,-1,19
 722 -126 722 -126 722 -20 c 2,6,-1
EndSplineSet
EndChar
StartChar: Lj
Encoding: 456 456 390
Width: 1060
GlyphClass: 2
Flags: W
LayerCount: 2
Fore
SplineSet
597 0 m 1,0,-1
 169 0 l 1,1,-1
 169 1580 l 1,2,-1
 345 1580 l 1,3,-1
 345 157 l 1,4,-1
 597 157 l 1,5,-1
 597 0 l 1,0,-1
722 -20 m 2,6,-1
 722 1172 l 1,7,-1
 899 1172 l 1,8,-1
 899 -8 l 2,9,10
 899 -188 899 -188 806 -281.5 c 128,-1,11
 713 -375 713 -375 578 -375 c 0,12,13
 387 -375 387 -375 274 -226 c 1,14,-1
 405 -133 l 1,15,16
 462 -219 462 -219 567 -219 c 0,17,18
 640 -219 640 -219 681 -172.5 c 128,-1,19
 722 -126 722 -126 722 -20 c 2,6,-1
946 1569 m 256,20,21
 946 1513 946 1513 907 1473.5 c 128,-1,22
 868 1434 868 1434 810 1434 c 256,23,24
 752 1434 752 1434 713.5 1473.5 c 128,-1,25
 675 1513 675 1513 675 1569 c 256,26,27
 675 1625 675 1625 713.5 1665 c 128,-1,28
 752 1705 752 1705 810 1705 c 256,29,30
 868 1705 868 1705 907 1665 c 128,-1,31
 946 1625 946 1625 946 1569 c 256,20,21
EndSplineSet
EndChar
StartChar: lj
Encoding: 457 457 391
Width: 1060
GlyphClass: 2
Flags: W
LayerCount: 2
Fore
SplineSet
389 0 m 1,0,-1
 212 0 l 1,1,-1
 212 1580 l 1,2,-1
 389 1580 l 1,3,-1
 389 0 l 1,0,-1
672 -20 m 2,4,-1
 672 1172 l 1,5,-1
 849 1172 l 1,6,-1
 849 -8 l 2,7,8
 849 -188 849 -188 756 -281.5 c 128,-1,9
 663 -375 663 -375 528 -375 c 0,10,11
 337 -375 337 -375 224 -226 c 1,12,-1
 355 -133 l 1,13,14
 412 -219 412 -219 517 -219 c 0,15,16
 590 -219 590 -219 631 -172.5 c 128,-1,17
 672 -126 672 -126 672 -20 c 2,4,-1
896 1569 m 256,18,19
 896 1513 896 1513 857 1473.5 c 128,-1,20
 818 1434 818 1434 760 1434 c 256,21,22
 702 1434 702 1434 663.5 1473.5 c 128,-1,23
 625 1513 625 1513 625 1569 c 256,24,25
 625 1625 625 1625 663.5 1665 c 128,-1,26
 702 1705 702 1705 760 1705 c 256,27,28
 818 1705 818 1705 857 1665 c 128,-1,29
 896 1625 896 1625 896 1569 c 256,18,19
EndSplineSet
EndChar
StartChar: NJ
Encoding: 458 458 392
Width: 1060
GlyphClass: 2
Flags: W
LayerCount: 2
Fore
SplineSet
604 0 m 1,0,-1
 458 0 l 1,1,-1
 448 882 l 1,2,-1
 221 1335 l 1,3,-1
 241 928 l 1,4,-1
 241 0 l 1,5,-1
 85 0 l 1,6,-1
 85 1580 l 1,7,-1
 241 1580 l 1,8,-1
 468 1124 l 1,9,-1
 448 1531 l 1,10,-1
 448 1580 l 1,11,-1
 604 1580 l 1,12,-1
 604 0 l 1,0,-1
743 20 m 2,13,-1
 743 1580 l 1,14,-1
 899 1580 l 1,15,-1
 899 22 l 2,16,17
 899 -178 899 -178 811 -276.5 c 128,-1,18
 723 -375 723 -375 578 -375 c 0,19,20
 387 -375 387 -375 274 -226 c 1,21,-1
 405 -133 l 1,22,23
 462 -219 462 -219 577 -219 c 0,24,25
 661 -219 661 -219 702 -162.5 c 128,-1,26
 743 -106 743 -106 743 20 c 2,13,-1
EndSplineSet
EndChar
StartChar: Nj
Encoding: 459 459 393
Width: 1060
GlyphClass: 2
Flags: W
LayerCount: 2
Fore
SplineSet
743 20 m 2,0,-1
 743 1172 l 1,1,-1
 899 1172 l 1,2,-1
 899 22 l 2,3,4
 899 -178 899 -178 811 -276.5 c 128,-1,5
 723 -375 723 -375 578 -375 c 0,6,7
 387 -375 387 -375 274 -226 c 1,8,-1
 405 -133 l 1,9,10
 462 -219 462 -219 577 -219 c 0,11,12
 661 -219 661 -219 702 -162.5 c 128,-1,13
 743 -106 743 -106 743 20 c 2,0,-1
965 1569 m 256,14,15
 965 1513 965 1513 926 1473.5 c 128,-1,16
 887 1434 887 1434 829 1434 c 256,17,18
 771 1434 771 1434 732.5 1473.5 c 128,-1,19
 694 1513 694 1513 694 1569 c 256,20,21
 694 1625 694 1625 732.5 1665 c 128,-1,22
 771 1705 771 1705 829 1705 c 256,23,24
 887 1705 887 1705 926 1665 c 128,-1,25
 965 1625 965 1625 965 1569 c 256,14,15
604 0 m 1,26,-1
 458 0 l 1,27,-1
 448 882 l 1,28,-1
 221 1335 l 1,29,-1
 241 928 l 1,30,-1
 241 0 l 1,31,-1
 85 0 l 1,32,-1
 85 1580 l 1,33,-1
 241 1580 l 1,34,-1
 468 1124 l 1,35,-1
 448 1531 l 1,36,-1
 448 1580 l 1,37,-1
 604 1580 l 1,38,-1
 604 0 l 1,26,-1
EndSplineSet
EndChar
StartChar: nj
Encoding: 460 460 394
Width: 1060
GlyphClass: 2
Flags: W
LayerCount: 2
Fore
SplineSet
575 0 m 1,0,-1
 419 0 l 1,1,-1
 419 850 l 2,2,3
 419 1031 419 1031 341 1031 c 0,4,5
 286 1031 286 1031 241 919 c 1,6,-1
 241 0 l 1,7,-1
 85 0 l 1,8,-1
 85 1172 l 1,9,-1
 241 1172 l 1,10,-1
 241 1077 l 1,11,12
 304 1189 304 1189 394 1189 c 0,13,14
 575 1189 575 1189 575 850 c 2,15,-1
 575 0 l 1,0,-1
743 20 m 2,16,-1
 743 1172 l 1,17,-1
 899 1172 l 1,18,-1
 899 22 l 2,19,20
 899 -178 899 -178 811 -276.5 c 128,-1,21
 723 -375 723 -375 578 -375 c 0,22,23
 387 -375 387 -375 274 -226 c 1,24,-1
 405 -133 l 1,25,26
 462 -219 462 -219 577 -219 c 0,27,28
 661 -219 661 -219 702 -162.5 c 128,-1,29
 743 -106 743 -106 743 20 c 2,16,-1
955 1569 m 256,30,31
 955 1513 955 1513 916 1473.5 c 128,-1,32
 877 1434 877 1434 819 1434 c 256,33,34
 761 1434 761 1434 722.5 1473.5 c 128,-1,35
 684 1513 684 1513 684 1569 c 256,36,37
 684 1625 684 1625 722.5 1665 c 128,-1,38
 761 1705 761 1705 819 1705 c 256,39,40
 877 1705 877 1705 916 1665 c 128,-1,41
 955 1625 955 1625 955 1569 c 256,30,31
EndSplineSet
EndChar
StartChar: eturned
Encoding: 477 477 411
Width: 1060
GlyphClass: 2
Flags: W
LayerCount: 2
Fore
SplineSet
145 632 m 1,0,-1
 737 632 l 1,1,-1
 737 773 l 2,2,3
 737 914 737 914 675.5 975.5 c 128,-1,4
 614 1037 614 1037 528 1037 c 0,5,6
 362 1037 362 1037 285 886 c 1,7,-1
 152 979 l 1,8,9
 287 1194 287 1194 529 1194 c 0,10,11
 688 1194 688 1194 801 1080 c 128,-1,12
 914 966 914 966 914 698 c 2,13,-1
 914 477 l 2,14,15
 914 209 914 209 801 94.5 c 128,-1,16
 688 -20 688 -20 529 -20 c 256,17,18
 370 -20 370 -20 257.5 94 c 128,-1,19
 145 208 145 208 145 477 c 2,20,-1
 145 632 l 1,0,-1
321 495 m 1,21,-1
 321 402 l 2,22,23
 321 262 321 262 382 200 c 128,-1,24
 443 138 443 138 529 138 c 256,25,26
 615 138 615 138 676.5 200 c 128,-1,27
 738 262 738 262 738 402 c 2,28,-1
 738 495 l 1,29,-1
 321 495 l 1,21,-1
EndSplineSet
EndChar
StartChar: Gbar
Encoding: 484 484 418
Width: 1060
GlyphClass: 2
Flags: W
LayerCount: 2
Fore
SplineSet
925 507 m 2,0,1
 925 220 925 220 812.5 100 c 128,-1,2
 700 -20 700 -20 530 -20 c 256,3,4
 360 -20 360 -20 250 100 c 128,-1,5
 140 220 140 220 140 479 c 2,6,-1
 140 1103 l 2,7,8
 140 1362 140 1362 250.5 1482 c 128,-1,9
 361 1602 361 1602 541 1602 c 0,10,11
 761 1602 761 1602 897 1386 c 1,12,-1
 763 1293 l 1,13,14
 686 1442 686 1442 542 1442 c 0,15,16
 435 1442 435 1442 375.5 1370 c 128,-1,17
 316 1298 316 1298 316 1103 c 2,18,-1
 316 479 l 2,19,20
 316 284 316 284 373 212 c 128,-1,21
 430 140 430 140 530 140 c 0,22,23
 628 140 628 140 688.5 212.5 c 128,-1,24
 749 285 749 285 749 462 c 1,25,-1
 552 462 l 1,26,-1
 552 619 l 1,27,-1
 749 619 l 1,28,-1
 749 808 l 1,29,-1
 552 808 l 1,30,-1
 552 965 l 1,31,-1
 925 965 l 1,32,-1
 925 507 l 2,0,1
EndSplineSet
EndChar
StartChar: gbar
Encoding: 485 485 419
Width: 1060
GlyphClass: 2
Flags: W
LayerCount: 2
Fore
SplineSet
996 -88 m 1,0,-1
 930 -88 l 1,1,2
 910 -197 910 -197 799.5 -286 c 128,-1,3
 689 -375 689 -375 496 -375 c 0,4,5
 282 -375 282 -375 181.5 -273.5 c 128,-1,6
 81 -172 81 -172 81 -31 c 0,7,8
 81 120 81 120 250 216 c 1,9,10
 128 283 128 283 128 397 c 0,11,12
 128 503 128 503 269 587 c 1,13,14
 125 672 125 672 125 854 c 0,15,16
 125 1008 125 1008 229 1099 c 0,17,18
 330 1188 330 1188 494 1188 c 0,19,20
 538 1188 538 1188 577 1179 c 1,21,22
 655 1172 655 1172 929 1172 c 1,23,-1
 929 1042 l 1,24,-1
 868 1042 l 1,25,-1
 772 1054 l 1,26,27
 851 965 851 965 851 846 c 0,28,29
 851 710 851 710 755 622 c 0,30,31
 654 530 654 530 493 530 c 0,32,33
 400 530 400 530 358 537 c 1,34,35
 279 475 279 475 279 424 c 0,36,37
 279 387 279 387 319 348 c 1,38,39
 365 316 365 316 427 316 c 2,40,-1
 574 316 l 2,41,42
 882 316 882 316 934 46 c 1,43,-1
 996 46 l 1,44,-1
 996 -88 l 1,0,-1
483 -88 m 1,45,-1
 483 46 l 1,46,-1
 756 46 l 1,47,48
 738 159 738 159 574 159 c 2,49,-1
 443 159 l 2,50,51
 358 159 358 159 307.5 105.5 c 128,-1,52
 257 52 257 52 257 -18 c 0,53,54
 257 -112 257 -112 313 -165 c 256,55,56
 369 -218 369 -218 493 -218 c 0,57,58
 711 -218 711 -218 750 -88 c 1,59,-1
 483 -88 l 1,45,-1
686 865 m 0,60,61
 686 931 686 931 634.5 989 c 128,-1,62
 583 1047 583 1047 494 1047 c 0,63,64
 404 1047 404 1047 347.5 992 c 128,-1,65
 291 937 291 937 291 862 c 0,66,67
 291 776 291 776 345 723.5 c 128,-1,68
 399 671 399 671 491 671 c 0,69,70
 582 671 582 671 634 725 c 128,-1,71
 686 779 686 779 686 865 c 0,60,61
EndSplineSet
EndChar
StartChar: DZ
Encoding: 497 497 431
Width: 1060
GlyphClass: 2
Flags: W
LayerCount: 2
Fore
SplineSet
578 498 m 2,0,1
 578 229 578 229 486.5 114.5 c 128,-1,2
 395 0 395 0 273 0 c 2,3,-1
 101 0 l 1,4,-1
 101 1580 l 1,5,-1
 273 1580 l 2,6,7
 395 1580 395 1580 486.5 1465.5 c 128,-1,8
 578 1351 578 1351 578 1083 c 2,9,-1
 578 498 l 2,0,1
423 453 m 2,10,-1
 423 1128 l 2,11,12
 423 1300 423 1300 381.5 1362 c 128,-1,13
 340 1424 340 1424 282 1424 c 2,14,-1
 254 1424 l 1,15,-1
 254 157 l 1,16,-1
 282 157 l 2,17,18
 340 157 340 157 381.5 219 c 128,-1,19
 423 281 423 281 423 453 c 2,10,-1
994 0 m 1,20,-1
 625 0 l 1,21,-1
 625 157 l 1,22,-1
 844 1424 l 1,23,-1
 625 1424 l 1,24,-1
 625 1580 l 1,25,-1
 994 1580 l 1,26,-1
 994 1424 l 1,27,-1
 775 157 l 1,28,-1
 994 157 l 1,29,-1
 994 0 l 1,20,-1
EndSplineSet
EndChar
StartChar: dz
Encoding: 499 499 433
Width: 1060
GlyphClass: 2
Flags: W
LayerCount: 2
Fore
SplineSet
551 0 m 1,0,-1
 397 0 l 1,1,-1
 397 71 l 1,2,3
 334 -20 334 -20 265 -20 c 0,4,5
 75 -20 75 -20 75 474 c 2,6,-1
 75 694 l 2,7,8
 75 1189 75 1189 265 1189 c 0,9,10
 334 1189 334 1189 397 1097 c 1,11,-1
 397 1580 l 1,12,-1
 551 1580 l 1,13,-1
 551 0 l 1,0,-1
397 239 m 1,14,-1
 397 929 l 1,15,16
 352 1031 352 1031 307 1031 c 0,17,18
 229 1031 229 1031 229 705 c 2,19,-1
 229 463 l 2,20,21
 229 136 229 136 307 136 c 0,22,23
 351 136 351 136 397 239 c 1,14,-1
994 0 m 1,24,-1
 635 0 l 1,25,-1
 635 157 l 1,26,-1
 843 1016 l 1,27,-1
 635 1016 l 1,28,-1
 635 1172 l 1,29,-1
 994 1172 l 1,30,-1
 994 1016 l 1,31,-1
 786 157 l 1,32,-1
 994 157 l 1,33,-1
 994 0 l 1,24,-1
EndSplineSet
EndChar
StartChar: uni01F6
Encoding: 502 502 436
Width: 1060
GlyphClass: 2
Flags: W
LayerCount: 2
Fore
SplineSet
453 1580 m 1,0,-1
 607 1580 l 1,1,-1
 607 269 l 2,2,3
 607 128 607 128 675 128 c 0,4,5
 805 128 805 128 805 487 c 2,6,-1
 805 1172 l 1,7,-1
 959 1172 l 1,8,-1
 959 573 l 2,9,10
 959 -20 959 -20 662 -20 c 0,11,12
 453 -20 453 -20 453 317 c 2,13,-1
 453 770 l 1,14,-1
 255 770 l 1,15,-1
 255 0 l 1,16,-1
 101 0 l 1,17,-1
 101 1580 l 1,18,-1
 255 1580 l 1,19,-1
 255 926 l 1,20,-1
 453 926 l 1,21,-1
 453 1580 l 1,0,-1
EndSplineSet
EndChar
StartChar: uni01F7
Encoding: 503 503 437
Width: 1060
GlyphClass: 2
Flags: W
LayerCount: 2
Fore
SplineSet
208 1580 m 1,0,-1
 552 1580 l 2,1,2
 753 1580 753 1580 865.5 1490.5 c 128,-1,3
 978 1401 978 1401 978 1223 c 0,4,5
 978 940 978 940 593 769 c 2,6,-1
 384 674 l 1,7,-1
 384 0 l 1,8,-1
 208 0 l 1,9,-1
 208 1580 l 1,0,-1
384 1424 m 1,10,-1
 384 847 l 1,11,-1
 571 931 l 2,12,13
 801 1033 801 1033 801 1223 c 0,14,15
 801 1424 801 1424 571 1424 c 2,16,-1
 384 1424 l 1,10,-1
EndSplineSet
EndChar
StartChar: uni021C
Encoding: 540 540 474
Width: 1060
GlyphClass: 2
Flags: W
LayerCount: 2
Fore
SplineSet
154 1580 m 1,0,-1
 880 1580 l 1,1,-1
 880 1397 l 1,2,-1
 515 957 l 1,3,4
 912 920 912 920 912 556 c 0,5,6
 912 298 912 298 527 0 c 1,7,-1
 270 0 l 1,8,9
 735 340 735 340 735 569 c 0,10,11
 735 809 735 809 434 809 c 2,12,-1
 307 809 l 1,13,-1
 307 946 l 1,14,-1
 696 1423 l 1,15,-1
 154 1423 l 1,16,-1
 154 1580 l 1,0,-1
EndSplineSet
EndChar
StartChar: uni021D
Encoding: 541 541 475
Width: 1060
GlyphClass: 2
Flags: W
LayerCount: 2
Fore
SplineSet
154 1172 m 1,0,-1
 880 1172 l 1,1,-1
 880 989 l 1,2,-1
 515 549 l 1,3,4
 912 512 912 512 912 148 c 0,5,6
 912 -93 912 -93 581 -365 c 1,7,-1
 328 -365 l 1,8,9
 735 -56 735 -56 735 161 c 0,10,11
 735 401 735 401 434 401 c 2,12,-1
 307 401 l 1,13,-1
 307 538 l 1,14,-1
 696 1015 l 1,15,-1
 154 1015 l 1,16,-1
 154 1172 l 1,0,-1
EndSplineSet
EndChar
StartChar: uni0220
Encoding: 544 544 478
Width: 1060
GlyphClass: 2
Flags: W
LayerCount: 2
Fore
SplineSet
915 -365 m 1,0,-1
 739 -365 l 1,1,-1
 739 1198 l 2,2,3
 739 1320 739 1320 693 1377 c 0,4,5
 644 1439 644 1439 561 1439 c 0,6,7
 416 1439 416 1439 321 1307 c 1,8,-1
 321 0 l 1,9,-1
 145 0 l 1,10,-1
 145 1580 l 1,11,-1
 321 1580 l 1,12,-1
 321 1445 l 1,13,14
 434 1597 434 1597 604 1597 c 0,15,16
 735 1597 735 1597 825 1500 c 128,-1,17
 915 1403 915 1403 915 1198 c 2,18,-1
 915 -365 l 1,0,-1
EndSplineSet
EndChar
StartChar: uni0222
Encoding: 546 546 479
Width: 1060
GlyphClass: 2
Flags: W
LayerCount: 2
Fore
SplineSet
738 1580 m 1,0,-1
 914 1580 l 1,1,-1
 914 1262 l 2,2,3
 914 944 914 944 741 847 c 1,4,5
 914 737 914 737 914 455 c 0,6,7
 914 207 914 207 801.5 93.5 c 128,-1,8
 689 -20 689 -20 530 -20 c 256,9,10
 371 -20 371 -20 258 93.5 c 128,-1,11
 145 207 145 207 145 455 c 0,12,13
 145 737 145 737 318 847 c 1,14,15
 145 944 145 944 145 1262 c 2,16,-1
 145 1580 l 1,17,-1
 321 1580 l 1,18,-1
 321 1198 l 2,19,20
 321 1047 321 1047 382.5 985.5 c 128,-1,21
 444 924 444 924 530 924 c 256,22,23
 616 924 616 924 677 985.5 c 128,-1,24
 738 1047 738 1047 738 1198 c 2,25,-1
 738 1580 l 1,0,-1
738 455 m 0,26,27
 738 644 738 644 677 705.5 c 128,-1,28
 616 767 616 767 530 767 c 256,29,30
 444 767 444 767 382.5 705.5 c 128,-1,31
 321 644 321 644 321 455 c 0,32,33
 321 260 321 260 382.5 198.5 c 128,-1,34
 444 137 444 137 530 137 c 256,35,36
 616 137 616 137 677 198.5 c 128,-1,37
 738 260 738 260 738 455 c 0,26,27
EndSplineSet
EndChar
StartChar: uni0223
Encoding: 547 547 480
Width: 1060
GlyphClass: 2
Flags: W
LayerCount: 2
Fore
SplineSet
738 1748 m 1,0,-1
 914 1748 l 1,1,-1
 914 1428 l 2,2,3
 914 1110 914 1110 741 1013 c 1,4,5
 914 903 914 903 914 594 c 2,6,-1
 914 475 l 2,7,8
 914 207 914 207 801.5 93.5 c 128,-1,9
 689 -20 689 -20 530 -20 c 256,10,11
 371 -20 371 -20 258 93.5 c 128,-1,12
 145 207 145 207 145 475 c 2,13,-1
 145 594 l 2,14,15
 145 903 145 903 318 1013 c 1,16,17
 145 1110 145 1110 145 1428 c 2,18,-1
 145 1748 l 1,19,-1
 321 1748 l 1,20,-1
 321 1364 l 2,21,22
 321 1213 321 1213 382.5 1151.5 c 128,-1,23
 444 1090 444 1090 530 1090 c 256,24,25
 616 1090 616 1090 677 1151.5 c 128,-1,26
 738 1213 738 1213 738 1364 c 2,27,-1
 738 1748 l 1,0,-1
738 411 m 2,28,-1
 738 658 l 2,29,30
 738 810 738 810 677 871.5 c 128,-1,31
 616 933 616 933 530 933 c 256,32,33
 444 933 444 933 382.5 871.5 c 128,-1,34
 321 810 321 810 321 658 c 2,35,-1
 321 411 l 2,36,37
 321 260 321 260 382.5 198.5 c 128,-1,38
 444 137 444 137 530 137 c 256,39,40
 616 137 616 137 677 198.5 c 128,-1,41
 738 260 738 260 738 411 c 2,28,-1
EndSplineSet
EndChar
StartChar: uni0224
Encoding: 548 548 481
Width: 1060
GlyphClass: 2
Flags: W
LayerCount: 2
Fore
SplineSet
677 -218 m 2,0,1
 721 -218 721 -218 753.5 -191 c 128,-1,2
 786 -164 786 -164 786 -97 c 2,3,-1
 786 0 l 1,4,-1
 155 0 l 1,5,-1
 155 150 l 1,6,-1
 746 1430 l 1,7,-1
 155 1430 l 1,8,-1
 155 1580 l 1,9,-1
 934 1580 l 1,10,-1
 934 1430 l 1,11,-1
 343 150 l 1,12,-1
 944 150 l 1,13,-1
 944 -98 l 2,14,15
 944 -227 944 -227 866 -296 c 128,-1,16
 788 -365 788 -365 676 -365 c 2,17,-1
 541 -365 l 1,18,-1
 541 -218 l 1,19,-1
 677 -218 l 2,0,1
EndSplineSet
EndChar
StartChar: uni0225
Encoding: 549 549 482
Width: 1060
GlyphClass: 2
Flags: W
LayerCount: 2
Fore
SplineSet
663 -218 m 2,0,1
 707 -218 707 -218 739.5 -191 c 128,-1,2
 772 -164 772 -164 772 -97 c 2,3,-1
 772 0 l 1,4,-1
 142 0 l 1,5,-1
 142 150 l 1,6,-1
 708 1022 l 1,7,-1
 151 1022 l 1,8,-1
 151 1172 l 1,9,-1
 908 1172 l 1,10,-1
 908 1022 l 1,11,-1
 342 150 l 1,12,-1
 930 150 l 1,13,-1
 930 -98 l 2,14,15
 930 -227 930 -227 852 -296 c 128,-1,16
 774 -365 774 -365 662 -365 c 2,17,-1
 527 -365 l 1,18,-1
 527 -218 l 1,19,-1
 663 -218 l 2,0,1
EndSplineSet
EndChar
StartChar: dotlessj
Encoding: 567 567 497
Width: 1060
GlyphClass: 2
Flags: W
LayerCount: 2
Fore
SplineSet
546 -20 m 2,0,-1
 546 1015 l 1,1,-1
 271 1015 l 1,2,-1
 271 1172 l 1,3,-1
 723 1172 l 1,4,-1
 723 -8 l 2,5,6
 723 -188 723 -188 630 -281.5 c 128,-1,7
 537 -375 537 -375 402 -375 c 0,8,9
 195 -375 195 -375 72 -190 c 1,10,-1
 206 -94 l 1,11,12
 268 -219 268 -219 391 -219 c 0,13,14
 464 -219 464 -219 505 -172.5 c 128,-1,15
 546 -126 546 -126 546 -20 c 2,0,-1
EndSplineSet
EndChar
StartChar: uni0238
Encoding: 568 568 498
Width: 1060
GlyphClass: 2
Flags: W
LayerCount: 2
Fore
SplineSet
453 1580 m 1,0,-1
 607 1580 l 1,1,-1
 607 1077 l 1,2,3
 665 1189 665 1189 764 1189 c 0,4,5
 989 1189 989 1189 989 587 c 0,6,7
 989 -20 989 -20 764 -20 c 0,8,9
 665 -20 665 -20 607 91 c 1,10,-1
 607 0 l 1,11,-1
 453 0 l 1,12,-1
 453 91 l 1,13,14
 395 -20 395 -20 296 -20 c 0,15,16
 71 -20 71 -20 71 587 c 0,17,18
 71 1189 71 1189 296 1189 c 0,19,20
 395 1189 395 1189 453 1077 c 1,21,-1
 453 1580 l 1,0,-1
607 239 m 1,22,23
 648 136 648 136 722 136 c 0,24,25
 835 136 835 136 835 587 c 0,26,27
 835 1031 835 1031 722 1031 c 0,28,29
 647 1031 647 1031 607 929 c 1,30,-1
 607 239 l 1,22,23
453 239 m 1,31,-1
 453 929 l 1,32,33
 413 1031 413 1031 338 1031 c 0,34,35
 225 1031 225 1031 225 587 c 0,36,37
 225 136 225 136 338 136 c 0,38,39
 412 136 412 136 453 239 c 1,31,-1
EndSplineSet
EndChar
StartChar: uni0239
Encoding: 569 569 499
Width: 1060
GlyphClass: 2
Flags: W
LayerCount: 2
Fore
SplineSet
453 95 m 1,0,1
 395 -17 395 -17 296 -17 c 0,2,3
 71 -17 71 -17 71 585 c 0,4,5
 71 1192 71 1192 296 1192 c 0,6,7
 395 1192 395 1192 453 1081 c 1,8,-1
 453 1172 l 1,9,-1
 607 1172 l 1,10,-1
 607 1081 l 1,11,12
 665 1192 665 1192 764 1192 c 0,13,14
 989 1192 989 1192 989 585 c 0,15,16
 989 -17 989 -17 764 -17 c 0,17,18
 665 -17 665 -17 607 95 c 1,19,-1
 607 -365 l 1,20,-1
 453 -365 l 1,21,-1
 453 95 l 1,0,1
607 243 m 1,22,23
 647 141 647 141 722 141 c 0,24,25
 835 141 835 141 835 585 c 0,26,27
 835 1036 835 1036 722 1036 c 0,28,29
 648 1036 648 1036 607 933 c 1,30,-1
 607 243 l 1,22,23
453 933 m 1,31,32
 412 1036 412 1036 338 1036 c 0,33,34
 225 1036 225 1036 225 585 c 0,35,36
 225 141 225 141 338 141 c 0,37,38
 413 141 413 141 453 243 c 1,39,-1
 453 933 l 1,31,32
EndSplineSet
EndChar
StartChar: uni023A
Encoding: 570 570 500
Width: 1060
GlyphClass: 2
Flags: W
LayerCount: 2
Fore
SplineSet
289 88 m 2,0,-1
 289 0 l 1,1,-1
 113 0 l 1,2,-1
 113 88 l 2,3,4
 113 315 113 315 248 852 c 2,5,-1
 431 1580 l 1,6,-1
 629 1580 l 1,7,-1
 665 1436 l 1,8,-1
 744 1777 l 1,9,-1
 835 1777 l 1,10,-1
 712 1248 l 1,11,-1
 812 852 l 2,12,13
 947 315 947 315 947 88 c 2,14,-1
 947 0 l 1,15,-1
 771 0 l 1,16,-1
 771 88 l 2,17,18
 771 195 771 195 741 370 c 1,19,-1
 508 370 l 1,20,-1
 376 -200 l 1,21,-1
 285 -200 l 1,22,-1
 417 370 l 1,23,-1
 318 370 l 1,24,25
 289 195 289 195 289 88 c 2,0,-1
530 1300 m 1,26,-1
 399 754 l 2,27,28
 368 627 368 627 346 520 c 1,29,-1
 452 520 l 1,30,-1
 582 1081 l 1,31,-1
 530 1300 l 1,26,-1
713 520 m 1,32,33
 691 627 691 627 661 754 c 2,34,-1
 628 888 l 1,35,-1
 543 520 l 1,36,-1
 713 520 l 1,32,33
EndSplineSet
EndChar
StartChar: uni023B
Encoding: 571 571 501
Width: 1060
GlyphClass: 2
Flags: W
LayerCount: 2
Fore
SplineSet
980 234 m 1,0,1
 833 -20 833 -20 579 -20 c 0,2,3
 487 -20 487 -20 410 12 c 1,4,-1
 346 -200 l 1,5,-1
 235 -200 l 1,6,-1
 317 70 l 1,7,8
 171 176 171 176 171 519 c 2,9,-1
 171 1063 l 2,10,11
 171 1362 171 1362 289 1482 c 128,-1,12
 407 1602 407 1602 577 1602 c 0,13,14
 684 1602 684 1602 768 1560 c 1,15,-1
 834 1777 l 1,16,-1
 945 1777 l 1,17,-1
 860 1497 l 1,18,19
 924 1438 924 1438 970 1346 c 1,20,-1
 826 1259 l 1,21,22
 815 1284 815 1284 802 1306 c 1,23,-1
 459 173 l 1,24,25
 511 140 511 140 578 140 c 0,26,27
 747 140 747 140 836 331 c 1,28,-1
 980 234 l 1,0,1
578 1442 m 0,29,30
 479 1442 479 1442 413.5 1370 c 128,-1,31
 348 1298 348 1298 348 1063 c 2,32,-1
 348 519 l 2,33,34
 348 358 348 358 378 273 c 1,35,-1
 719 1399 l 1,36,37
 659 1442 659 1442 578 1442 c 0,29,30
EndSplineSet
EndChar
StartChar: uni023C
Encoding: 572 572 502
Width: 1060
GlyphClass: 2
Flags: W
LayerCount: 2
Fore
SplineSet
925 1372 m 1,0,-1
 825 1110 l 1,1,2
 890 1059 890 1059 942 977 c 1,3,-1
 809 884 l 1,4,5
 788 921 788 921 763 948 c 1,6,-1
 464 163 l 1,7,8
 513 137 513 137 577 137 c 0,9,10
 722 137 722 137 809 288 c 1,11,-1
 942 195 l 1,12,13
 807 -20 807 -20 577 -20 c 0,14,15
 484 -20 484 -20 407 14 c 1,16,-1
 326 -200 l 1,17,-1
 215 -200 l 1,18,-1
 318 71 l 1,19,20
 180 183 180 183 180 476 c 2,21,-1
 180 697 l 2,22,23
 180 965 180 965 293.5 1079.5 c 128,-1,24
 407 1194 407 1194 577 1194 c 0,25,26
 662 1194 662 1194 735 1164 c 1,27,-1
 814 1372 l 1,28,-1
 925 1372 l 1,0,-1
577 1036 m 0,29,30
 480 1036 480 1036 418.5 974 c 128,-1,31
 357 912 357 912 357 772 c 2,32,-1
 357 401 l 2,33,34
 357 305 357 305 385 246 c 1,35,-1
 678 1014 l 1,36,37
 631 1036 631 1036 577 1036 c 0,29,30
EndSplineSet
EndChar
StartChar: uni023D
Encoding: 573 573 503
Width: 1060
GlyphClass: 2
Flags: W
LayerCount: 2
Fore
SplineSet
687 771 m 1,0,-1
 415 771 l 1,1,-1
 415 157 l 1,2,-1
 967 157 l 1,3,-1
 967 0 l 1,4,-1
 239 0 l 1,5,-1
 239 771 l 1,6,-1
 86 771 l 1,7,-1
 86 905 l 1,8,-1
 239 905 l 1,9,-1
 239 1580 l 1,10,-1
 415 1580 l 1,11,-1
 415 905 l 1,12,-1
 687 905 l 1,13,-1
 687 771 l 1,0,-1
EndSplineSet
EndChar
StartChar: uni023E
Encoding: 574 574 504
Width: 1060
GlyphClass: 2
Flags: W
LayerCount: 2
Fore
SplineSet
965 1777 m 1,0,-1
 889 1580 l 1,1,-1
 943 1580 l 1,2,-1
 943 1424 l 1,3,-1
 829 1424 l 1,4,-1
 618 873 l 1,5,-1
 618 0 l 1,6,-1
 442 0 l 1,7,-1
 442 414 l 1,8,-1
 206 -200 l 1,9,-1
 115 -200 l 1,10,-1
 442 652 l 1,11,-1
 442 1424 l 1,12,-1
 117 1424 l 1,13,-1
 117 1580 l 1,14,-1
 798 1580 l 1,15,-1
 874 1777 l 1,16,-1
 965 1777 l 1,0,-1
618 1110 m 1,17,-1
 738 1424 l 1,18,-1
 618 1424 l 1,19,-1
 618 1110 l 1,17,-1
EndSplineSet
EndChar
StartChar: uni0241
Encoding: 577 577 505
Width: 1060
GlyphClass: 2
Flags: W
LayerCount: 2
Fore
SplineSet
921 1212 m 0,0,1
 921 1093 921 1093 855 994 c 2,2,-1
 639 679 l 2,3,4
 607 632 607 632 607 566 c 2,5,-1
 607 0 l 1,6,-1
 430 0 l 1,7,-1
 430 567 l 2,8,9
 430 684 430 684 500 789 c 2,10,-1
 712 1099 l 2,11,12
 744 1147 744 1147 744 1213 c 0,13,14
 744 1321 744 1321 682.5 1383 c 128,-1,15
 621 1445 621 1445 535 1445 c 0,16,17
 368 1445 368 1445 273 1250 c 1,18,-1
 139 1341 l 1,19,20
 285 1602 285 1602 536 1602 c 0,21,22
 695 1602 695 1602 808 1487.5 c 128,-1,23
 921 1373 921 1373 921 1212 c 0,0,1
EndSplineSet
EndChar
StartChar: uni0242
Encoding: 578 578 506
Width: 1060
GlyphClass: 2
Flags: W
LayerCount: 2
Fore
SplineSet
921 804 m 0,0,1
 921 685 921 685 855 586 c 2,2,-1
 639 271 l 2,3,4
 607 224 607 224 607 158 c 2,5,-1
 607 0 l 1,6,-1
 430 0 l 1,7,-1
 430 159 l 2,8,9
 430 276 430 276 500 381 c 2,10,-1
 712 691 l 2,11,12
 744 739 744 739 744 805 c 0,13,14
 744 913 744 913 682.5 975 c 128,-1,15
 621 1037 621 1037 535 1037 c 0,16,17
 368 1037 368 1037 273 842 c 1,18,-1
 139 933 l 1,19,20
 285 1194 285 1194 536 1194 c 0,21,22
 695 1194 695 1194 808 1079.5 c 128,-1,23
 921 965 921 965 921 804 c 0,0,1
EndSplineSet
EndChar
StartChar: uni0243
Encoding: 579 579 507
Width: 1060
GlyphClass: 2
Flags: W
LayerCount: 2
Fore
SplineSet
185 0 m 1,0,-1
 185 407 l 1,1,-1
 72 407 l 1,2,-1
 72 541 l 1,3,-1
 185 541 l 1,4,-1
 185 1580 l 1,5,-1
 486 1580 l 2,6,7
 688 1580 688 1580 790 1476 c 128,-1,8
 892 1372 892 1372 892 1199 c 0,9,10
 892 948 892 948 678 869 c 1,11,12
 935 790 935 790 935 481 c 0,13,14
 935 238 935 238 807 119 c 128,-1,15
 679 0 679 0 469 0 c 2,16,-1
 185 0 l 1,0,-1
753 481 m 0,17,18
 753 647 753 647 692 710.5 c 128,-1,19
 631 774 631 774 524 774 c 2,20,-1
 361 774 l 1,21,-1
 361 541 l 1,22,-1
 549 541 l 1,23,-1
 549 407 l 1,24,-1
 361 407 l 1,25,-1
 361 150 l 1,26,-1
 468 150 l 2,27,28
 620 150 620 150 686.5 221.5 c 128,-1,29
 753 293 753 293 753 481 c 0,17,18
710 1199 m 0,30,31
 710 1326 710 1326 654 1378 c 128,-1,32
 598 1430 598 1430 485 1430 c 2,33,-1
 361 1430 l 1,34,-1
 361 924 l 1,35,-1
 465 924 l 2,36,37
 567 924 567 924 638.5 990 c 128,-1,38
 710 1056 710 1056 710 1199 c 0,30,31
EndSplineSet
EndChar
StartChar: uni0244
Encoding: 580 580 508
Width: 1060
GlyphClass: 2
Flags: W
LayerCount: 2
Fore
SplineSet
145 1580 m 1,0,-1
 321 1580 l 1,1,-1
 321 1172 l 1,2,-1
 738 1172 l 1,3,-1
 738 1580 l 1,4,-1
 915 1580 l 1,5,-1
 915 1172 l 1,6,-1
 1044 1172 l 1,7,-1
 1044 1038 l 1,8,-1
 915 1038 l 1,9,-1
 915 464 l 2,10,11
 915 208 915 208 802 94 c 128,-1,12
 689 -20 689 -20 530 -20 c 256,13,14
 371 -20 371 -20 258 94 c 128,-1,15
 145 208 145 208 145 464 c 2,16,-1
 145 1038 l 1,17,-1
 16 1038 l 1,18,-1
 16 1172 l 1,19,-1
 145 1172 l 1,20,-1
 145 1580 l 1,0,-1
321 1038 m 1,21,-1
 321 389 l 2,22,23
 321 260 321 260 382 198 c 128,-1,24
 443 136 443 136 529 136 c 256,25,26
 615 136 615 136 676.5 198 c 128,-1,27
 738 260 738 260 738 389 c 2,28,-1
 738 1038 l 1,29,-1
 321 1038 l 1,21,-1
EndSplineSet
EndChar
StartChar: uni0245
Encoding: 581 581 509
Width: 1060
GlyphClass: 2
Flags: W
LayerCount: 2
Fore
SplineSet
530 1300 m 1,0,-1
 399 754 l 2,1,2
 289 295 289 295 289 88 c 2,3,-1
 289 0 l 1,4,-1
 113 0 l 1,5,-1
 113 88 l 2,6,7
 113 315 113 315 248 852 c 2,8,-1
 431 1580 l 1,9,-1
 629 1580 l 1,10,-1
 812 852 l 2,11,12
 947 315 947 315 947 88 c 2,13,-1
 947 0 l 1,14,-1
 771 0 l 1,15,-1
 771 88 l 2,16,17
 771 295 771 295 661 754 c 2,18,-1
 530 1300 l 1,0,-1
EndSplineSet
EndChar
StartChar: uni0246
Encoding: 582 582 510
Width: 1060
GlyphClass: 2
Flags: W
LayerCount: 2
Fore
SplineSet
865 1777 m 1,0,-1
 819 1580 l 1,1,-1
 924 1580 l 1,2,-1
 924 1424 l 1,3,-1
 783 1424 l 1,4,-1
 662 905 l 1,5,-1
 780 905 l 1,6,-1
 780 748 l 1,7,-1
 626 748 l 1,8,-1
 489 157 l 1,9,-1
 924 157 l 1,10,-1
 924 0 l 1,11,-1
 452 0 l 1,12,-1
 406 -200 l 1,13,-1
 305 -200 l 1,14,-1
 351 0 l 1,15,-1
 176 0 l 1,16,-1
 176 1580 l 1,17,-1
 718 1580 l 1,18,-1
 764 1777 l 1,19,-1
 865 1777 l 1,0,-1
352 905 m 1,20,-1
 562 905 l 1,21,-1
 682 1424 l 1,22,-1
 352 1424 l 1,23,-1
 352 905 l 1,20,-1
352 157 m 1,24,-1
 388 157 l 1,25,-1
 525 748 l 1,26,-1
 352 748 l 1,27,-1
 352 157 l 1,24,-1
EndSplineSet
EndChar
StartChar: uni0247
Encoding: 583 583 511
Width: 1060
GlyphClass: 2
Flags: W
LayerCount: 2
Fore
SplineSet
885 1372 m 1,0,-1
 781 1099 l 1,1,2
 791 1090 791 1090 801 1080 c 0,3,4
 914 966 914 966 914 697 c 2,5,-1
 914 572 l 1,6,-1
 580 572 l 1,7,-1
 425 165 l 1,8,9
 472 137 472 137 531 137 c 0,10,11
 697 137 697 137 774 288 c 1,12,-1
 907 195 l 1,13,14
 772 -20 772 -20 530 -20 c 0,15,16
 442 -20 442 -20 368 15 c 1,17,-1
 286 -200 l 1,18,-1
 175 -200 l 1,19,-1
 279 74 l 1,20,21
 145 186 145 186 145 476 c 2,22,-1
 145 697 l 2,23,24
 145 965 145 965 258 1079.5 c 128,-1,25
 371 1194 371 1194 530 1194 c 0,26,27
 618 1194 618 1194 693 1158 c 1,28,-1
 774 1372 l 1,29,-1
 885 1372 l 1,0,-1
530 1036 m 0,30,31
 444 1036 444 1036 382.5 974 c 128,-1,32
 321 912 321 912 321 772 c 2,33,-1
 321 709 l 1,34,-1
 521 709 l 1,35,-1
 635 1007 l 1,36,37
 588 1036 588 1036 530 1036 c 0,30,31
322 401 m 2,38,39
 322 310 322 310 347 252 c 1,40,-1
 469 572 l 1,41,-1
 322 572 l 1,42,-1
 322 401 l 2,38,39
738 709 m 1,43,-1
 738 772 l 2,44,45
 738 862 738 862 712 919 c 1,46,-1
 632 709 l 1,47,-1
 738 709 l 1,43,-1
EndSplineSet
EndChar
StartChar: uni0248
Encoding: 584 584 512
Width: 1060
GlyphClass: 2
Flags: W
LayerCount: 2
Fore
SplineSet
963 1038 m 1,0,-1
 863 1038 l 1,1,-1
 863 485 l 2,2,3
 863 208 863 208 750 94 c 128,-1,4
 637 -20 637 -20 478 -20 c 256,5,6
 319 -20 319 -20 206 94 c 128,-1,7
 93 208 93 208 93 485 c 2,8,-1
 93 706 l 1,9,-1
 269 706 l 1,10,-1
 269 410 l 2,11,12
 269 259 269 259 330 197.5 c 128,-1,13
 391 136 391 136 477 136 c 256,14,15
 563 136 563 136 624.5 198 c 128,-1,16
 686 260 686 260 686 410 c 2,17,-1
 686 1038 l 1,18,-1
 392 1038 l 1,19,-1
 392 1172 l 1,20,-1
 686 1172 l 1,21,-1
 686 1580 l 1,22,-1
 863 1580 l 1,23,-1
 863 1172 l 1,24,-1
 963 1172 l 1,25,-1
 963 1038 l 1,0,-1
EndSplineSet
EndChar
StartChar: uni0249
Encoding: 585 585 513
Width: 1060
GlyphClass: 2
Flags: W
LayerCount: 2
Fore
SplineSet
544 90 m 2,0,-1
 544 461 l 1,1,-1
 271 461 l 1,2,-1
 271 595 l 1,3,-1
 544 595 l 1,4,-1
 544 1022 l 1,5,-1
 271 1022 l 1,6,-1
 271 1172 l 1,7,-1
 721 1172 l 1,8,-1
 721 595 l 1,9,-1
 876 595 l 1,10,-1
 876 461 l 1,11,-1
 721 461 l 1,12,-1
 721 90 l 2,13,14
 721 -128 721 -128 613 -251.5 c 128,-1,15
 505 -375 505 -375 330 -375 c 0,16,17
 133 -375 133 -375 -10 -210 c 1,18,-1
 111 -96 l 1,19,20
 196 -215 196 -215 319 -215 c 0,21,22
 422 -215 422 -215 483 -145.5 c 128,-1,23
 544 -76 544 -76 544 90 c 2,0,-1
736 1569 m 256,24,25
 736 1513 736 1513 697 1473.5 c 128,-1,26
 658 1434 658 1434 601 1434 c 0,27,28
 542 1434 542 1434 503.5 1473.5 c 128,-1,29
 465 1513 465 1513 465 1569 c 256,30,31
 465 1625 465 1625 503.5 1665 c 128,-1,32
 542 1705 542 1705 601 1705 c 0,33,34
 658 1705 658 1705 697 1665 c 128,-1,35
 736 1625 736 1625 736 1569 c 256,24,25
EndSplineSet
EndChar
StartChar: uni024A
Encoding: 586 586 514
Width: 1060
GlyphClass: 2
Flags: W
LayerCount: 2
Fore
SplineSet
699 -78 m 2,0,-1
 699 136 l 1,1,2
 586 -16 586 -16 447 -16 c 0,3,4
 317 -16 317 -16 221 96.5 c 128,-1,5
 125 209 125 209 125 478 c 2,6,-1
 125 1107 l 2,7,8
 125 1376 125 1376 221 1489 c 128,-1,9
 317 1602 317 1602 447 1602 c 0,10,11
 586 1602 586 1602 699 1449 c 1,12,-1
 699 1580 l 1,13,-1
 875 1580 l 1,14,-1
 875 -78 l 2,15,16
 875 -164 875 -164 907.5 -191 c 128,-1,17
 940 -218 940 -218 984 -218 c 2,18,-1
 1062 -218 l 1,19,-1
 1062 -365 l 1,20,-1
 967 -365 l 2,21,22
 855 -365 855 -365 777 -296 c 128,-1,23
 699 -227 699 -227 699 -78 c 2,0,-1
699 273 m 1,24,-1
 699 1311 l 1,25,26
 603 1445 603 1445 489 1445 c 0,27,28
 386 1445 386 1445 343.5 1379 c 128,-1,29
 301 1313 301 1313 301 1117 c 2,30,-1
 301 467 l 2,31,32
 301 271 301 271 343.5 206 c 128,-1,33
 386 141 386 141 489 141 c 0,34,35
 604 141 604 141 699 273 c 1,24,-1
EndSplineSet
EndChar
StartChar: uni024B
Encoding: 587 587 515
Width: 1060
GlyphClass: 2
Flags: W
LayerCount: 2
Fore
SplineSet
699 -78 m 2,0,-1
 699 136 l 1,1,2
 586 -16 586 -16 447 -16 c 0,3,4
 317 -16 317 -16 221 96.5 c 128,-1,5
 125 209 125 209 125 478 c 2,6,-1
 125 699 l 2,7,8
 125 968 125 968 221 1081 c 128,-1,9
 317 1194 317 1194 447 1194 c 0,10,11
 586 1194 586 1194 699 1041 c 1,12,-1
 699 1172 l 1,13,-1
 875 1172 l 1,14,-1
 875 -78 l 2,15,16
 875 -164 875 -164 907.5 -191 c 128,-1,17
 940 -218 940 -218 984 -218 c 2,18,-1
 1062 -218 l 1,19,-1
 1062 -365 l 1,20,-1
 967 -365 l 2,21,22
 855 -365 855 -365 777 -296 c 128,-1,23
 699 -227 699 -227 699 -78 c 2,0,-1
699 273 m 1,24,-1
 699 903 l 1,25,26
 603 1037 603 1037 489 1037 c 0,27,28
 386 1037 386 1037 343.5 971 c 128,-1,29
 301 905 301 905 301 709 c 2,30,-1
 301 467 l 2,31,32
 301 271 301 271 343.5 206 c 128,-1,33
 386 141 386 141 489 141 c 0,34,35
 604 141 604 141 699 273 c 1,24,-1
EndSplineSet
EndChar
StartChar: uni024C
Encoding: 588 588 516
Width: 1060
GlyphClass: 2
Flags: W
LayerCount: 2
Fore
SplineSet
267 0 m 1,0,-1
 267 740 l 1,1,-1
 93 740 l 1,2,-1
 93 890 l 1,3,-1
 267 890 l 1,4,-1
 267 1580 l 1,5,-1
 535 1580 l 2,6,7
 745 1580 745 1580 847.5 1466 c 128,-1,8
 950 1352 950 1352 950 1170 c 0,9,10
 950 1018 950 1018 884.5 913.5 c 128,-1,11
 819 809 819 809 705 766 c 1,12,-1
 845 487 l 2,13,14
 967 240 967 240 978 70 c 2,15,-1
 982 0 l 1,16,-1
 806 0 l 1,17,-1
 803 55 l 2,18,19
 792 225 792 225 706 401 c 2,20,-1
 536 740 l 1,21,-1
 443 740 l 1,22,-1
 443 0 l 1,23,-1
 267 0 l 1,0,-1
443 890 m 1,24,-1
 534 890 l 2,25,26
 656 890 656 890 712 962 c 128,-1,27
 768 1034 768 1034 768 1171 c 0,28,29
 768 1306 768 1306 712 1368 c 128,-1,30
 656 1430 656 1430 534 1430 c 2,31,-1
 443 1430 l 1,32,-1
 443 890 l 1,24,-1
EndSplineSet
EndChar
StartChar: uni024D
Encoding: 589 589 517
Width: 1060
GlyphClass: 2
Flags: W
LayerCount: 2
Fore
SplineSet
282 0 m 1,0,-1
 282 461 l 1,1,-1
 114 461 l 1,2,-1
 114 595 l 1,3,-1
 282 595 l 1,4,-1
 282 1172 l 1,5,-1
 458 1172 l 1,6,-1
 458 984 l 1,7,8
 542 1194 542 1194 724 1194 c 0,9,10
 915 1194 915 1194 1004 974 c 1,11,-1
 851 906 l 1,12,13
 800 1034 800 1034 686 1034 c 0,14,15
 468 1034 468 1034 458 595 c 1,16,-1
 685 595 l 1,17,-1
 685 461 l 1,18,-1
 458 461 l 1,19,-1
 458 0 l 1,20,-1
 282 0 l 1,0,-1
EndSplineSet
EndChar
StartChar: uni024E
Encoding: 590 590 518
Width: 1060
GlyphClass: 2
Flags: W
LayerCount: 2
Fore
SplineSet
618 0 m 1,0,-1
 442 0 l 1,1,-1
 442 573 l 1,2,-1
 272 883 l 2,3,4
 227 964 227 964 194 1038 c 1,5,-1
 46 1038 l 1,6,-1
 46 1172 l 1,7,-1
 141 1172 l 1,8,9
 98 1303 98 1303 98 1407 c 2,10,-1
 98 1580 l 1,11,-1
 274 1580 l 1,12,-1
 274 1407 l 2,13,14
 274 1303 274 1303 319 1172 c 1,15,-1
 741 1172 l 1,16,17
 786 1303 786 1303 786 1407 c 2,18,-1
 786 1580 l 1,19,-1
 962 1580 l 1,20,-1
 962 1407 l 2,21,22
 962 1303 962 1303 918 1172 c 1,23,-1
 1014 1172 l 1,24,-1
 1014 1038 l 1,25,-1
 865 1038 l 1,26,27
 832 964 832 964 788 883 c 2,28,-1
 618 573 l 1,29,-1
 618 0 l 1,0,-1
406 972 m 2,30,-1
 530 725 l 1,31,-1
 654 972 l 2,32,33
 671 1006 671 1006 686 1038 c 1,34,-1
 373 1038 l 1,35,36
 388 1006 388 1006 406 972 c 2,30,-1
EndSplineSet
EndChar
StartChar: uni024F
Encoding: 591 591 519
Width: 1060
GlyphClass: 2
Flags: W
LayerCount: 2
Fore
SplineSet
280 -365 m 1,0,-1
 282 -327 l 2,1,2
 286 -261 286 -261 314 -189 c 2,3,-1
 448 160 l 1,4,-1
 208 749 l 1,5,-1
 46 749 l 1,6,-1
 46 883 l 1,7,-1
 158 883 l 1,8,9
 116 1007 116 1007 111 1082 c 2,10,-1
 106 1172 l 1,11,-1
 282 1172 l 1,12,-1
 287 1088 l 2,13,14
 290 1030 290 1030 341 883 c 1,15,-1
 721 883 l 1,16,17
 769 1028 769 1028 773 1088 c 2,18,-1
 778 1172 l 1,19,-1
 954 1172 l 1,20,-1
 948 1082 l 2,21,22
 944 1014 944 1014 900 883 c 1,23,-1
 1014 883 l 1,24,-1
 1014 749 l 1,25,-1
 851 749 l 1,26,-1
 481 -212 l 2,27,28
 462 -261 462 -261 458 -327 c 2,29,-1
 456 -365 l 1,30,-1
 280 -365 l 1,0,-1
530 365 m 1,31,-1
 673 749 l 1,32,-1
 389 749 l 1,33,-1
 530 365 l 1,31,-1
EndSplineSet
EndChar
StartChar: ezh
Encoding: 658 658 520
Width: 1060
GlyphClass: 2
Flags: W
LayerCount: 2
Fore
SplineSet
912 109 m 2,0,1
 912 -117 912 -117 794 -246 c 128,-1,2
 676 -375 676 -375 485 -375 c 0,3,4
 213 -375 213 -375 77 -115 c 1,5,-1
 211 -24 l 1,6,7
 285 -219 285 -219 484 -219 c 0,8,9
 602 -219 602 -219 668.5 -142 c 128,-1,10
 735 -65 735 -65 735 85 c 2,11,-1
 735 151 l 2,12,13
 735 270 735 270 664 335.5 c 128,-1,14
 593 401 593 401 434 401 c 2,15,-1
 307 401 l 1,16,-1
 307 538 l 1,17,-1
 696 1015 l 1,18,-1
 154 1015 l 1,19,-1
 154 1172 l 1,20,-1
 880 1172 l 1,21,-1
 880 989 l 1,22,-1
 515 549 l 1,23,24
 912 502 912 502 912 138 c 2,25,-1
 912 109 l 2,0,1
EndSplineSet
EndChar
StartChar: circumflex
Encoding: 710 710 521
Width: 1060
GlyphClass: 2
Flags: W
LayerCount: 2
Fore
SplineSet
822 1315 m 1,0,-1
 667 1315 l 1,1,-1
 530 1457 l 1,2,-1
 392 1315 l 1,3,-1
 237 1315 l 1,4,-1
 450 1580 l 1,5,-1
 609 1580 l 1,6,-1
 822 1315 l 1,0,-1
EndSplineSet
EndChar
StartChar: caron
Encoding: 711 711 522
Width: 1060
GlyphClass: 2
Flags: W
LayerCount: 2
Fore
SplineSet
609 1315 m 1,0,-1
 450 1315 l 1,1,-1
 237 1580 l 1,2,-1
 392 1580 l 1,3,-1
 530 1438 l 1,4,-1
 667 1580 l 1,5,-1
 822 1580 l 1,6,-1
 609 1315 l 1,0,-1
EndSplineSet
EndChar
StartChar: breve
Encoding: 728 728 523
Width: 1060
GlyphClass: 2
Flags: W
LayerCount: 2
Fore
SplineSet
808 1437 m 1,0,1
 688 1330 688 1330 530 1330 c 256,2,3
 372 1330 372 1330 252 1437 c 1,4,-1
 252 1600 l 1,5,6
 390 1474 390 1474 530 1474 c 0,7,8
 667 1474 667 1474 808 1600 c 1,9,-1
 808 1437 l 1,0,1
EndSplineSet
EndChar
StartChar: dotaccent
Encoding: 729 729 524
Width: 1060
GlyphClass: 2
Flags: W
LayerCount: 2
Fore
SplineSet
665 1445 m 0,0,1
 665 1389 665 1389 625 1349.5 c 128,-1,2
 585 1310 585 1310 529 1310 c 256,3,4
 473 1310 473 1310 433.5 1349.5 c 128,-1,5
 394 1389 394 1389 394 1445 c 0,6,7
 394 1502 394 1502 433.5 1541 c 128,-1,8
 473 1580 473 1580 529 1580 c 256,9,10
 585 1580 585 1580 625 1541 c 128,-1,11
 665 1502 665 1502 665 1445 c 0,0,1
EndSplineSet
EndChar
StartChar: ring
Encoding: 730 730 525
Width: 1060
GlyphClass: 2
Flags: W
LayerCount: 2
Fore
SplineSet
751 1420 m 256,0,1
 751 1345 751 1345 699 1292.5 c 128,-1,2
 647 1240 647 1240 530 1240 c 256,3,4
 413 1240 413 1240 361 1292.5 c 128,-1,5
 309 1345 309 1345 309 1420 c 256,6,7
 309 1495 309 1495 361 1547.5 c 128,-1,8
 413 1600 413 1600 530 1600 c 256,9,10
 647 1600 647 1600 699 1547.5 c 128,-1,11
 751 1495 751 1495 751 1420 c 256,0,1
627 1420 m 256,12,13
 627 1450 627 1450 605 1468 c 128,-1,14
 583 1486 583 1486 530 1486 c 0,15,16
 476 1486 476 1486 454.5 1468 c 128,-1,17
 433 1450 433 1450 433 1420 c 256,18,19
 433 1390 433 1390 454.5 1372 c 128,-1,20
 476 1354 476 1354 530 1354 c 0,21,22
 583 1354 583 1354 605 1372 c 128,-1,23
 627 1390 627 1390 627 1420 c 256,12,13
EndSplineSet
EndChar
StartChar: ogonek
Encoding: 731 731 526
Width: 1060
GlyphClass: 2
Flags: W
LayerCount: 2
Fore
SplineSet
699 -369 m 1,0,1
 544 -375 544 -375 459 -315.5 c 128,-1,2
 374 -256 374 -256 374 -162 c 0,3,4
 374 -61 374 -61 492 0 c 1,5,-1
 668 0 l 1,6,7
 537 -55 537 -55 537 -144 c 0,8,9
 537 -193 537 -193 583.5 -219.5 c 128,-1,10
 630 -246 630 -246 699 -239 c 1,11,-1
 699 -369 l 1,0,1
EndSplineSet
EndChar
StartChar: tilde
Encoding: 732 732 527
Width: 1060
GlyphClass: 2
Flags: W
LayerCount: 2
Fore
SplineSet
896 1530 m 1,0,1
 816 1334 816 1334 658 1334 c 0,2,3
 588 1334 588 1334 511 1392.5 c 128,-1,4
 434 1451 434 1451 396 1451 c 0,5,6
 332 1451 332 1451 250 1340 c 1,7,-1
 163 1413 l 1,8,9
 268 1600 268 1600 406 1600 c 0,10,11
 466 1600 466 1600 541 1540.5 c 128,-1,12
 616 1481 616 1481 668 1481 c 0,13,14
 732 1481 732 1481 793 1591 c 1,15,-1
 896 1530 l 1,0,1
EndSplineSet
EndChar
StartChar: hungarumlaut
Encoding: 733 733 528
Width: 1060
GlyphClass: 2
Flags: W
LayerCount: 2
Fore
SplineSet
936 1580 m 1,0,-1
 700 1315 l 1,1,-1
 536 1315 l 1,2,-1
 725 1580 l 1,3,-1
 936 1580 l 1,0,-1
583 1580 m 1,4,-1
 348 1315 l 1,5,-1
 183 1315 l 1,6,-1
 373 1580 l 1,7,-1
 583 1580 l 1,4,-1
EndSplineSet
EndChar
StartChar: dblgravecmb
Encoding: 783 783 529
Width: 1060
GlyphClass: 2
Flags: W
LayerCount: 2
Fore
SplineSet
335 1580 m 1,0,-1
 524 1315 l 1,1,-1
 360 1315 l 1,2,-1
 124 1580 l 1,3,-1
 335 1580 l 1,0,-1
687 1580 m 1,4,-1
 877 1315 l 1,5,-1
 712 1315 l 1,6,-1
 477 1580 l 1,7,-1
 687 1580 l 1,4,-1
EndSplineSet
EndChar
StartChar: breveinvertedcmb
Encoding: 785 785 530
Width: 1060
GlyphClass: 2
Flags: W
LayerCount: 2
Fore
SplineSet
808 1330 m 1,0,1
 667 1456 667 1456 530 1456 c 0,2,3
 390 1456 390 1456 252 1330 c 1,4,-1
 252 1493 l 1,5,6
 372 1600 372 1600 530 1600 c 256,7,8
 688 1600 688 1600 808 1493 c 1,9,-1
 808 1330 l 1,0,1
EndSplineSet
EndChar
StartChar: caroncommaaccent
Encoding: 789 789 531
Width: 1060
GlyphClass: 2
Flags: W
LayerCount: 2
Fore
SplineSet
1085 1580 m 1,0,-1
 1016 1215 l 1,1,-1
 871 1215 l 1,2,-1
 915 1580 l 1,3,-1
 1085 1580 l 1,0,-1
EndSplineSet
EndChar
StartChar: tonos
Encoding: 900 900 532
Width: 1060
GlyphClass: 2
Flags: W
LayerCount: 2
Fore
SplineSet
659 1580 m 1,0,-1
 524 1285 l 1,1,-1
 400 1285 l 1,2,-1
 469 1580 l 1,3,-1
 659 1580 l 1,0,-1
EndSplineSet
EndChar
StartChar: dieresistonos
Encoding: 901 901 533
Width: 1060
GlyphClass: 2
Flags: W
LayerCount: 2
Fore
SplineSet
675 1580 m 1,0,-1
 548 1303 l 1,1,-1
 418 1303 l 1,2,-1
 496 1580 l 1,3,-1
 675 1580 l 1,0,-1
334 1422 m 256,4,5
 334 1373 334 1373 303 1344 c 128,-1,6
 272 1315 272 1315 228 1315 c 256,7,8
 184 1315 184 1315 153 1344 c 128,-1,9
 122 1373 122 1373 122 1422 c 256,10,11
 122 1471 122 1471 153 1500 c 128,-1,12
 184 1529 184 1529 228 1529 c 256,13,14
 272 1529 272 1529 303 1500 c 128,-1,15
 334 1471 334 1471 334 1422 c 256,4,5
936 1422 m 256,16,17
 936 1373 936 1373 905 1344 c 128,-1,18
 874 1315 874 1315 830 1315 c 256,19,20
 786 1315 786 1315 755 1344 c 128,-1,21
 724 1373 724 1373 724 1422 c 256,22,23
 724 1471 724 1471 755 1500 c 128,-1,24
 786 1529 786 1529 830 1529 c 256,25,26
 874 1529 874 1529 905 1500 c 128,-1,27
 936 1471 936 1471 936 1422 c 256,16,17
EndSplineSet
EndChar
StartChar: Epsilontonos
Encoding: 904 904 535
Width: 1060
GlyphClass: 2
Flags: W
LayerCount: 2
Fore
SplineSet
974 0 m 1,0,-1
 356 0 l 1,1,-1
 356 1580 l 1,2,-1
 974 1580 l 1,3,-1
 974 1424 l 1,4,-1
 532 1424 l 1,5,-1
 532 905 l 1,6,-1
 830 905 l 1,7,-1
 830 748 l 1,8,-1
 532 748 l 1,9,-1
 532 157 l 1,10,-1
 974 157 l 1,11,-1
 974 0 l 1,0,-1
319 1580 m 1,12,-1
 184 1285 l 1,13,-1
 60 1285 l 1,14,-1
 129 1580 l 1,15,-1
 319 1580 l 1,12,-1
EndSplineSet
EndChar
StartChar: Etatonos
Encoding: 905 905 536
Width: 1060
GlyphClass: 2
Flags: W
LayerCount: 2
Fore
SplineSet
934 0 m 1,0,-1
 758 0 l 1,1,-1
 758 770 l 1,2,-1
 541 770 l 1,3,-1
 541 0 l 1,4,-1
 365 0 l 1,5,-1
 365 1580 l 1,6,-1
 541 1580 l 1,7,-1
 541 926 l 1,8,-1
 758 926 l 1,9,-1
 758 1580 l 1,10,-1
 934 1580 l 1,11,-1
 934 0 l 1,0,-1
319 1580 m 1,12,-1
 184 1285 l 1,13,-1
 60 1285 l 1,14,-1
 129 1580 l 1,15,-1
 319 1580 l 1,12,-1
EndSplineSet
EndChar
StartChar: Iotatonos
Encoding: 906 906 537
Width: 1060
GlyphClass: 2
Flags: W
LayerCount: 2
Fore
SplineSet
957 0 m 1,0,-1
 362 0 l 1,1,-1
 362 157 l 1,2,-1
 571 157 l 1,3,-1
 571 1424 l 1,4,-1
 405 1424 l 1,5,-1
 405 1580 l 1,6,-1
 914 1580 l 1,7,-1
 914 1424 l 1,8,-1
 748 1424 l 1,9,-1
 748 157 l 1,10,-1
 957 157 l 1,11,-1
 957 0 l 1,0,-1
319 1580 m 1,12,-1
 184 1285 l 1,13,-1
 60 1285 l 1,14,-1
 129 1580 l 1,15,-1
 319 1580 l 1,12,-1
EndSplineSet
EndChar
StartChar: Omicrontonos
Encoding: 908 908 538
Width: 1060
GlyphClass: 2
Flags: W
LayerCount: 2
Fore
SplineSet
943 507 m 2,0,1
 943 218 943 218 855 99 c 128,-1,2
 767 -20 767 -20 615 -20 c 256,3,4
 463 -20 463 -20 375 99 c 128,-1,5
 287 218 287 218 287 507 c 2,6,-1
 287 1074 l 2,7,8
 287 1363 287 1363 375 1482.5 c 128,-1,9
 463 1602 463 1602 615 1602 c 256,10,11
 767 1602 767 1602 855 1482.5 c 128,-1,12
 943 1363 943 1363 943 1074 c 2,13,-1
 943 507 l 2,0,1
766 411 m 2,14,-1
 766 1169 l 2,15,16
 766 1445 766 1445 614 1445 c 0,17,18
 464 1445 464 1445 464 1169 c 2,19,-1
 464 411 l 2,20,21
 464 136 464 136 616 136 c 0,22,23
 766 136 766 136 766 411 c 2,14,-1
319 1580 m 1,24,-1
 184 1285 l 1,25,-1
 60 1285 l 1,26,-1
 129 1580 l 1,27,-1
 319 1580 l 1,24,-1
EndSplineSet
EndChar
StartChar: Upsilontonos
Encoding: 910 910 539
Width: 1060
GlyphClass: 2
Flags: W
LayerCount: 2
Fore
SplineSet
957 1321 m 1,0,-1
 738 607 l 1,1,-1
 738 0 l 1,2,-1
 561 0 l 1,3,-1
 561 607 l 1,4,-1
 343 1321 l 1,5,-1
 343 1580 l 1,6,-1
 519 1580 l 1,7,-1
 519 1342 l 1,8,-1
 650 837 l 1,9,-1
 781 1342 l 1,10,-1
 781 1580 l 1,11,-1
 957 1580 l 1,12,-1
 957 1321 l 1,0,-1
319 1580 m 1,13,-1
 184 1285 l 1,14,-1
 60 1285 l 1,15,-1
 129 1580 l 1,16,-1
 319 1580 l 1,13,-1
EndSplineSet
EndChar
StartChar: Omegatonos
Encoding: 911 911 540
Width: 1060
GlyphClass: 2
Flags: W
LayerCount: 2
Fore
SplineSet
611 1445 m 0,0,1
 456 1445 456 1445 456 1169 c 2,2,-1
 456 574 l 2,3,4
 456 320 456 320 534 222 c 1,5,-1
 534 0 l 1,6,-1
 267 0 l 1,7,-1
 267 155 l 1,8,-1
 416 155 l 1,9,10
 279 276 279 276 279 624 c 2,11,-1
 279 1074 l 2,12,13
 279 1363 279 1363 367 1482.5 c 128,-1,14
 455 1602 455 1602 612 1602 c 256,15,16
 769 1602 769 1602 857 1482.5 c 128,-1,17
 945 1363 945 1363 945 1074 c 2,18,-1
 945 624 l 2,19,20
 945 276 945 276 808 155 c 1,21,-1
 957 155 l 1,22,-1
 957 0 l 1,23,-1
 690 0 l 1,24,-1
 690 222 l 1,25,26
 768 320 768 320 768 574 c 2,27,-1
 768 1169 l 2,28,29
 768 1445 768 1445 611 1445 c 0,0,1
319 1580 m 1,30,-1
 184 1285 l 1,31,-1
 60 1285 l 1,32,-1
 129 1580 l 1,33,-1
 319 1580 l 1,30,-1
EndSplineSet
EndChar
StartChar: Gamma
Encoding: 915 915 544
Width: 1060
GlyphClass: 2
Flags: W
LayerCount: 2
Fore
SplineSet
943 1424 m 1,0,-1
 413 1424 l 1,1,-1
 413 0 l 1,2,-1
 236 0 l 1,3,-1
 236 1580 l 1,4,-1
 943 1580 l 1,5,-1
 943 1424 l 1,0,-1
EndSplineSet
EndChar
StartChar: Theta
Encoding: 920 920 549
Width: 1060
GlyphClass: 2
Flags: W
LayerCount: 2
Fore
SplineSet
671 781 m 1,0,-1
 389 781 l 1,1,-1
 389 927 l 1,2,-1
 671 927 l 1,3,-1
 671 781 l 1,0,-1
142 548 m 2,4,-1
 142 1044 l 2,5,6
 142 1343 142 1343 255 1472.5 c 128,-1,7
 368 1602 368 1602 530 1602 c 256,8,9
 692 1602 692 1602 805 1472.5 c 128,-1,10
 918 1343 918 1343 918 1044 c 2,11,-1
 918 548 l 2,12,13
 918 239 918 239 805 109.5 c 128,-1,14
 692 -20 692 -20 530 -20 c 0,15,16
 378 -20 378 -20 260 109.5 c 128,-1,17
 142 239 142 239 142 548 c 2,4,-1
319 548 m 2,18,19
 319 290 319 290 379.5 213.5 c 128,-1,20
 440 137 440 137 529 137 c 256,21,22
 618 137 618 137 679.5 214 c 128,-1,23
 741 291 741 291 741 548 c 2,24,-1
 741 1044 l 2,25,26
 741 1291 741 1291 679.5 1368 c 128,-1,27
 618 1445 618 1445 529 1445 c 256,28,29
 440 1445 440 1445 379.5 1368.5 c 128,-1,30
 319 1292 319 1292 319 1044 c 2,31,-1
 319 548 l 2,18,19
EndSplineSet
EndChar
StartChar: Lambda
Encoding: 923 923 552
Width: 1060
GlyphClass: 2
Flags: W
LayerCount: 2
Fore
SplineSet
848 0 m 1,0,-1
 530 1300 l 1,1,-1
 210 0 l 1,2,-1
 16 0 l 1,3,-1
 439 1580 l 1,4,-1
 621 1580 l 1,5,-1
 1044 0 l 1,6,-1
 848 0 l 1,0,-1
EndSplineSet
EndChar
StartChar: Xi
Encoding: 926 926 555
Width: 1060
GlyphClass: 2
Flags: W
LayerCount: 2
Fore
SplineSet
832 905 m 1,0,-1
 832 748 l 1,1,-1
 228 748 l 1,2,-1
 228 905 l 1,3,-1
 832 905 l 1,0,-1
924 0 m 1,4,-1
 136 0 l 1,5,-1
 136 157 l 1,6,-1
 924 157 l 1,7,-1
 924 0 l 1,4,-1
136 1580 m 1,8,-1
 924 1580 l 1,9,-1
 924 1424 l 1,10,-1
 136 1424 l 1,11,-1
 136 1580 l 1,8,-1
EndSplineSet
EndChar
StartChar: Sigma
Encoding: 931 931 559
Width: 1060
GlyphClass: 2
Flags: W
LayerCount: 2
Fore
SplineSet
584 812 m 1,0,-1
 148 1403 l 1,1,-1
 148 1580 l 1,2,-1
 933 1580 l 1,3,-1
 933 1423 l 1,4,-1
 346 1423 l 1,5,-1
 779 812 l 1,6,-1
 346 157 l 1,7,-1
 933 157 l 1,8,-1
 933 0 l 1,9,-1
 148 0 l 1,10,-1
 148 177 l 1,11,-1
 584 812 l 1,0,-1
EndSplineSet
EndChar
StartChar: Psi
Encoding: 936 936 564
Width: 1060
GlyphClass: 2
Flags: W
LayerCount: 2
Fore
SplineSet
466 1580 m 1,0,-1
 592 1580 l 1,1,-1
 592 527 l 1,2,3
 768 576 768 576 768 796 c 2,4,-1
 768 1580 l 1,5,-1
 935 1580 l 1,6,-1
 935 841 l 2,7,8
 935 437 935 437 592 365 c 1,9,-1
 592 0 l 1,10,-1
 466 0 l 1,11,-1
 466 365 l 1,12,13
 125 437 125 437 125 841 c 2,14,-1
 125 1580 l 1,15,-1
 291 1580 l 1,16,-1
 291 796 l 2,17,18
 291 576 291 576 466 527 c 1,19,-1
 466 1580 l 1,0,-1
EndSplineSet
EndChar
StartChar: Omegagreek
Encoding: 937 937 565
Width: 1060
GlyphClass: 2
Flags: W
LayerCount: 2
Fore
SplineSet
530 1435 m 256,0,1
 440 1435 440 1435 379.5 1373.5 c 128,-1,2
 319 1312 319 1312 319 1139 c 2,3,-1
 319 574 l 2,4,5
 319 320 319 320 457 222 c 1,6,-1
 457 0 l 1,7,-1
 130 0 l 1,8,-1
 130 155 l 1,9,-1
 339 155 l 1,10,11
 142 276 142 276 142 624 c 2,12,-1
 142 1074 l 2,13,14
 142 1373 142 1373 255 1487.5 c 128,-1,15
 368 1602 368 1602 530 1602 c 256,16,17
 692 1602 692 1602 805 1487.5 c 128,-1,18
 918 1373 918 1373 918 1074 c 2,19,-1
 918 624 l 2,20,21
 918 276 918 276 721 155 c 1,22,-1
 930 155 l 1,23,-1
 930 0 l 1,24,-1
 603 0 l 1,25,-1
 603 222 l 1,26,27
 741 320 741 320 741 574 c 2,28,-1
 741 1139 l 2,29,30
 741 1312 741 1312 680.5 1373.5 c 128,-1,31
 620 1435 620 1435 530 1435 c 256,0,1
EndSplineSet
EndChar
StartChar: alpha
Encoding: 945 945 573
Width: 1060
GlyphClass: 2
Flags: W
LayerCount: 2
Fore
SplineSet
125 699 m 2,0,1
 125 968 125 968 226 1081 c 128,-1,2
 327 1194 327 1194 457 1194 c 0,3,4
 683 1194 683 1194 791 897 c 1,5,-1
 833 1172 l 1,6,-1
 1007 1172 l 1,7,8
 925 820 925 820 925 590 c 0,9,10
 925 353 925 353 1007 0 c 1,11,-1
 833 1 l 1,12,-1
 791 277 l 1,13,14
 683 -20 683 -20 457 -20 c 0,15,16
 327 -20 327 -20 226 93 c 128,-1,17
 125 206 125 206 125 475 c 2,18,-1
 125 699 l 2,0,1
301 465 m 2,19,20
 301 269 301 269 348.5 203 c 128,-1,21
 396 137 396 137 479 137 c 0,22,23
 657 137 657 137 749 590 c 1,24,25
 657 1037 657 1037 479 1037 c 0,26,27
 396 1037 396 1037 348.5 971 c 128,-1,28
 301 905 301 905 301 709 c 2,29,-1
 301 465 l 2,19,20
EndSplineSet
EndChar
StartChar: beta
Encoding: 946 946 574
Width: 1060
GlyphClass: 2
Flags: W
LayerCount: 2
Fore
SplineSet
925 420 m 2,0,1
 925 209 925 209 812 94.5 c 128,-1,2
 699 -20 699 -20 510 -20 c 0,3,4
 415 -20 415 -20 322 7 c 1,5,-1
 322 -365 l 1,6,-1
 145 -365 l 1,7,-1
 145 1192 l 2,8,9
 145 1373 145 1373 248 1487.5 c 128,-1,10
 351 1602 351 1602 510 1602 c 0,11,12
 649 1602 649 1602 757 1497.5 c 128,-1,13
 865 1393 865 1393 865 1202 c 2,14,-1
 865 1160 l 2,15,16
 865 1047 865 1047 806.5 959 c 128,-1,17
 748 871 748 871 661 846 c 1,18,19
 804 814 804 814 864.5 724.5 c 128,-1,20
 925 635 925 635 925 473 c 2,21,-1
 925 420 l 2,0,1
322 160 m 1,22,23
 413 137 413 137 509 137 c 0,24,25
 625 137 625 137 686.5 199 c 128,-1,26
 748 261 748 261 748 418 c 2,27,-1
 748 476 l 2,28,29
 748 634 748 634 687 701 c 128,-1,30
 626 768 626 768 500 768 c 2,31,-1
 465 768 l 1,32,-1
 465 925 l 1,33,-1
 489 925 l 2,34,35
 565 925 565 925 626.5 987 c 128,-1,36
 688 1049 688 1049 688 1156 c 2,37,-1
 688 1215 l 2,38,39
 688 1342 688 1342 631.5 1394 c 128,-1,40
 575 1446 575 1446 509 1446 c 0,41,42
 423 1446 423 1446 372.5 1389.5 c 128,-1,43
 322 1333 322 1333 322 1195 c 2,44,-1
 322 160 l 1,22,23
EndSplineSet
EndChar
StartChar: gamma
Encoding: 947 947 575
Width: 1060
GlyphClass: 2
Flags: W
LayerCount: 2
Fore
SplineSet
429 -365 m 1,0,-1
 429 0 l 1,1,-1
 226 613 l 2,2,3
 121 928 121 928 111 1088 c 2,4,-1
 106 1172 l 1,5,-1
 282 1172 l 1,6,-1
 287 1088 l 2,7,8
 296 936 296 936 387 638 c 2,9,-1
 530 166 l 1,10,-1
 593 261 l 1,11,12
 762 532 762 532 771 893 c 2,13,-1
 778 1172 l 1,14,-1
 954 1172 l 1,15,-1
 947 893 l 2,16,17
 937 508 937 508 723 185 c 2,18,-1
 605 7 l 1,19,-1
 605 -365 l 1,20,-1
 429 -365 l 1,0,-1
EndSplineSet
EndChar
StartChar: delta
Encoding: 948 948 576
Width: 1060
GlyphClass: 2
Flags: W
LayerCount: 2
Fore
SplineSet
906 1423 m 1,0,-1
 335 1423 l 1,1,2
 335 1373 335 1373 405 1308 c 2,3,-1
 697 1045 l 1,4,5
 925 830 925 830 925 507 c 0,6,7
 925 238 925 238 814.5 109 c 128,-1,8
 704 -20 704 -20 530 -20 c 256,9,10
 356 -20 356 -20 246 109 c 128,-1,11
 136 238 136 238 136 507 c 0,12,13
 136 844 136 844 420 1078 c 1,14,-1
 292 1193 l 2,15,16
 159 1315 159 1315 159 1491 c 2,17,-1
 159 1580 l 1,18,-1
 906 1580 l 1,19,-1
 906 1423 l 1,0,-1
749 507 m 0,20,21
 749 804 749 804 541 969 c 1,22,23
 312 801 312 801 312 507 c 0,24,25
 312 299 312 299 373 219.5 c 128,-1,26
 434 140 434 140 530 140 c 256,27,28
 626 140 626 140 687.5 219.5 c 128,-1,29
 749 299 749 299 749 507 c 0,20,21
EndSplineSet
EndChar
StartChar: epsilon
Encoding: 949 949 577
Width: 1060
GlyphClass: 2
Flags: W
LayerCount: 2
Fore
SplineSet
973 202 m 1,0,1
 827 -20 827 -20 555 -20 c 0,2,3
 361 -20 361 -20 249.5 89 c 128,-1,4
 138 198 138 198 138 328 c 0,5,6
 138 531 138 531 350 599 c 1,7,8
 170 673 170 673 170 872 c 0,9,10
 170 1005 170 1005 277.5 1099.5 c 128,-1,11
 385 1194 385 1194 555 1194 c 0,12,13
 806 1194 806 1194 952 973 c 1,14,-1
 818 882 l 1,15,16
 734 1037 734 1037 556 1037 c 0,17,18
 470 1037 470 1037 408.5 990 c 128,-1,19
 347 943 347 943 347 861 c 0,20,21
 347 771 347 771 408 724.5 c 128,-1,22
 469 678 469 678 556 678 c 2,23,-1
 663 678 l 1,24,-1
 663 521 l 1,25,-1
 556 521 l 2,26,27
 437 521 437 521 376 475.5 c 128,-1,28
 315 430 315 430 315 338 c 256,29,30
 315 246 315 246 376.5 191 c 128,-1,31
 438 136 438 136 556 136 c 0,32,33
 755 136 755 136 839 293 c 1,34,-1
 973 202 l 1,0,1
EndSplineSet
EndChar
StartChar: zeta
Encoding: 950 950 578
Width: 1060
GlyphClass: 2
Flags: W
LayerCount: 2
Fore
SplineSet
511 -14 m 0,0,1
 135 60 135 60 135 463 c 0,2,3
 135 757 135 757 390 1022 c 2,4,-1
 676 1320 l 2,5,6
 733 1379 733 1379 733 1423 c 1,7,-1
 162 1423 l 1,8,-1
 162 1580 l 1,9,-1
 909 1580 l 1,10,-1
 909 1493 l 2,11,12
 909 1340 909 1340 779 1206 c 2,13,-1
 539 955 l 2,14,15
 312 720 312 720 312 463 c 0,16,17
 312 182 312 182 566 133 c 0,18,19
 941 57 941 57 925 -365 c 1,20,-1
 749 -365 l 1,21,22
 760 -63 760 -63 511 -14 c 0,0,1
EndSplineSet
EndChar
StartChar: eta
Encoding: 951 951 579
Width: 1060
GlyphClass: 2
Flags: W
LayerCount: 2
Fore
SplineSet
915 -365 m 1,0,-1
 739 -365 l 1,1,-1
 739 790 l 2,2,3
 739 912 739 912 693 969 c 0,4,5
 644 1031 644 1031 561 1031 c 0,6,7
 416 1031 416 1031 321 899 c 1,8,-1
 321 0 l 1,9,-1
 145 0 l 1,10,-1
 145 1172 l 1,11,-1
 321 1172 l 1,12,-1
 321 1037 l 1,13,14
 434 1189 434 1189 604 1189 c 0,15,16
 735 1189 735 1189 825 1092 c 128,-1,17
 915 995 915 995 915 790 c 2,18,-1
 915 -365 l 1,0,-1
EndSplineSet
EndChar
StartChar: theta
Encoding: 952 952 580
Width: 1060
GlyphClass: 2
Flags: W
LayerCount: 2
Fore
SplineSet
918 567 m 2,0,1
 918 248 918 248 805 114 c 128,-1,2
 692 -20 692 -20 530 -20 c 0,3,4
 378 -20 378 -20 260 114 c 128,-1,5
 142 248 142 248 142 567 c 2,6,-1
 142 1159 l 2,7,8
 142 1478 142 1478 255 1607.5 c 128,-1,9
 368 1737 368 1737 530 1737 c 256,10,11
 692 1737 692 1737 805 1607.5 c 128,-1,12
 918 1478 918 1478 918 1159 c 2,13,-1
 918 567 l 2,0,1
741 1154 m 2,14,15
 741 1406 741 1406 679.5 1493 c 128,-1,16
 618 1580 618 1580 529 1580 c 256,17,18
 440 1580 440 1580 379.5 1493.5 c 128,-1,19
 319 1407 319 1407 319 1154 c 2,20,-1
 319 935 l 1,21,-1
 741 935 l 1,22,-1
 741 1154 l 2,14,15
741 571 m 2,23,-1
 741 778 l 1,24,-1
 319 778 l 1,25,-1
 319 571 l 2,26,27
 319 310 319 310 380.5 223 c 128,-1,28
 442 136 442 136 531 136 c 256,29,30
 620 136 620 136 680.5 222.5 c 128,-1,31
 741 309 741 309 741 571 c 2,23,-1
EndSplineSet
EndChar
StartChar: iota
Encoding: 953 953 581
Width: 1060
GlyphClass: 2
Flags: W
LayerCount: 2
Fore
SplineSet
341 347 m 2,0,-1
 341 1015 l 1,1,-1
 100 1015 l 1,2,-1
 100 1172 l 1,3,-1
 518 1172 l 1,4,-1
 518 335 l 2,5,6
 518 229 518 229 559 182.5 c 128,-1,7
 600 136 600 136 673 136 c 0,8,9
 796 136 796 136 859 261 c 1,10,-1
 992 164 l 1,11,12
 869 -20 869 -20 663 -20 c 0,13,14
 527 -20 527 -20 434 73 c 128,-1,15
 341 166 341 166 341 347 c 2,0,-1
EndSplineSet
EndChar
StartChar: lambda
Encoding: 955 955 583
Width: 1060
GlyphClass: 2
Flags: W
LayerCount: 2
Fore
SplineSet
326 1329 m 2,0,1
 286 1433 286 1433 280 1537 c 2,2,-1
 278 1580 l 1,3,-1
 454 1580 l 1,4,-1
 456 1537 l 2,5,6
 462 1433 462 1433 493 1352 c 2,7,-1
 855 414 l 2,8,9
 943 187 943 187 948 90 c 2,10,-1
 954 0 l 1,11,-1
 778 0 l 1,12,-1
 773 84 l 2,13,14
 768 159 768 159 693 370 c 2,15,-1
 530 807 l 1,16,-1
 368 364 l 2,17,18
 291 155 291 155 287 84 c 2,19,-1
 282 0 l 1,20,-1
 106 0 l 1,21,-1
 111 90 l 2,22,23
 118 199 118 199 205 414 c 2,24,-1
 448 1012 l 1,25,-1
 326 1329 l 2,0,1
EndSplineSet
EndChar
StartChar: xi
Encoding: 958 958 586
Width: 1060
GlyphClass: 2
Flags: W
LayerCount: 2
Fore
SplineSet
522 -15 m 0,0,1
 128 63 128 63 128 413 c 0,2,3
 128 639 128 639 350 747 c 1,4,5
 180 823 180 823 180 1020 c 0,6,7
 180 1303 180 1303 537 1423 c 1,8,-1
 162 1423 l 1,9,-1
 162 1580 l 1,10,-1
 909 1580 l 1,11,-1
 909 1423 l 1,12,13
 357 1313 357 1313 357 1030 c 0,14,15
 357 826 357 826 566 826 c 2,16,-1
 871 826 l 1,17,-1
 871 669 l 1,18,-1
 566 669 l 2,19,20
 305 669 305 669 305 390 c 0,21,22
 305 184 305 184 566 133 c 0,23,24
 994 47 994 47 906 -365 c 1,25,-1
 739 -365 l 1,26,27
 830 -76 830 -76 522 -15 c 0,0,1
EndSplineSet
EndChar
StartChar: pi
Encoding: 960 960 588
Width: 1060
GlyphClass: 2
Flags: W
LayerCount: 2
Fore
SplineSet
975 1016 m 1,0,-1
 829 1016 l 1,1,-1
 829 223 l 2,2,3
 829 160 829 160 873 160 c 2,4,-1
 975 160 l 1,5,-1
 975 0 l 1,6,-1
 873 0 l 2,7,8
 652 0 652 0 652 243 c 2,9,-1
 652 1016 l 1,10,-1
 397 1016 l 1,11,-1
 397 0 l 1,12,-1
 220 0 l 1,13,-1
 220 1016 l 1,14,-1
 84 1016 l 1,15,-1
 84 1172 l 1,16,-1
 975 1172 l 1,17,-1
 975 1016 l 1,0,-1
EndSplineSet
EndChar
StartChar: rho
Encoding: 961 961 589
Width: 1060
GlyphClass: 2
Flags: W
LayerCount: 2
Fore
SplineSet
935 478 m 2,0,1
 935 220 935 220 834.5 102.5 c 128,-1,2
 734 -15 734 -15 593 -17 c 0,3,4
 433 -15 433 -15 341 76 c 1,5,-1
 341 -365 l 1,6,-1
 165 -365 l 1,7,-1
 165 697 l 2,8,9
 165 966 165 966 278 1080 c 128,-1,10
 391 1194 391 1194 550 1194 c 256,11,12
 709 1194 709 1194 822 1080 c 128,-1,13
 935 966 935 966 935 699 c 2,14,-1
 935 478 l 2,0,1
759 467 m 2,15,-1
 759 761 l 2,16,17
 759 913 759 913 697.5 975 c 128,-1,18
 636 1037 636 1037 550 1037 c 256,19,20
 464 1037 464 1037 402.5 975 c 128,-1,21
 341 913 341 913 341 761 c 2,22,-1
 341 223 l 1,23,24
 435 141 435 141 551 141 c 0,25,26
 654 141 654 141 706.5 210.5 c 128,-1,27
 759 280 759 280 759 467 c 2,15,-1
EndSplineSet
EndChar
StartChar: sigma1
Encoding: 962 962 590
Width: 1060
GlyphClass: 2
Flags: W
LayerCount: 2
Fore
SplineSet
739 -365 m 1,0,1
 830 -76 830 -76 522 -15 c 0,2,3
 128 63 128 63 128 463 c 0,4,5
 128 753 128 753 227.5 973.5 c 128,-1,6
 327 1194 327 1194 577 1194 c 0,7,8
 807 1194 807 1194 942 977 c 1,9,-1
 809 884 l 1,10,11
 722 1036 722 1036 577 1036 c 0,12,13
 427 1036 427 1036 366 879.5 c 128,-1,14
 305 723 305 723 305 463 c 0,15,16
 305 184 305 184 566 133 c 0,17,18
 994 47 994 47 906 -365 c 1,19,-1
 739 -365 l 1,0,1
EndSplineSet
EndChar
StartChar: sigma
Encoding: 963 963 591
Width: 1060
GlyphClass: 2
Flags: W
LayerCount: 2
Fore
SplineSet
801 1015 m 1,0,1
 884 876 884 876 884 657 c 2,2,-1
 884 475 l 2,3,4
 884 207 884 207 776.5 93.5 c 128,-1,5
 669 -20 669 -20 510 -20 c 256,6,7
 351 -20 351 -20 243 93.5 c 128,-1,8
 135 207 135 207 135 475 c 2,9,-1
 135 677 l 2,10,11
 135 916 135 916 263 1044 c 128,-1,12
 391 1172 391 1172 604 1172 c 2,13,-1
 955 1172 l 1,14,-1
 955 1015 l 1,15,-1
 801 1015 l 1,0,1
708 411 m 2,16,-1
 708 701 l 2,17,18
 708 913 708 913 631 1016 c 1,19,20
 464 1026 464 1026 387.5 939.5 c 128,-1,21
 311 853 311 853 311 681 c 2,22,-1
 311 411 l 2,23,24
 311 260 311 260 367.5 198.5 c 128,-1,25
 424 137 424 137 510 137 c 256,26,27
 596 137 596 137 652 198.5 c 128,-1,28
 708 260 708 260 708 411 c 2,16,-1
EndSplineSet
EndChar
StartChar: tau
Encoding: 964 964 592
Width: 1060
GlyphClass: 2
Flags: W
LayerCount: 2
Fore
SplineSet
982 108 m 1,0,1
 867 -20 867 -20 696 -20 c 0,2,3
 560 -20 560 -20 467 73 c 128,-1,4
 374 166 374 166 374 347 c 2,5,-1
 374 1015 l 1,6,-1
 107 1015 l 1,7,-1
 107 1172 l 1,8,-1
 946 1172 l 1,9,-1
 946 1015 l 1,10,-1
 551 1015 l 1,11,-1
 551 335 l 2,12,13
 551 229 551 229 592 182.5 c 128,-1,14
 633 136 633 136 706 136 c 0,15,16
 802 136 802 136 859 214 c 1,17,-1
 982 108 l 1,0,1
EndSplineSet
EndChar
StartChar: upsilon
Encoding: 965 965 593
Width: 1060
GlyphClass: 2
Flags: W
LayerCount: 2
Fore
SplineSet
530 -20 m 256,0,1
 371 -20 371 -20 258 93 c 128,-1,2
 145 206 145 206 145 475 c 2,3,-1
 145 1172 l 1,4,-1
 321 1172 l 1,5,-1
 321 411 l 2,6,7
 321 258 321 258 382.5 197.5 c 128,-1,8
 444 137 444 137 530 137 c 256,9,10
 616 137 616 137 677.5 207.5 c 128,-1,11
 739 278 739 278 739 471 c 0,12,13
 739 777 739 777 671 1172 c 1,14,-1
 847 1172 l 1,15,16
 915 737 915 737 915 475 c 0,17,18
 915 216 915 216 802 98 c 128,-1,19
 689 -20 689 -20 530 -20 c 256,0,1
EndSplineSet
EndChar
StartChar: chi
Encoding: 967 967 595
Width: 1060
GlyphClass: 2
Flags: W
LayerCount: 2
Fore
SplineSet
50 1015 m 1,0,-1
 50 1172 l 1,1,-1
 82 1172 l 2,2,3
 255 1172 255 1172 338 1015 c 2,4,-1
 550 612 l 1,5,-1
 644 783 l 2,6,7
 756 985 756 985 763 1129 c 2,8,-1
 766 1172 l 1,9,-1
 942 1172 l 1,10,-1
 938 1114 l 2,11,12
 932 973 932 973 778 697 c 2,13,-1
 639 444 l 1,14,-1
 827 88 l 2,15,16
 962 -167 962 -167 968 -295 c 2,17,-1
 972 -365 l 1,18,-1
 796 -365 l 1,19,-1
 793 -310 l 2,20,21
 786 -177 786 -177 692 2 c 2,22,-1
 547 276 l 1,23,-1
 396 2 l 2,24,25
 282 -202 282 -202 277 -310 c 2,26,-1
 274 -365 l 1,27,-1
 98 -365 l 1,28,-1
 102 -295 l 2,29,30
 107 -189 107 -189 261 88 c 2,31,-1
 458 445 l 1,32,-1
 187 959 l 2,33,34
 157 1015 157 1015 82 1015 c 2,35,-1
 50 1015 l 1,0,-1
EndSplineSet
EndChar
